<svg fill="none" height="48" viewBox="0 0 136 48" width="136" xmlns="http://www.w3.org/2000/svg"><g clip-rule="evenodd" fill="#222" fill-rule="evenodd"><path d="m81.2463 32.9303c-6.3925 4.7123-15.6628 7.2264-23.6361 7.2264-11.1866 0-21.2567-4.138-28.8747-11.0201-.5984-.5413-.0627-1.2784.6601-.8571 8.2219 4.785 18.3877 7.6632 28.889 7.6632 7.0822 0 14.874-1.4655 22.0377-4.511 1.0814-.4599 1.9867.7086.9284 1.4942"/><path d="m83.9039 29.8853c-.8141-1.0442-5.4014-.494-7.4607-.2498-.6271.077-.7228-.4687-.1584-.8615 3.6544-2.5723 9.6498-1.8297 10.3484-.9671.6985.8626-.1815 6.8765-3.6149 9.746-.5269.4401-1.0296.2057-.7953-.3785.77-1.9254 2.4993-6.2406 1.6809-7.2891z"/><path d="m76.5843 10.6211v-2.49971c-.0022-.0836.0127-.1667.0437-.2443.031-.0777.0774-.1482.1364-.2074.0591-.0591.1295-.1057.2071-.1368s.1606-.0461.2442-.0442h11.1943c.0846-.0033.1691.0107.2481.0412.079.0304.151.0767.2115.1359.0606.0592.1084.1301.1406.2085.0322.0783.0481.1624.0467.2471v2.14001c0 .3597-.307.8284-.8427 1.5711l-5.7996 8.2804c2.1551-.0528 4.43.2685 6.3805 1.3698.44.2498.5599.6129.5929.9727v2.6681c0 .363-.4015.7899-.8229.5699-3.4432-1.8066-8.0162-2.0025-11.8235.0187-.3873.2101-.7943-.2113-.7943-.5743v-2.5306c0-.4071 0-1.1002.4114-1.7197l6.7182-9.6359h-5.8436c-.0842.0036-.1682-.01-.2469-.04-.0788-.03-.1506-.0758-.211-.1345-.0605-.0587-.1083-.1291-.1406-.207-.0323-.0778-.0484-.1614-.0472-.2457"/><path d="m35.7648 26.2193h-3.4036c-.1539-.0074-.3001-.07-.4118-.1762-.1116-.1063-.1814-.2491-.1965-.4025v-17.47632c.0015-.0847.0199-.1683.054-.2458.0342-.0776.0834-.1475.1448-.2059s.1338-.1039.213-.134c.0792-.0302.1636-.0442.2482-.0414h3.1748c.1567.0047.3062.0669.4202.1746.1139.1076.1844.2534.1981.4096v2.28962h.0627c.8228-2.21372 2.3783-3.24352 4.4762-3.24352 2.1308 0 3.4619 1.0298 4.4201 3.23802.8228-2.20822 2.6951-3.23802 4.7017-3.23802 1.43 0 2.9877.5897 3.9415 1.9111 1.077 1.47102.857 3.60662.857 5.47922v11.03c-.0015.0849-.0197.1687-.0537.2466-.0341.0778-.0832.1482-.1446.2069s-.1338.1047-.2131.1352c-.0792.0306-.1638.0451-.2487.0428h-3.3992c-.1631-.0086-.3169-.0784-.4307-.1954-.1138-.1171-.1792-.2729-.1831-.4361v-9.263c0-.7372.0671-2.5768-.0957-3.2754-.2531-1.174-1.0143-1.5041-2.0011-1.5041-.8239 0-1.6853.5502-2.0351 1.4304s-.3157 2.3567-.3157 3.348v9.263c-.0014.0849-.0197.1687-.0537.2466-.0341.0778-.0832.1482-.1446.2069s-.1338.1047-.213.1352c-.0793.0306-.1639.0451-.2488.0428h-3.3926c-.1634-.0075-.3178-.077-.4318-.1943s-.1791-.2737-.182-.4372v-9.263c-.0088-1.9518.3124-4.8125-2.1056-4.8125-2.4509 0-2.3519 2.7925-2.3519 4.8136v9.263c-.0014.0849-.0197.1687-.0537.2466-.0341.0778-.0832.1482-.1446.2069-.0613.0587-.1338.1047-.213.1352-.0793.0306-.1638.0451-.2488.0428"/><path d="m98.6957 7.16748c5.0513 0 7.7863 4.33932 7.7863 9.85712 0 5.3306-3.022 9.5589-7.7863 9.5589-4.9613 0-7.662-4.3394-7.662-9.746-.0044-5.4363 2.7304-9.67002 7.662-9.67002zm.0242 3.57362c-2.5092 0-2.6643 3.4107-2.6643 5.5452s-.033 6.6961 2.6401 6.6961c2.6403 0 2.7623-3.6781 2.7623-5.9193 0-1.4755-.062-3.2381-.507-4.6365-.385-1.2168-1.1486-1.6855-2.2311-1.6855z"/><path d="m113.027 26.2193h-3.389c-.163-.0086-.317-.0784-.431-.1954-.114-.1171-.179-.2729-.183-.4361v-17.48072c.018-.1605.096-.3083.219-.4138.122-.1056.28-.1613.441-.1561h3.147c.14.0053.274.0557.384.1438.109.088.186.2089.221.3447v2.67142h.062c.953-2.38982 2.289-3.52962 4.64-3.52962 1.528 0 3.017.5501 3.974 2.0596.895 1.40392.895 3.74972.895 5.44072v11.0025c-.027.1554-.108.2963-.229.3971-.121.1009-.274.1552-.431.153h-3.411c-.148-.0077-.29-.0667-.4-.167-.11-.1004-.181-.2358-.203-.3831v-9.494c0-1.9112.22-4.708-2.131-4.708-.829 0-1.59.5501-1.968 1.3984-.479 1.0684-.541 2.1312-.541 3.3096v9.4115c-.007.1712-.081.3328-.205.4507-.125.1178-.29.1827-.461.1808z"/><path d="m67.666 17.8715c0 1.3269.0341 2.4326-.6369 3.611-.5413.9583-1.4026 1.5469-2.3553 1.5469-1.308 0-2.0736-.9957-2.0736-2.4656 0-2.9024 2.5995-3.4295 5.0658-3.4295zm3.4333 8.3002c-.1098.0939-.2456.1519-.3893.1665-.1437.0145-.2884-.0151-.4148-.085-1.1298-.9385-1.3366-1.3742-1.9537-2.2698-1.8702 1.9056-3.1902 2.4755-5.6104 2.4755-2.8679 0-5.0944-1.767-5.0944-5.3065 0-2.7638 1.4939-4.6452 3.6302-5.565 1.8481-.8142 4.43-.9583 6.4024-1.1828v-.4401c0-.8086.0627-1.767-.4169-2.4667-.4114-.6272-1.2101-.8802-1.9097-.8802-1.2981 0-2.4521.6601-2.7348 2.0453-.0572.3059-.2827.6085-.5941.6228l-3.3002-.3543c-.2772-.0627-.5885-.2883-.5071-.7141.7536-4.007 4.3739-5.2173 7.6114-5.2173 1.6567 0 3.8216.4401 5.1285 1.6955 1.6567 1.5469 1.4983 3.611 1.4983 5.8577v5.3064c0 1.5943.6601 2.294 1.2838 3.1555.22.307.2629.6756-.0143.9055-.6941.5799-1.9295 1.657-2.6094 2.261z"/><path d="m23.0316 17.8715c0 1.3269.0341 2.4326-.637 3.611-.5401.9583-1.3982 1.5469-2.3552 1.5469-1.308 0-2.0693-.9957-2.0693-2.4656 0-2.9024 2.6006-3.4295 5.0604-3.4295v.7372zm3.4322 8.3002c-.1098.0939-.2456.1519-.3893.1665-.1437.0145-.2884-.0151-.4148-.085-1.1298-.9385-1.3311-1.3742-1.9538-2.2698-1.8701 1.9056-3.1902 2.4755-5.6104 2.4755-2.8646 0-5.0955-1.767-5.0955-5.3065 0-2.7638 1.4983-4.6452 3.6302-5.565 1.8482-.8142 4.4289-.9583 6.4014-1.1828v-.4401c0-.8086.0627-1.767-.4114-2.4667-.417-.6272-1.2101-.8802-1.9109-.8802-1.297 0-2.4565.6601-2.7392 2.0453-.0572.3059-.2816.6085-.5885.6228l-3.3002-.3543c-.2772-.0627-.5842-.2883-.5072-.7141.7569-4.007 4.3761-5.2173 7.6092-5.2173 1.6568 0 3.8217.4401 5.1275 1.6955 1.6567 1.5469 1.4994 3.611 1.4994 5.8577v5.3064c0 1.5943.6601 2.294 1.2827 3.1555.22.307.2684.6756-.0088.9055-.6953.5799-1.9306 1.657-2.6105 2.261z"/></g></svg>