<svg width="136" height="48" viewBox="0 0 136 48" fill="none" xmlns="http://www.w3.org/2000/svg">
<path d="M2.60959 25.6528L1.85683 27.3096C2.35867 27.3096 2.55941 27.3096 2.76015 27.3096C2.9107 27.3096 3.06126 27.4558 3.06126 27.6508C3.06126 27.8457 2.9107 27.9919 2.76015 27.9919C2.55941 27.9919 2.45904 27.8944 1.50554 27.8944C0.55203 27.8944 0.451661 27.9919 0.301107 27.9919C0.150554 27.9919 0 27.8944 0 27.6508C0 27.4558 0.150554 27.3096 0.301107 27.3096C0.501845 27.3096 0.652399 27.3096 1.15424 27.3096L4.31587 20.2437C4.36605 20.0975 4.46642 20 4.61698 20C4.81771 20 4.8679 20.0975 4.91808 20.2437L8.02952 27.3096C8.63174 27.3096 8.73211 27.3096 8.88266 27.3096C9.03321 27.3096 9.18377 27.4558 9.18377 27.6508C9.18377 27.8457 9.03321 27.9919 8.88266 27.9919C8.68192 27.9919 8.63174 27.8944 7.32694 27.8944C6.07233 27.8944 5.97196 27.9919 5.77122 27.9919C5.62067 27.9919 5.47011 27.8944 5.47011 27.6508C5.47011 27.4558 5.62067 27.3096 5.77122 27.3096C5.97196 27.3096 6.02214 27.3096 6.57417 27.3096L5.87159 25.7015H2.60959V25.6528ZM5.57048 25.0193L4.26568 21.9492L2.9107 25.0193H5.57048Z" fill="#222222"/>
<path d="M13.7001 27.3097C14.5031 27.3097 14.6035 27.3097 14.8042 27.3097C14.9548 27.3097 15.1053 27.4558 15.1053 27.6508C15.1053 27.8457 14.9548 27.9919 14.8042 27.9919C14.6035 27.9919 14.5533 27.8944 13.399 27.8944H13.3489C12.1946 27.8944 12.1444 27.9919 11.9437 27.9919C11.7931 27.9919 11.6426 27.8944 11.6426 27.6508C11.6426 27.4558 11.7931 27.3097 11.9437 27.3097C12.1444 27.3097 12.2448 27.3097 13.0477 27.3097V20.731C12.2448 20.731 12.1444 20.731 11.9437 20.731C11.7931 20.731 11.6426 20.6335 11.6426 20.3899C11.6426 20.1949 11.7931 20.0487 11.9437 20.0487C12.1444 20.0487 12.2448 20.1462 13.3489 20.1462H13.5496C13.7503 20.1462 13.9511 20.1462 14.1016 20.1462C14.3525 20.1462 14.4529 20.2437 14.7038 20.6335L18.2669 25.5553V20.731C17.464 20.731 17.3636 20.731 17.1629 20.731C17.0123 20.731 16.8618 20.6335 16.8618 20.3899C16.8618 20.1949 17.0123 20.0487 17.1629 20.0487C17.3636 20.0487 17.464 20.1462 18.568 20.1462H18.6182C19.7725 20.1462 19.8227 20.0487 20.0234 20.0487C20.1739 20.0487 20.3245 20.1949 20.3245 20.3899C20.3245 20.5848 20.1739 20.731 20.0234 20.731C19.8227 20.731 19.7223 20.731 18.9193 20.731V27.6508C18.9193 27.9919 18.7186 28.0893 18.568 28.0893C18.3673 28.0893 18.3171 27.9919 18.1164 27.8457L13.7001 21.6081V27.3097Z" fill="#222222"/>
<path d="M29.8095 22.6802C29.6087 22.6802 29.4582 22.534 29.4582 22.3878C29.4582 21.0234 29.1571 20.6822 28.053 20.6822H27.2501V27.2609C28.2036 27.2609 28.3039 27.2609 28.5047 27.2609C28.6552 27.2609 28.8058 27.4071 28.8058 27.602C28.8058 27.797 28.6552 27.9432 28.5047 27.9432C28.3039 27.9432 28.2036 27.8457 26.5977 27.8457H26.4973C24.8914 27.8457 24.791 27.9432 24.5903 27.9432C24.4397 27.9432 24.2892 27.8457 24.2892 27.602C24.2892 27.4071 24.4397 27.2609 24.5903 27.2609C24.791 27.2609 24.8914 27.2609 25.8449 27.2609V20.6822H25.0419C23.8877 20.6822 23.5866 21.0234 23.5866 22.3878C23.5866 22.534 23.4862 22.6802 23.2855 22.6802C23.0847 22.6802 22.9844 22.534 22.9844 22.3878C22.9844 22.1929 23.0847 21.6569 23.0847 20.8772V20.3899C23.0847 20.1949 23.2353 20.0487 23.3859 20.0487C23.5364 20.0487 24.1888 20.1462 24.4899 20.1462H28.7054C29.0065 20.1462 29.6087 20.0487 29.7593 20.0487C29.9098 20.0487 30.0604 20.1949 30.0604 20.3899V20.8772C30.0102 21.7056 30.1106 22.2416 30.1106 22.4366C30.1106 22.534 30.0102 22.6802 29.8095 22.6802Z" fill="#222222"/>
<path d="M36.1831 24.1909V27.3097C36.7853 27.3097 36.8856 27.3097 37.0864 27.3097C37.2369 27.3097 37.3875 27.4558 37.3875 27.6508C37.3875 27.8457 37.2369 27.9919 37.0864 27.9919C36.8856 27.9919 36.6849 27.8944 35.5307 27.8944H35.4303C33.8746 27.8944 33.724 27.9919 33.5233 27.9919C33.3727 27.9919 33.2222 27.8944 33.2222 27.6508C33.2222 27.4558 33.3727 27.3097 33.5233 27.3097C33.724 27.3097 33.8244 27.3097 34.7779 27.3097V20.731C33.8244 20.731 33.724 20.731 33.5233 20.731C33.3727 20.731 33.2222 20.6335 33.2222 20.3899C33.2222 20.1949 33.3727 20.0487 33.5233 20.0487C33.724 20.0487 33.8244 20.1462 35.4303 20.1462H35.5307C36.7853 20.1462 36.8856 20.0487 37.0864 20.0487C37.2369 20.0487 37.3875 20.1949 37.3875 20.3899C37.3875 20.5848 37.2369 20.731 37.0864 20.731C36.8856 20.731 36.6849 20.731 36.1831 20.731V23.5086H39.6458V20.731C39.0436 20.731 38.9432 20.731 38.7425 20.731C38.5919 20.731 38.4414 20.6335 38.4414 20.3899C38.4414 20.1949 38.5919 20.0487 38.7425 20.0487C38.9432 20.0487 39.0436 20.1462 40.2982 20.1462H40.3986C42.0045 20.1462 42.1048 20.0487 42.3056 20.0487C42.4561 20.0487 42.6067 20.1949 42.6067 20.3899C42.6067 20.5848 42.4561 20.731 42.3056 20.731C42.1048 20.731 42.0045 20.731 41.051 20.731V27.3097C42.0045 27.3097 42.1048 27.3097 42.3056 27.3097C42.4561 27.3097 42.6067 27.4558 42.6067 27.6508C42.6067 27.8457 42.4561 27.9919 42.3056 27.9919C42.1048 27.9919 42.0045 27.8944 40.3986 27.8944H40.2982C39.0436 27.8944 38.893 27.9919 38.7425 27.9919C38.5919 27.9919 38.4414 27.8944 38.4414 27.6508C38.4414 27.4558 38.5919 27.3097 38.7425 27.3097C38.9432 27.3097 39.0938 27.3097 39.6458 27.3097V24.1909H36.1831Z" fill="#222222"/>
<path d="M52.9947 25.8477C52.9947 26.6274 52.9446 26.7249 52.9446 27.1147C52.9446 27.4071 53.0449 27.602 53.2958 27.602C53.5468 27.602 53.597 27.4558 53.597 27.2122C53.597 27.066 53.7475 26.9198 53.8981 26.9198C54.0486 26.9198 54.1992 27.066 54.1992 27.2122C54.1992 27.797 53.6471 28.0893 53.2457 28.0893C52.2922 28.0893 51.6398 27.6508 51.6398 25.8477C51.6398 24.5807 51.439 24.0934 49.9837 24.0934H49.2309V27.3097C50.1844 27.3097 50.2848 27.3097 50.4855 27.3097C50.6361 27.3097 50.7866 27.4558 50.7866 27.6508C50.7866 27.8457 50.6361 27.9919 50.4855 27.9919C50.2848 27.9919 50.1844 27.8944 48.5785 27.8944H48.4781C46.9224 27.8944 46.7719 27.9919 46.5711 27.9919C46.4206 27.9919 46.27 27.8944 46.27 27.6508C46.27 27.4558 46.4206 27.3097 46.5711 27.3097C46.7719 27.3097 46.8722 27.3097 47.8257 27.3097V20.731C46.8722 20.731 46.7719 20.731 46.5711 20.731C46.4206 20.731 46.27 20.6335 46.27 20.3899C46.27 20.1949 46.4206 20.0487 46.5711 20.0487C46.7719 20.0487 46.8722 20.1462 48.3778 20.1462C48.7792 20.1462 49.4818 20.0975 49.9837 20.0975C52.0914 20.0975 52.9947 20.9259 52.9947 21.9492C52.9947 22.8264 52.0914 23.5574 51.1379 23.7523C52.3925 24.0447 52.9947 24.9706 52.9947 25.8477ZM49.7829 20.731C49.6324 20.731 49.2309 20.731 49.2309 20.731V23.6061H49.6826C50.9372 23.6061 51.5896 23.2163 51.5896 22.0467C51.5896 21.1208 51.1379 20.731 49.7829 20.731Z" fill="#222222"/>
<path d="M60.673 28.0406C58.6656 28.0406 56.9092 26.4325 56.9092 24.0447C56.9092 21.6569 58.6155 20 60.673 20C62.7306 20 64.4369 21.6081 64.4369 24.0447C64.3867 26.4325 62.6804 28.0406 60.673 28.0406ZM60.673 20.6335C59.2679 20.6335 58.5151 21.4619 58.5151 24.0447C58.5151 26.6274 59.2679 27.4558 60.673 27.4558C62.0782 27.4558 62.831 26.6274 62.831 24.0447C62.831 21.4619 62.0782 20.6335 60.673 20.6335Z" fill="#222222"/>
<path d="M70.9609 27.3097C71.9144 27.3097 72.0148 27.3097 72.2155 27.3097C72.366 27.3097 72.5166 27.4558 72.5166 27.6508C72.5166 27.8457 72.366 27.9919 72.2155 27.9919C72.0148 27.9919 71.9144 27.8944 70.3085 27.8944H70.2081C68.6524 27.8944 68.5018 27.9919 68.3011 27.9919C68.1506 27.9919 68 27.8944 68 27.6508C68 27.4558 68.1506 27.3097 68.3011 27.3097C68.5018 27.3097 68.6022 27.3097 69.5557 27.3097V20.731C68.6022 20.731 68.5018 20.731 68.3011 20.731C68.1506 20.731 68 20.6335 68 20.3899C68 20.1462 68.1506 20.0487 68.3011 20.0487C68.5018 20.0487 68.6022 20.1462 70.0074 20.1462C70.6598 20.1462 70.9609 20.1462 71.6635 20.1462C73.8214 20.1462 74.9756 21.1208 74.9756 22.4366C74.9756 23.801 73.8214 24.7756 71.6635 24.7756C71.4125 24.7756 71.1616 24.7756 70.9107 24.7756L70.9609 27.3097ZM70.9609 24.2883C70.9609 24.2883 71.4627 24.2883 71.7137 24.2883C73.1188 24.2883 73.6207 23.801 73.6207 22.4853C73.6207 21.2183 73.1188 20.731 71.7137 20.731C71.4627 20.731 70.9609 20.731 70.9609 20.731V24.2883Z" fill="#222222"/>
<path d="M81.6501 28.0406C79.6427 28.0406 77.8862 26.4325 77.8862 24.0447C77.8862 21.6569 79.5925 20 81.6501 20C83.7076 20 85.4139 21.6081 85.4139 24.0447C85.4139 26.4325 83.7076 28.0406 81.6501 28.0406ZM81.6501 20.6335C80.2449 20.6335 79.442 21.4619 79.442 24.0447C79.442 26.6274 80.1947 27.4558 81.6501 27.4558C83.1054 27.4558 83.808 26.6274 83.808 24.0447C83.808 21.4619 83.0552 20.6335 81.6501 20.6335Z" fill="#222222"/>
<path d="M93.9453 27.3584C95.0494 27.3584 95.3505 27.0173 95.3505 25.6528C95.3505 25.5066 95.4509 25.3604 95.7018 25.3604C95.9025 25.3604 96.0029 25.5066 96.0029 25.6528C96.0029 25.8477 95.9025 26.335 95.9025 27.1147V27.6508C95.9025 27.8457 95.752 27.9919 95.6014 27.9919C95.4509 27.9919 94.7985 27.8944 94.4974 27.8944L91.1852 27.8457C89.6295 27.8457 89.4789 27.9432 89.2782 27.9432C89.1276 27.9432 88.9771 27.8457 88.9771 27.602C88.9771 27.4071 89.1276 27.2609 89.2782 27.2609C89.4789 27.2609 89.5793 27.2609 90.5328 27.2609V20.731C89.5793 20.731 89.4789 20.731 89.2782 20.731C89.1276 20.731 88.9771 20.6335 88.9771 20.3899C88.9771 20.1462 89.1276 20.0487 89.2782 20.0487C89.4789 20.0487 89.5793 20.1462 91.1852 20.1462H91.2855C92.8413 20.1462 92.9918 20.0487 93.1926 20.0487C93.3431 20.0487 93.4937 20.1949 93.4937 20.3899C93.4937 20.5848 93.3431 20.731 93.1926 20.731C92.9918 20.731 92.8914 20.731 91.9379 20.731V27.3097H93.9453V27.3584Z" fill="#222222"/>
<path d="M102.527 28.0406C100.52 28.0406 98.7632 26.4325 98.7632 24.0447C98.7632 21.6569 100.469 20 102.527 20C104.585 20 106.291 21.6081 106.291 24.0447C106.291 26.4325 104.585 28.0406 102.527 28.0406ZM102.527 20.6335C101.122 20.6335 100.319 21.4619 100.319 24.0447C100.319 26.6274 101.072 27.4558 102.527 27.4558C103.932 27.4558 104.685 26.6274 104.685 24.0447C104.735 21.4619 103.982 20.6335 102.527 20.6335Z" fill="#222222"/>
<path d="M109.954 24.0447C109.954 21.6569 111.66 20 113.718 20C114.822 20 115.374 20.3411 115.826 20.731C115.926 20.6335 115.976 20.5848 115.976 20.4386C115.976 20.2924 115.976 20.0975 116.277 20.0975C116.528 20.0975 116.578 20.2437 116.578 20.4386V22.7777C116.578 22.9239 116.578 23.1188 116.277 23.1188C115.976 23.1188 115.976 22.9239 115.976 22.7777C115.976 21.6081 115.023 20.6335 113.818 20.6335C112.313 20.6335 111.51 21.5594 111.51 24.0447C111.51 26.53 112.313 27.4558 113.818 27.4558C114.671 27.4558 115.474 27.1147 115.474 25.3117C114.822 25.3117 114.722 25.3117 114.521 25.3117C114.37 25.3117 114.22 25.1655 114.22 24.9706C114.22 24.7756 114.37 24.6294 114.521 24.6294C114.722 24.6294 114.772 24.7269 116.077 24.7269H116.177C117.532 24.7269 117.582 24.6294 117.733 24.6294C117.883 24.6294 118.034 24.7756 118.034 24.9706C118.034 25.1655 117.883 25.3117 117.733 25.3117C117.532 25.3117 117.432 25.3117 116.829 25.3117C116.829 25.8964 116.629 28.0406 113.668 28.0406C111.66 28.0406 109.954 26.4325 109.954 24.0447Z" fill="#222222"/>
<path d="M125.16 27.2609C125.311 27.2609 125.461 27.4071 125.461 27.602C125.461 27.797 125.311 27.9432 125.16 27.9432C124.96 27.9432 124.859 27.8457 123.253 27.8457H123.153C121.597 27.8457 121.447 27.9432 121.246 27.9432C121.095 27.9432 120.945 27.8457 120.945 27.602C120.945 27.4071 121.095 27.2609 121.246 27.2609C121.447 27.2609 121.547 27.2609 122.501 27.2609V20.731C121.547 20.731 121.447 20.731 121.246 20.731C121.095 20.731 120.945 20.6335 120.945 20.3899C120.945 20.1462 121.095 20.0487 121.246 20.0487C121.447 20.0487 121.547 20.1462 123.153 20.1462H123.253C124.809 20.1462 124.96 20.0487 125.16 20.0487C125.311 20.0487 125.461 20.1949 125.461 20.3899C125.461 20.5848 125.311 20.731 125.16 20.731C124.96 20.731 124.859 20.731 123.906 20.731V27.3097C124.859 27.3097 124.96 27.2609 125.16 27.2609Z" fill="#222222"/>
<path d="M132.788 23.5574C133.24 23.5574 133.641 23.2162 133.641 22.6315C133.641 22.4853 133.691 22.2904 133.892 22.2904C134.093 22.2904 134.093 22.4366 134.093 22.6315C134.093 22.8264 134.043 23.0701 134.043 23.7523V23.9472C134.043 24.6294 134.093 24.8731 134.093 25.068C134.093 25.2142 134.093 25.4091 133.892 25.4091C133.691 25.4091 133.641 25.263 133.641 25.068C133.641 24.532 133.24 24.1421 132.788 24.1421H132.136V27.3584H133.942C135.096 27.3584 135.347 27.0173 135.347 25.6528C135.347 25.5066 135.448 25.3604 135.699 25.3604C135.899 25.3604 136 25.5066 136 25.6528C136 25.8477 135.899 26.335 135.899 27.1147V27.6508C135.899 27.8457 135.749 27.9919 135.598 27.9919C135.448 27.9919 134.795 27.8944 134.494 27.8944L131.333 27.8457C129.777 27.8457 129.626 27.9432 129.426 27.9432C129.275 27.9432 129.125 27.8457 129.125 27.602C129.125 27.4071 129.275 27.2609 129.426 27.2609C129.626 27.2609 129.727 27.2609 130.68 27.2609V20.731C129.727 20.731 129.626 20.731 129.426 20.731C129.275 20.731 129.125 20.6335 129.125 20.3899C129.125 20.1949 129.275 20.0487 129.426 20.0487C129.626 20.0487 129.727 20.1462 131.333 20.1462H134.143C134.444 20.1462 135.046 20.0487 135.247 20.0487C135.398 20.0487 135.548 20.1949 135.548 20.3899V20.8772C135.548 21.6569 135.649 22.1929 135.649 22.3878C135.649 22.534 135.548 22.6802 135.347 22.6802C135.147 22.6802 134.996 22.534 134.996 22.3878C134.996 21.0234 134.695 20.6822 133.591 20.6822H132.085V23.5574H132.788Z" fill="#222222"/>
</svg>
