<svg width="136" height="48" viewBox="0 0 136 48" fill="none" xmlns="http://www.w3.org/2000/svg">
<path d="M87.6729 47.6424H86.1144V2.19755e-05H91.1417V47.6424H87.6729ZM114.32 47.6424L98.6233 35.1178V47.6407H93.5968V0.00931763H98.6233V24.6766L114.32 12.1528H122.378L100.137 29.8977L122.381 47.6426H114.32V47.6424ZM16.028 29.5724V29.5821C16.0413 36.9768 22.0216 42.9579 29.4158 42.9712C36.8127 42.9579 42.7907 36.9768 42.804 29.5874C42.7906 22.19 36.8104 16.2094 29.4193 16.1952C22.0254 16.2093 16.048 22.1858 16.028 29.5724ZM11 29.5845V0H16.028V16.9433C19.3841 13.3899 24.1412 11.1697 29.4158 11.1678H29.4172C39.5884 11.17 47.8323 19.4117 47.8323 29.5842C47.8323 39.7561 39.5908 47.9992 29.4159 48C19.2439 47.9994 11.0023 39.7561 11.0002 29.5845M64.7406 16.4665C63.8724 16.6442 63.033 16.9081 62.2294 17.248C61.4301 17.5849 60.6693 17.9976 59.959 18.4799C59.245 18.9619 58.5818 19.5103 57.9755 20.1166C57.3675 20.7241 56.8176 21.3887 56.3367 22.0982C55.8579 22.8117 55.444 23.5711 55.1047 24.3751C54.7657 25.1773 54.5042 26.0124 54.3256 26.8847C54.1468 27.7498 54.0532 28.6552 54.0532 29.5842C54.0532 30.515 54.1468 31.4174 54.3241 32.2827C54.445 32.8719 54.6053 33.4448 54.7991 34.0015L76.8763 20.0862C76.2803 19.4917 75.6281 18.9541 74.923 18.4799C74.2105 17.9976 73.452 17.5849 72.6549 17.2469C71.851 16.9081 71.0119 16.6442 70.1473 16.4665C69.272 16.2902 68.3681 16.1952 67.442 16.1952C66.5159 16.1952 65.6111 16.2902 64.7406 16.4665M63.7357 47.6245C62.5335 47.3811 61.3735 47.0173 60.2707 46.5512C59.1677 46.0845 58.1221 45.5124 57.1418 44.8518C56.165 44.1913 55.2522 43.4402 54.4165 42.6047C53.5854 41.7719 52.8343 40.8612 52.1702 39.8809C51.5126 38.902 50.9397 37.8556 50.4735 36.7528C50.006 35.6492 49.6437 34.49 49.4018 33.2935C49.154 32.0928 49.0277 30.8496 49.0277 29.5842C49.0277 28.3164 49.154 27.0747 49.4005 25.8788C49.6437 24.6772 50.006 23.5183 50.4735 22.4163C50.9397 21.3112 51.5126 20.2644 52.1738 19.2836C52.8343 18.3083 53.5854 17.3968 54.4165 16.5629C55.2522 15.7299 56.1636 14.9759 57.1456 14.312C58.1245 13.654 59.1703 13.0834 60.2709 12.6181C61.3722 12.149 62.5337 11.7859 63.7359 11.5404C64.9346 11.2979 66.1745 11.1678 67.4422 11.1678C68.7099 11.1678 69.9499 11.2977 71.15 11.5413C72.3501 11.786 73.5078 12.149 74.6108 12.6173C75.7138 13.0834 76.7596 13.654 77.738 14.3126C78.7205 14.9759 79.632 15.7306 80.4654 16.5629C81.2971 17.3949 82.0499 18.3073 82.7105 19.2825L84.166 21.4326L57.3233 38.3514C57.5315 38.5925 57.7485 38.8264 57.9756 39.0519C58.5819 39.6582 59.2454 40.2051 59.9555 40.6868C60.6697 41.1686 61.4326 41.5834 62.228 41.9203C63.0321 42.2581 63.8704 42.5215 64.7456 42.6997C65.6103 42.8785 66.5134 42.9712 67.4424 42.9712C68.3708 42.9712 69.275 42.8785 70.143 42.6997C71.0136 42.5215 71.8532 42.2581 72.6509 41.9226C73.451 41.584 74.2139 41.1686 74.9249 40.6892C75.6388 40.2051 76.3029 39.6582 76.9092 39.0519C77.5172 38.4418 78.066 37.7798 78.5434 37.0718C79.0263 36.3542 79.4399 35.5943 79.7798 34.7934L80.3875 33.3566L85.0186 35.3152L84.4107 36.752C83.9439 37.8533 83.3756 38.902 82.712 39.8817C82.0499 40.8621 81.2974 41.7719 80.4654 42.606C79.6305 43.4396 78.7192 44.1913 77.7359 44.8548C76.7614 45.5124 75.7157 46.0853 74.6105 46.5521C73.5075 47.0173 72.3484 47.3811 71.1521 47.6245C69.9497 47.8717 68.7082 48 67.442 48C66.176 48 64.9344 47.8717 63.7357 47.6245Z" fill="#222222"/>
<path d="M124.006 45.7062H123.641V46.1738H124.006C124.19 46.1738 124.298 46.0854 124.298 45.9408C124.298 45.7886 124.19 45.7062 124.006 45.7062ZM124.244 46.3733L124.641 46.93H124.306L123.948 46.4193H123.641V46.93H123.36V45.4531H124.018C124.361 45.4531 124.586 45.629 124.586 45.9252C124.586 46.1671 124.447 46.314 124.244 46.3733ZM123.931 44.9634C123.212 44.9634 122.665 45.5346 122.665 46.2368C122.665 46.9382 123.208 47.5029 123.924 47.5029C124.646 47.5029 125.191 46.93 125.191 46.2293C125.191 45.5266 124.649 44.9634 123.931 44.9634ZM123.924 47.6425C123.133 47.6425 122.518 47.0079 122.518 46.2368C122.518 45.4643 123.142 44.8221 123.931 44.8221C124.722 44.8221 125.338 45.4576 125.338 46.2293C125.339 47.0005 124.715 47.6425 123.924 47.6425Z" fill="#222222"/>
</svg>
