<svg width="136" height="48" viewBox="0 0 136 48" fill="none" xmlns="http://www.w3.org/2000/svg">
<path d="M125.249 24.6325V17.7575H126.808V24.6325H125.249ZM6.93433 30.215C3.46713 30.215 0.671875 27.355 0.671875 23.835V13.55H2.20389V19.6275C3.35962 18.3075 5.02603 17.455 6.90745 17.455C10.3746 17.455 13.1699 20.315 13.1699 23.835C13.1699 27.355 10.3746 30.215 6.93433 30.215ZM6.93433 19.0225C4.32721 19.0225 2.23077 21.195 2.23077 23.835C2.23077 26.5025 4.35409 28.6475 6.93433 28.6475C9.54144 28.6475 11.6379 26.475 11.6379 23.8625C11.611 21.1675 9.51456 19.0225 6.93433 19.0225ZM14.03 29.9125V13.55H15.5889V29.9125H14.03ZM29.4039 30.215C28.1675 30.215 27.0118 29.8575 26.0442 29.225C25.0766 29.8575 23.9209 30.215 22.6845 30.215C19.2173 30.215 16.4221 27.355 16.4221 23.835C16.4221 20.2875 19.2173 17.4275 22.6845 17.4275C23.9209 17.4275 25.0766 17.785 26.0442 18.4175C27.0118 17.785 28.1675 17.4275 29.4039 17.4275C32.8711 17.4275 35.6663 20.2875 35.6663 23.8075C35.6395 27.355 32.8442 30.215 29.4039 30.215ZM29.4039 19.0225C28.6513 19.0225 27.9525 19.215 27.3074 19.545C28.3288 20.6725 28.947 22.185 28.947 23.835C28.947 25.5125 28.3288 27.025 27.3074 28.1525C27.9525 28.4825 28.6513 28.6475 29.4039 28.6475C32.011 28.6475 34.1343 26.475 34.1343 23.8625C34.1074 21.1675 31.9841 19.0225 29.4039 19.0225ZM26.0442 20.4525C25.211 21.3325 24.7003 22.5425 24.7003 23.835C24.7003 25.155 25.211 26.3375 26.0442 27.245C26.8774 26.365 27.3881 25.1825 27.3881 23.8625C27.3881 22.57 26.8774 21.36 26.0442 20.4525ZM24.781 28.18C23.7596 27.0525 23.1414 25.54 23.1414 23.89C23.1414 22.2125 23.7596 20.7275 24.781 19.5725C24.1359 19.27 23.4371 19.0775 22.6845 19.0775C20.0774 19.0775 17.981 21.25 17.981 23.89C17.981 26.5575 20.1043 28.73 22.7114 28.73C23.464 28.73 24.1628 28.5375 24.8078 28.235V28.18H24.781ZM52.7604 29.9125V22.405C52.7604 20.535 51.2822 19.0225 49.4814 19.0225C47.6537 19.0225 46.1754 20.535 46.1754 22.3775V29.9125H44.6434V22.405C44.6434 20.535 43.1651 19.0225 41.3644 19.0225C39.5367 19.0225 38.0584 20.535 38.0584 22.3775V29.9125H36.5264V22.3775C36.5264 19.655 38.6766 17.4275 41.3644 17.4275C43.0576 17.4275 44.5628 18.335 45.4229 19.6825C46.2829 18.335 47.7881 17.4275 49.5082 17.4275C52.1691 17.4275 54.3462 19.6275 54.3462 22.3775V29.9125H52.7604ZM55.475 29.9125V17.7575H57.007V29.9125H55.475ZM55.475 16.85V13.55H57.007V16.85H55.475ZM66.7098 29.9125V22.5975C66.7098 20.6175 65.1509 19.0225 63.2157 19.0225C61.2806 19.0225 59.7217 20.6175 59.7217 22.5975V29.9125H58.1897V22.5975C58.1897 19.765 60.4742 17.4275 63.2426 17.4275C66.011 17.4275 68.2956 19.765 68.2956 22.5975V29.9125H66.7098ZM75.3644 34.45C72.7304 34.45 70.4995 32.7726 69.5588 30.435L71.279 30.4075C72.0853 31.865 73.6173 32.855 75.3644 32.855C77.9715 32.855 80.0948 30.71 80.0948 28.0425C78.9391 29.3625 77.2727 30.2425 75.3912 30.2425C71.924 30.2425 69.1288 27.3825 69.1288 23.8625C69.1288 20.315 71.924 17.455 75.3644 17.455C78.8316 17.455 81.6268 20.315 81.6268 23.835V28.0425C81.6268 31.5625 78.8316 34.45 75.3644 34.45ZM80.0679 23.835C80.0679 21.1675 77.9446 19.0225 75.3644 19.0225C72.7572 19.0225 70.6608 21.195 70.6608 23.835C70.6608 26.5025 72.7841 28.6475 75.3644 28.6475C77.9715 28.6475 80.0948 26.475 80.0948 23.835H80.0679ZM88.7493 30.215C85.2822 30.215 82.4869 27.355 82.4869 23.835C82.4869 20.2875 85.2822 17.4275 88.7493 17.4275C90.6308 17.4275 92.2972 18.28 93.4529 19.6275V13.55H94.9849V23.835C94.9849 27.355 92.1897 30.215 88.7493 30.215ZM88.7493 19.0225C86.1422 19.0225 84.0458 21.195 84.0458 23.835C84.0458 26.5025 86.1691 28.6475 88.7493 28.6475C91.3565 28.6475 93.4798 26.475 93.4798 23.8625C93.426 21.1675 91.3296 19.0225 88.7493 19.0225ZM106.784 29.9125V28.0425C105.628 29.3625 103.962 30.2425 102.081 30.2425C98.6134 30.2425 95.8181 27.3825 95.8181 23.8625C95.8181 20.315 98.6134 17.455 102.054 17.455C105.521 17.455 108.316 20.315 108.316 23.835V29.9125H106.784ZM106.784 23.835C106.784 21.1675 104.661 19.0225 102.081 19.0225C99.4734 19.0225 97.377 21.195 97.377 23.835C97.377 26.5025 99.5003 28.6475 102.081 28.6475C104.688 28.6475 106.811 26.475 106.811 23.835H106.784ZM109.499 29.9125V13.55H111.031V29.9125H109.499ZM124.389 23.835C124.389 24.11 124.362 24.3575 124.335 24.605H113.477C113.853 26.8875 115.788 28.62 118.126 28.62C119.9 28.62 121.405 27.6575 122.212 26.2H123.932C123.018 28.5375 120.76 30.215 118.126 30.215C114.659 30.215 111.864 27.355 111.864 23.835C111.864 20.2875 114.659 17.4275 118.1 17.4275C121.567 17.4275 124.362 20.2875 124.362 23.8075V23.835H124.389ZM118.153 19.05C115.815 19.05 113.88 20.7825 113.503 23.065H122.776C122.4 20.7825 120.465 19.05 118.153 19.05ZM131.081 30.215C128.904 30.215 127.13 28.5925 127.13 26.585H128.662C128.662 27.7125 129.737 28.6475 131.054 28.6475C132.398 28.6475 133.473 27.63 133.5 26.3925C133.5 25.0175 132.371 24.5225 131.054 24.1375C129.442 23.6975 127.587 23.12 127.614 20.755C127.614 18.94 129.146 17.455 131.081 17.455C132.99 17.455 134.549 18.8575 134.549 20.59H133.017C133.017 19.7375 132.156 19.05 131.081 19.05C130.033 19.05 129.173 19.8475 129.173 20.7825C129.173 21.91 130.329 22.35 131.592 22.7075C133.232 23.175 135.059 23.89 135.059 26.42C135.059 28.51 133.285 30.215 131.081 30.215Z" fill="#222222"/>
</svg>
