<svg width="136" height="48" viewBox="0 0 136 48" fill="none" xmlns="http://www.w3.org/2000/svg">
<path d="M41.8986 23.6529C41.9856 19.1943 45.6879 15.1659 50.0766 14.7357C53.2086 14.3348 56.4082 15.7624 58.3706 18.2263C57.4039 18.8227 56.4276 19.3898 55.4416 19.9472C53.6919 18.0797 50.7532 17.4637 48.4719 18.6761C45.7072 19.9961 44.4216 23.6626 45.7459 26.4492C46.9059 29.1967 50.2892 30.6732 53.0539 29.5976C53.9722 29.2945 54.7359 28.6785 55.4416 28.043C56.4179 28.6003 57.3942 29.1674 58.3609 29.7541C56.2923 32.4136 52.7832 33.8215 49.4869 33.1958C45.1176 32.4527 41.6472 28.1603 41.8986 23.6529ZM63.6389 14.6771C65.9589 14.7064 68.2789 14.6086 70.5989 14.726C72.4936 14.7846 74.3012 16.0068 74.9779 17.8157C75.6352 19.3996 75.2196 21.2476 74.1466 22.5382C76.4762 23.8582 77.5009 27.0261 76.3119 29.4607C75.4999 31.3282 73.5473 32.5309 71.5463 32.6189C68.9073 32.7362 66.2682 32.6384 63.6292 32.6678L63.6389 14.6771ZM66.9256 17.5908C66.9256 18.9596 66.9256 20.3187 66.9256 21.6778C68.2596 21.6094 69.6612 21.8929 70.9372 21.404C72.3002 20.7587 72.3389 18.5881 70.9952 17.8841C69.7096 17.3561 68.2692 17.6592 66.9256 17.5908ZM66.9256 24.6013C66.9159 26.3124 66.9159 28.0234 66.9256 29.7345C68.6172 29.6563 70.3573 29.9496 72.0103 29.4901C73.9436 28.8447 74.0886 25.7941 72.2519 24.9337C70.5506 24.3177 68.6849 24.7088 66.9256 24.6013ZM84.0259 15.2539C86.0269 14.2762 88.6079 14.5402 90.2996 16.0361C92.4262 17.8645 92.8999 21.3454 91.3436 23.692C90.3286 25.2466 88.7046 26.1853 87.2159 27.1923C86.1043 27.9452 84.8669 28.7176 84.4319 30.0865C87.1676 30.1158 89.8936 30.0963 92.6292 30.0963C92.6292 31.1718 92.6389 32.2571 92.6292 33.3326C88.7143 33.3229 84.7992 33.3522 80.8939 33.3131C80.6136 31.3576 80.8166 29.2261 82.0443 27.6226C83.7069 25.2466 86.6456 24.2982 88.4726 22.1178C89.6229 20.7 88.8302 18.2459 87.0129 17.9134C85.3406 17.5712 84.0259 18.9596 83.2332 20.2698C82.4116 19.7027 81.5996 19.1454 80.7779 18.5685C81.5029 17.1801 82.5856 15.909 84.0259 15.2539Z" fill="#222222"/>
<path d="M32 4H104.5V44H32V4ZM33.7303 5.73063C33.7303 17.9135 33.7303 30.0963 33.7303 42.2792C56.7467 42.2792 79.763 42.2792 102.779 42.2792V5.73063C79.7533 5.73063 56.737 5.73063 33.7303 5.73063Z" fill="#222222"/>
</svg>
