<svg width="136" height="48" viewBox="0 0 136 48" fill="none" xmlns="http://www.w3.org/2000/svg">
<g clip-path="url(#clip0_671_31740)">
<path d="M111.845 28.6858C110.374 28.7481 108.354 28.2244 107.829 27.2342C107.341 26.2167 107.096 24.426 107.925 24.3936C108.507 24.3636 108.535 24.9198 108.535 24.9198C109.116 26.3389 109.854 28.0049 112.244 28.0049C113.806 28.0049 114.973 26.6806 114.973 25.1343C114.973 21.276 107.893 20.877 107.863 16.4626C107.863 13.8065 111.11 11.9559 113.071 11.9559C114.391 11.9559 115.708 12.2327 116.81 13.0657C117.055 13.2827 117.914 15.1033 117.087 15.9388C116.444 16.5848 115.891 15.8141 115.891 15.8141C115.248 14.2404 114.757 12.6667 112.856 12.6667C111.447 12.6667 110.404 13.4074 110.345 14.7642C110.132 18.59 117.85 17.7271 117.758 23.8698C117.699 26.895 115.215 28.5311 111.845 28.6858ZM106.083 12.9136C106.697 12.0482 107.247 11.7713 106.974 10.6291C106.635 9.17757 105.9 9.3322 105.749 8.06773C105.625 7.01775 106.452 6.36931 107.19 6.27703C108.138 6.18475 109.302 6.49401 109.426 8.18994C109.639 11.2152 107.309 12.6043 106.083 12.9136ZM99.3106 17.6971C99.3106 13.7167 97.4088 13.2827 95.881 13.2827C92.8154 13.2827 90.6685 17.0188 90.7304 20.3208C90.8245 25.0744 92.9987 26.708 95.3882 27.0796C96.6461 27.2642 98.4835 27.4811 99.3106 25.8451V17.6971ZM73.2334 21.1538C72.4039 20.5977 69.0981 22.7276 68.8827 24.7976C68.7292 26.2167 69.7395 27.0173 71.2722 27.0173C72.1934 27.0173 72.6515 26.4337 73.2334 25.7827C73.2334 25.7827 73.2631 21.1838 73.2334 21.1538ZM80.3427 24.5183V17.5749C80.3427 16.091 80.464 15.9688 79.3621 14.9811V14.642L81.1103 13.7142L82.7322 12.5719C82.7322 12.5719 82.9179 12.0183 83.4677 12.6043V14.7018L83.6534 15.0111C83.958 15.3203 85.1862 13.158 87.39 13.158C88.4028 13.158 89.782 13.4698 89.9356 14.425C89.9975 14.7642 89.9975 15.0435 89.9975 15.2904C91.5575 13.592 93.8876 12.759 96.5842 12.7266C97.7803 12.7266 99.2511 13.592 99.3106 13.7142V9.39455C99.3106 8.00538 99.5854 7.81833 97.9313 6.61622L97.9957 6.39924L99.9841 5.41161L102.007 4.26935C102.007 4.26935 102.376 3.77554 102.376 4.39405V24.0544C102.408 25.476 102.069 27.2018 104.001 28.2219L103.968 28.5311L101.212 28.2219C101.212 28.2219 99.4344 28.5311 99.0382 28.5311C98.637 28.5311 98.6989 27.5111 98.3919 27.6333C97.9313 27.7879 96.5545 28.6533 93.9173 28.6234C90.364 28.5611 87.7268 25.1043 87.759 21.7399C87.759 19.7946 88.1576 18.1909 88.8609 16.8641C88.8312 16.8941 88.7693 16.8941 88.7074 16.8941C86.4713 17.141 86.6248 15.3203 85.2431 15.5049C83.1012 15.7518 83.4677 17.4801 83.4677 17.4801L83.4379 24.4559C83.4677 25.3812 82.9798 27.758 85.6443 28.0049C85.6443 28.0049 85.6765 28.5311 85.6443 28.5311C83.7747 28.2518 80.3724 28.2817 78.8421 28.4388V28.5311H78.1982C78.1685 28.5311 78.1363 28.5611 78.1041 28.5611L78.0744 28.5311H75.4719C74.5508 28.5311 73.8772 27.3889 73.2334 26.8003C73.1418 26.708 71.8863 28.5311 69.4349 28.4987C68.6375 28.4987 67.8402 28.4064 67.2286 28.1296L67.2583 28.1595C66.768 28.2518 65.879 28.591 65.3268 28.5311C63.2443 28.2518 60.7606 28.2518 59.0149 28.4987V28.0972C61.4045 27.7281 60.9761 27.3265 61.0058 24.7951V9.67139C60.8845 8.18994 61.558 7.88318 59.5646 6.7085V6.39924L61.8031 5.34926L63.4275 4.27184C63.4275 4.27184 63.6727 3.65333 64.0095 4.27184V24.7976C64.0689 27.112 64.3784 28.4388 66.3371 27.4811C65.9087 26.895 65.7874 26.062 66.1861 24.7652C66.3371 24.2713 66.7061 23.5606 67.3499 22.8822C69.0981 21.0615 73.2631 20.1038 73.2631 20.1038C73.3547 16.495 73.5999 13.4997 71.5471 13.562C69.2492 13.6543 68.8208 16.3703 68.5137 16.9265C68.2389 17.4203 66.2158 18.5301 66.1242 17.2956C66.0944 16.3703 67.8105 12.8513 72.2503 12.8513C76.6655 12.8513 76.6036 15.228 76.6036 17.944V22.7575C76.7571 26.4636 76.1157 27.3265 78.535 27.975C80.5259 27.6058 80.3129 27.0796 80.3427 24.5183ZM47.2776 9.42448C46.2351 9.42448 45.3783 8.55905 45.3783 7.5415C45.3783 6.49401 46.2351 5.66101 47.2776 5.66101C48.2879 5.66101 49.1471 6.49401 49.1471 7.5415C49.1471 8.55905 48.2879 9.42448 47.2776 9.42448ZM51.4154 28.5311C49.0555 28.1919 46.1435 28.2244 44.0288 28.5311V28.1296C46.4183 27.7605 45.9899 27.3889 46.0221 24.825V18.6249C45.8983 17.141 46.604 16.8342 44.581 15.6595V15.3527L46.817 14.3028L48.4414 13.2204C48.4414 13.2204 48.8104 12.7889 49.0555 13.2204V24.825C49.0852 27.4487 49.1769 27.7605 51.4748 28.1296C53.8049 27.7605 53.3765 27.3564 53.4062 24.825V9.70381C53.2527 8.21987 53.9584 7.91311 51.9651 6.74092V6.43166L54.2036 5.38417L55.828 4.30177C55.828 4.30177 56.1351 3.71568 56.4099 4.30177V24.825C56.4718 27.4811 56.5312 27.7605 58.9208 28.1296L58.953 28.5311C56.5932 28.1919 53.7133 28.2244 51.5689 28.5012V28.5311H51.4154ZM29.3794 4.73573C26.7769 4.70331 25.5214 5.25947 25.5214 7.82083L25.5512 24.4858C25.6106 27.2342 29.4116 27.8827 30.7611 27.9151C35.4486 28.0373 39.6483 23.0069 39.8316 17.3579C39.9529 13.3151 37.0111 4.76317 29.3794 4.73573ZM31.4669 28.591C27.4207 28.591 25.0609 28.0672 23.7732 28.0672C22.701 28.0672 22.0275 28.2518 21.0766 28.5311C20.6185 28.6533 18.7465 28.7157 18.7168 28.3141C18.5954 26.925 21.9037 28.0972 21.9037 24.7352V8.46927C21.9037 6.52394 21.5372 5.93785 20.8018 5.65852C20.096 5.41161 18.6549 5.38168 18.6871 5.1672C18.7168 4.36412 19.2987 4.39405 19.5438 4.36412C20.0044 4.30177 20.7077 4.02244 24.1397 4.23942C25.9498 4.33419 27.6956 4.11722 29.5032 4.08479C34.9583 3.90024 43.7217 6.03012 43.8752 16.2456C44.0288 26.9574 35.1738 28.591 31.4669 28.591Z" fill="#222222"/>
<path d="M17.4858 41.0311H20.7767V40.8865H19.6426V33.8483H20.2345C20.7767 33.8483 21.6533 33.9007 22.1238 35.5867H22.2377V33.7037H16.0273V35.5867H16.1388C16.6093 33.9007 17.4858 33.8483 18.0281 33.8483H18.62V40.8865H17.4858V41.0311ZM22.7404 41.0311H25.1919V40.8865H24.4069V38.562C24.4069 37.4721 25.1522 36.6491 26.0313 36.6491C26.5612 36.6491 26.8064 37.0282 26.8064 37.5644V40.8865H26.0189V41.0311H28.4704V40.8865H27.6854V37.8837C27.6854 36.926 27.0614 36.5045 26.1625 36.5045C25.0507 36.5045 24.5703 37.2851 24.4267 37.6567H24.4069V33.6139H22.7404V33.7586H23.5278V40.8865H22.7404V41.0311ZM33.1827 38.4797C33.1827 36.9783 32.0609 36.4845 31.3057 36.4845C30.018 36.4845 29.0053 37.6368 29.0053 38.8513C29.0053 40.2505 29.9957 41.1733 31.3651 41.1733C32.7345 41.1733 33.0093 40.1981 33.1034 39.8988L32.9499 39.8689C32.8459 40.1981 32.5809 41.0311 31.375 41.0311C30.1691 41.0311 30.0279 39.8789 30.0279 38.9636C30.0279 38.7466 30.0378 38.6119 30.0378 38.4797H33.1827ZM30.0477 38.3351C30.1097 37.4397 30.3449 36.6292 31.2636 36.6292C31.7935 36.6292 32.1624 36.8836 32.1624 37.8113C32.1624 37.9834 32.1624 38.1405 32.1402 38.3351H30.0477ZM37.2585 41.0311H37.4121C37.4641 40.8989 37.5161 40.8042 37.7191 40.8042C37.9543 40.8042 38.301 40.9488 38.566 41.0311C39.0365 41.1558 39.2816 41.1857 39.8536 41.1857C41.4681 41.1857 42.4487 40.0335 42.4487 38.7566C42.4487 37.3474 41.2131 37.0382 40.7005 36.8736L39.4673 36.482C38.7616 36.2576 37.994 35.9583 37.994 35.0729C37.994 33.9855 39.0166 33.6663 39.6803 33.6663C40.8466 33.6663 41.4483 34.5791 41.6117 35.5667H41.7331V33.7062H41.5894C41.4879 33.9007 41.4582 33.9232 41.2824 33.9232C40.8961 33.9232 40.6287 33.5216 39.6803 33.5216C38.3629 33.5216 37.4418 34.4369 37.4418 35.6814C37.4418 36.6192 38.0138 37.1529 39.1182 37.4921L40.2944 37.8512C40.8639 38.0258 41.6613 38.4174 41.6613 39.3751C41.6613 40.0435 41.2948 41.0411 39.8536 41.0411C39.0959 41.0411 37.8404 41.0511 37.3724 38.8189H37.2585V41.0311ZM43.3327 36.7614H44.1202V40.0335C44.1202 40.7543 44.4668 41.1733 45.4895 41.1733C46.3166 41.1733 46.5419 40.5672 46.6112 40.2181L46.4701 40.1682C46.3859 40.6196 46.0912 41.0311 45.6108 41.0311C45.336 41.0311 44.9967 40.8964 44.9967 40.1258V36.7614H46.4478V36.6167H44.9967V35.2076C44.8655 35.3098 44.7219 35.3622 44.5164 35.3622C44.2836 35.3622 44.2217 35.3298 44.1202 35.2899V36.6167H43.3327V36.7614ZM46.9381 36.7614H47.6438L49.4119 41.1658L48.9612 42.318C48.5229 43.4079 48.2777 43.7995 47.8271 43.7995C47.6636 43.7995 47.5621 43.7571 47.5621 43.5825C47.5621 43.378 47.7354 43.2233 47.7354 43.0263C47.7354 42.7395 47.4408 42.6672 47.2551 42.6672C46.9901 42.6672 46.7648 42.8418 46.7648 43.1809C46.7648 43.4179 46.8985 43.974 47.6834 43.974C48.3273 43.974 48.6566 43.5201 49.0429 42.5225C49.2781 41.9265 49.501 41.3179 49.7585 40.7318L51.4448 36.7614H51.9946V36.6192H50.4321V36.7614H51.2814L49.8997 39.9936L48.5848 36.7614H49.4416V36.6192H46.9381V36.7614ZM52.158 41.0311H54.6095V40.8865H53.822V33.6139H52.158V33.7586H52.9454V40.8865H52.158V41.0311ZM59.3564 38.4797C59.3564 36.9783 58.2322 36.4845 57.4745 36.4845C56.1893 36.4845 55.1765 37.6368 55.1765 38.8513C55.1765 40.2505 56.167 41.1733 57.5364 41.1733C58.9057 41.1733 59.1806 40.1981 59.2747 39.8988L59.1211 39.8689C59.0171 40.1981 58.7522 41.0311 57.5463 41.0311C56.3403 41.0311 56.1992 39.8789 56.1992 38.9636C56.1992 38.7466 56.2091 38.6119 56.2091 38.4797H59.3564ZM56.219 38.3351C56.2784 37.4397 56.5162 36.6292 57.4348 36.6292C57.9647 36.6292 58.3337 36.8836 58.3337 37.8113C58.3337 37.9834 58.3337 38.1405 58.3114 38.3351H56.219ZM62.2065 38.8289C62.2065 40.1258 63.3902 41.1733 64.5862 41.1733C65.7797 41.1733 66.9658 40.1258 66.9658 38.8289C66.9658 37.4721 65.6782 36.4845 64.5862 36.4845C63.4917 36.4845 62.2065 37.4721 62.2065 38.8289ZM63.2243 38.8289C63.2243 37.1928 63.665 36.6292 64.5862 36.6292C65.5049 36.6292 65.9432 37.1928 65.9432 38.8289C65.9432 40.7742 65.3092 41.0286 64.5862 41.0286C63.8606 41.0286 63.2243 40.7742 63.2243 38.8289ZM67.5428 41.0311H70.1379V40.8865H69.2068V36.7614H70.4722V36.6167H69.2068V35.1876C69.2068 34.1377 69.6798 33.6638 70.2419 33.6638C70.4945 33.6638 70.8015 33.7361 70.8015 34.0454C70.8015 34.2823 70.6084 34.4369 70.6084 34.6714C70.6084 34.9507 70.903 35.0006 71.0789 35.0006C71.4354 35.0006 71.5667 34.7362 71.5667 34.4768C71.5667 34.1077 71.1903 33.5216 70.3013 33.5216C69.707 33.5216 69.1474 33.9107 68.7908 34.3646C68.5234 34.7038 68.3278 35.1153 68.3278 36.073V36.6192H67.5428V36.7614H68.3278V40.8865H67.5428V41.0311ZM76.4894 41.0311H79.7803V40.8865H78.6487V37.6068L80.6371 33.8483H81.6276V33.7037H79.4411V33.8483H80.4737L78.5447 37.4721L76.5018 33.8483H77.5245V33.7037H74.397V33.8483H75.3281L77.626 37.9335V40.8865H76.4919V41.0311H76.4894ZM81.172 38.8289C81.172 40.1258 82.3581 41.1733 83.5516 41.1733C84.7476 41.1733 85.9313 40.1258 85.9313 38.8289C85.9313 37.4721 84.6461 36.4845 83.5516 36.4845C82.4596 36.4845 81.172 37.4721 81.172 38.8289ZM82.1946 38.8289C82.1946 37.1928 82.6329 36.6292 83.5516 36.6292C84.4728 36.6292 84.9135 37.1928 84.9135 38.8289C84.9135 40.7742 84.2796 41.0286 83.5516 41.0286C82.8286 41.0286 82.1946 40.7742 82.1946 38.8289ZM92.0228 40.8865H91.2378V36.6192H89.5812V36.7614H90.3588V39.1506C90.3588 40.2904 89.5812 41.0311 88.9894 41.0311C88.2961 41.0311 88.1203 40.4874 88.1203 39.7741V36.6192H86.4562V36.7614H87.2437V39.6843C87.2437 40.5148 87.5408 40.7443 87.734 40.8865C87.9172 41.0211 88.254 41.1733 88.7963 41.1733C89.6976 41.1733 90.1136 40.5473 90.3612 39.9936H90.3786V41.0311H92.0228V40.8865ZM92.7483 41.0311H95.3013V40.8865H94.4124V38.5296C94.4124 37.3898 95.0463 36.7115 95.4747 36.7115C95.7099 36.7115 95.8337 36.8337 95.8337 37.0382C95.8337 37.3898 95.7 37.3898 95.7 37.6368C95.7 37.8113 95.851 37.9236 96.1507 37.9236C96.4156 37.9236 96.6608 37.8113 96.6608 37.3574C96.6608 36.9459 96.3834 36.5045 95.752 36.5045C94.8927 36.5045 94.5238 37.2552 94.4124 37.6567H94.3925V36.6167H92.7483V36.7614H93.5333V40.8865H92.7483V41.0311ZM99.7759 41.0311H106.018V38.779H105.907C105.597 40.0734 104.946 40.8865 103.75 40.8865H101.933V33.8508H103.064V33.7062H99.7759V33.8508H100.908V40.8865H99.7759V41.0311ZM106.959 41.0311H109.411V40.8865H108.626V36.6167H106.959V36.7614H107.747V40.8865H106.959V41.0311ZM107.626 34.22C107.626 34.5167 107.868 34.7661 108.168 34.7661C108.46 34.7661 108.708 34.5167 108.708 34.22C108.708 33.9232 108.46 33.6738 108.168 33.6738C107.868 33.6738 107.626 33.9232 107.626 34.22ZM110.149 41.0311H112.741V40.8865H111.813V36.7614H113.081V36.6167H111.813V35.1876C111.813 34.1377 112.283 33.6638 112.843 33.6638C113.098 33.6638 113.405 33.7361 113.405 34.0454C113.405 34.2823 113.212 34.4369 113.212 34.6714C113.212 34.9507 113.507 35.0006 113.68 35.0006C114.039 35.0006 114.173 34.7362 114.173 34.4768C114.173 34.1077 113.794 33.5216 112.905 33.5216C112.313 33.5216 111.751 33.9107 111.392 34.3646C111.127 34.7038 110.934 35.1153 110.934 36.073V36.6192H110.146V36.7614H110.934V40.8865H110.146V41.0311H110.149ZM117.58 38.4797C117.58 36.9783 116.456 36.4845 115.698 36.4845C114.413 36.4845 113.4 37.6368 113.4 38.8513C113.4 40.2505 114.391 41.1733 115.76 41.1733C117.129 41.1733 117.404 40.1981 117.496 39.8988L117.345 39.8689C117.241 40.1981 116.976 41.0311 115.77 41.0311C114.564 41.0311 114.42 39.8789 114.42 38.9636C114.42 38.7466 114.43 38.6119 114.43 38.4797H117.58ZM114.44 38.3351C114.502 37.4397 114.737 36.6292 115.658 36.6292C116.188 36.6292 116.557 36.8836 116.557 37.8113C116.557 37.9834 116.557 38.1405 116.535 38.3351H114.44ZM118.848 40.5996C118.848 40.8964 119.093 41.1458 119.388 41.1458C119.685 41.1458 119.932 40.8964 119.932 40.5996C119.932 40.3004 119.685 40.0535 119.388 40.0535C119.093 40.0535 118.848 40.3004 118.848 40.5996Z" stroke="#222222" stroke-width="0.084"/>
<path d="M17.4859 40.8865H18.62V33.8509H18.0282C17.4859 33.8509 16.6093 33.9032 16.1388 35.5892H16.0249V33.7062H22.2353V35.5892H22.1239C21.6534 33.9032 20.7768 33.8509 20.2345 33.8509H19.6427V40.8865H20.7768V41.0311H17.4859" fill="#222222"/>
<path d="M22.748 40.8865H23.5355V33.7586H22.748V33.6139H24.4145V37.6567H24.4319C24.578 37.2851 25.0559 36.5045 26.1702 36.5045C27.0691 36.5045 27.6931 36.926 27.6931 37.8837V40.8865H28.478V41.0311H26.0266V40.8865H26.814V37.5644C26.814 37.0282 26.5689 36.6491 26.0365 36.6491C25.1599 36.6491 24.4145 37.4722 24.4145 38.5645V40.8865H25.1995V41.0311H22.748" fill="#222222"/>
<path d="M32.155 38.3351C32.1748 38.1406 32.1748 37.9859 32.1748 37.8113C32.1748 36.8836 31.8083 36.6292 31.2759 36.6292C30.3572 36.6292 30.122 37.4422 30.0601 38.3351H32.155ZM30.0502 38.4797C30.0502 38.6144 30.0403 38.7466 30.0403 38.9636C30.0403 39.8814 30.1839 41.0311 31.3898 41.0311C32.5933 41.0311 32.8582 40.1981 32.9622 39.8689L33.1157 39.8988C33.0241 40.1981 32.7468 41.1758 31.3774 41.1758C30.0081 41.1758 29.0176 40.2505 29.0176 38.8513C29.0176 37.6368 30.0304 36.4845 31.3155 36.4845C32.0732 36.4845 33.1975 36.9783 33.1975 38.4797" fill="#222222"/>
<path d="M37.2734 38.8189H37.3849C37.8554 41.0511 39.1108 41.0411 39.8685 41.0411C41.3072 41.0411 41.6762 40.0435 41.6762 39.3751C41.6762 38.4174 40.8788 38.0283 40.3068 37.8512L39.1306 37.4921C38.0287 37.1529 37.4567 36.6167 37.4567 35.6815C37.4567 34.4369 38.3778 33.5216 39.6952 33.5216C40.6436 33.5216 40.9085 33.9232 41.2973 33.9232C41.4706 33.9232 41.5028 33.9032 41.6044 33.7062H41.748V35.5692H41.6242C41.4607 34.5816 40.859 33.6663 39.6952 33.6663C39.0316 33.6663 38.0089 33.9855 38.0089 35.0754C38.0089 35.9583 38.774 36.2576 39.4798 36.4845L40.7154 36.8736C41.2255 37.0407 42.4611 37.3475 42.4611 38.7566C42.4611 40.0335 41.483 41.1857 39.8685 41.1857C39.2965 41.1857 39.0514 41.1558 38.5809 41.0311C38.3159 40.9488 37.9693 40.8042 37.734 40.8042C37.5285 40.8042 37.479 40.8964 37.427 41.0311H37.2734V38.8189Z" fill="#222222"/>
<path d="M43.3599 36.6167H44.1473V35.2899C44.2488 35.3323 44.3107 35.3622 44.546 35.3622C44.749 35.3622 44.8926 35.3123 45.0264 35.2076V36.6167H46.475V36.7614H45.0264V40.1258C45.0264 40.8989 45.3631 41.0336 45.638 41.0336C46.1184 41.0336 46.4155 40.6196 46.4972 40.1682L46.6409 40.2206C46.5691 40.5697 46.3437 41.1758 45.5142 41.1758C44.494 41.1758 44.1473 40.7543 44.1473 40.0335V36.7614H43.3599" fill="#222222"/>
<path d="M46.9653 36.6167H49.4688V36.7614H48.612L49.9294 39.9911L51.3086 36.7614H50.4593V36.6167H52.0243V36.7614H51.4721L49.7858 40.7318C49.5307 41.3179 49.3054 41.9265 49.0701 42.5225C48.6814 43.5201 48.357 43.9741 47.7131 43.9741C46.9257 43.9741 46.792 43.4179 46.792 43.181C46.792 42.8418 47.0173 42.6672 47.2823 42.6672C47.468 42.6672 47.7627 42.7395 47.7627 43.0263C47.7627 43.2234 47.5893 43.378 47.5893 43.5825C47.5893 43.7571 47.6909 43.7995 47.8568 43.7995C48.305 43.7995 48.5501 43.4079 48.9884 42.318L49.4391 41.1658L47.6711 36.7614H46.9678V36.6167" fill="#222222"/>
<path d="M52.1978 40.8865H52.9827V33.7586H52.1978V33.6139H53.8618V40.8865H54.6492V41.0311H52.1978" fill="#222222"/>
<path d="M58.3659 38.3351C58.3881 38.1406 58.3881 37.9859 58.3881 37.8113C58.3881 36.8836 58.0192 36.6292 57.4893 36.6292C56.5681 36.6292 56.3329 37.4422 56.271 38.3351H58.3659ZM56.2635 38.4797C56.2635 38.6144 56.2512 38.7466 56.2512 38.9636C56.2512 39.8814 56.3948 41.0311 57.6007 41.0311C58.8042 41.0311 59.0691 40.1981 59.1731 39.8689L59.3266 39.8988C59.235 40.1981 58.9577 41.1758 57.5883 41.1758C56.219 41.1758 55.231 40.2505 55.231 38.8513C55.231 37.6368 56.2413 36.4845 57.5289 36.4845C58.2841 36.4845 59.4084 36.9783 59.4084 38.4797" fill="#222222"/>
<path d="M64.6482 41.0311C65.3737 41.0311 66.0077 40.7742 66.0077 38.8289C66.0077 37.1928 65.5669 36.6292 64.6482 36.6292C63.7271 36.6292 63.2888 37.1928 63.2888 38.8289C63.2888 40.7742 63.9227 41.0311 64.6482 41.0311ZM64.6482 36.4845C65.7427 36.4845 67.0279 37.4722 67.0279 38.8289C67.0279 40.1258 65.8442 41.1758 64.6482 41.1758C63.4547 41.1758 62.2686 40.1258 62.2686 38.8289C62.2686 37.4722 63.5562 36.4845 64.6482 36.4845Z" fill="#222222"/>
<path d="M67.6196 40.8865H68.4071V36.7614H67.6196V36.6167H68.4071V36.073C68.4071 35.1153 68.6002 34.7038 68.8676 34.3646C69.2242 33.9107 69.7863 33.5216 70.3781 33.5216C71.2671 33.5216 71.646 34.1077 71.646 34.4768C71.646 34.7362 71.5123 35.0031 71.1557 35.0031C70.9799 35.0031 70.6827 34.9507 70.6827 34.6739C70.6827 34.4369 70.8808 34.2798 70.8808 34.0454C70.8808 33.7361 70.5738 33.6663 70.3162 33.6663C69.7541 33.6663 69.2861 34.1377 69.2861 35.1876V36.6167H70.5515V36.7614H69.2861V40.8865H70.2172V41.0311H67.6221V40.8865" fill="#222222"/>
<path d="M76.5588 40.8865H77.6929V37.9336L75.3949 33.8509H74.4639V33.7062H77.5913V33.8509H76.5687L78.6115 37.4722L80.543 33.8509H79.5104V33.7062H81.6969V33.8509H80.7064L78.7131 37.6068V40.8865H79.8447V41.0311H76.5588" fill="#222222"/>
<path d="M83.6282 41.0311C84.3537 41.0311 84.9852 40.7742 84.9852 38.8289C84.9852 37.1928 84.5469 36.6292 83.6282 36.6292C82.707 36.6292 82.2687 37.1928 82.2687 38.8289C82.2687 40.7742 82.9027 41.0311 83.6282 41.0311ZM83.6282 36.4845C84.7202 36.4845 86.0078 37.4722 86.0078 38.8289C86.0078 40.1258 84.8242 41.1758 83.6282 41.1758C82.4322 41.1758 81.2485 40.1258 81.2485 38.8289C81.2485 37.4722 82.5362 36.4845 83.6282 36.4845Z" fill="#222222"/>
<path d="M92.0949 41.0312H90.4507V39.9937H90.4284C90.1832 40.5473 89.7648 41.1758 88.8659 41.1758C88.3261 41.1758 87.9893 41.0212 87.8036 40.8865C87.6129 40.7444 87.3133 40.5174 87.3133 39.6844V36.7614H86.5283V36.6193H88.1948V39.7767C88.1948 40.4875 88.3657 41.0312 89.0615 41.0312C89.6533 41.0312 90.4284 40.2905 90.4284 39.1507V36.7614H89.6533V36.6193H91.3074V40.8865H92.0949" fill="#222222"/>
<path d="M92.8203 40.8865H93.6078V36.7614H92.8203V36.6167H94.467V37.6567H94.4843C94.5982 37.2552 94.9672 36.5045 95.824 36.5045C96.4579 36.5045 96.7328 36.9459 96.7328 37.3599C96.7328 37.8113 96.4876 37.9236 96.2227 37.9236C95.928 37.9236 95.7745 37.8113 95.7745 37.6343C95.7745 37.3899 95.9057 37.3899 95.9057 37.0407C95.9057 36.8337 95.7819 36.7115 95.5466 36.7115C95.1183 36.7115 94.4843 37.3874 94.4843 38.5321V40.8865H95.3733V41.0311H92.8203" fill="#222222"/>
<path d="M99.8501 40.8865H100.982V33.8509H99.8501V33.7062H103.136V33.8509H102.004V40.8865H103.822C105.018 40.8865 105.672 40.0734 105.976 38.779H106.09V41.0311H99.8477V40.8865" fill="#222222"/>
<path d="M108.232 33.6763C108.532 33.6763 108.775 33.9232 108.775 34.22C108.775 34.5192 108.532 34.7662 108.232 34.7662C107.938 34.7662 107.692 34.5192 107.692 34.22C107.692 33.9232 107.938 33.6763 108.232 33.6763ZM107.029 40.8865H107.816V36.7614H107.029V36.6167H108.695V40.8865H109.483V41.0311H107.029" fill="#222222"/>
<path d="M110.218 40.8865H111.003V36.7614H110.218V36.6167H111.003V36.073C111.003 35.1153 111.196 34.7038 111.464 34.3646C111.818 33.9107 112.382 33.5216 112.974 33.5216C113.863 33.5216 114.24 34.1077 114.24 34.4768C114.24 34.7362 114.108 35.0031 113.749 35.0031C113.576 35.0031 113.281 34.9507 113.281 34.6739C113.281 34.4369 113.475 34.2798 113.475 34.0454C113.475 33.7361 113.167 33.6663 112.912 33.6663C112.35 33.6663 111.882 34.1377 111.882 35.1876V36.6167H113.148V36.7614H111.882V40.8865H112.811V41.0311H110.218V40.8865Z" fill="#222222"/>
<path d="M116.612 38.3351C116.629 38.1406 116.629 37.9859 116.629 37.8113C116.629 36.8836 116.263 36.6292 115.73 36.6292C114.812 36.6292 114.577 37.4422 114.515 38.3351H116.612ZM114.507 38.4797C114.507 38.6144 114.497 38.7466 114.497 38.9636C114.497 39.8814 114.638 41.0311 115.844 41.0311C117.048 41.0311 117.315 40.1981 117.417 39.8689L117.57 39.8988C117.479 40.1981 117.204 41.1758 115.834 41.1758C114.465 41.1758 113.475 40.2505 113.475 38.8513C113.475 37.6368 114.485 36.4845 115.773 36.4845C116.528 36.4845 117.654 36.9783 117.654 38.4797" fill="#222222"/>
<path d="M119.462 40.0535C119.756 40.0535 120.002 40.3004 120.002 40.5997C120.002 40.8989 119.756 41.1434 119.462 41.1434C119.162 41.1434 118.919 40.8989 118.919 40.5997C118.919 40.3004 119.162 40.0535 119.462 40.0535Z" fill="#222222"/>
</g>
<defs>
<clipPath id="clip0_671_31740">
<rect width="104" height="40" fill="white" transform="translate(16 4)"/>
</clipPath>
</defs>
</svg>
