<svg width="136" height="48" viewBox="0 0 136 48" fill="none" xmlns="http://www.w3.org/2000/svg">
<path d="M78.2863 29.49C76.6145 31.1618 74.3078 32.1943 71.7557 32.1952C69.2045 32.1943 66.8987 31.1618 65.226 29.49C63.5542 27.8173 62.5208 25.5106 62.5208 22.9594C62.5208 20.4082 63.5542 18.1015 65.226 16.4297C66.8987 14.7579 69.2045 13.7246 71.7557 13.7246C74.3078 13.7246 76.6145 14.7579 78.2863 16.4297C79.9581 18.1015 80.9914 20.4082 80.9914 22.9594C80.9914 25.5106 79.9581 27.8173 78.2863 29.49ZM81.0141 19.2943C79.5542 15.6101 75.9597 13.0055 71.7557 13.0046C66.2584 13.0055 61.8018 17.4622 61.8018 22.9594C61.8018 28.4576 66.2584 32.9142 71.7557 32.9142C75.9597 32.9142 79.5542 30.3087 81.0141 26.6245V32.2875H81.7341V13.4701H81.0141V19.2943Z" fill="#222222"/>
<path d="M53.4224 12.9748C50.6031 12.9693 48.723 14.2662 47.6054 15.8366C47.1191 16.5194 46.7677 17.2467 46.5259 17.9494C46.2977 17.1443 45.9173 16.2994 45.3259 15.5305C44.2283 14.0977 42.378 12.9693 39.5751 12.9748C36.7558 12.9693 34.8757 14.2662 33.759 15.8366C33.4194 16.313 33.1459 16.812 32.9295 17.3092V13.4701H32.2095V32.2876H32.9295C32.9295 32.2876 32.9258 20.3883 32.9258 20.3793C32.9304 19.355 33.3361 17.6569 34.3441 16.2559C35.3665 14.8404 36.9795 13.7002 39.5751 13.6947C42.1878 13.7002 43.7727 14.7036 44.7563 15.9697C45.7371 17.2367 46.0876 18.8062 46.0866 19.8667C46.0866 19.9265 46.0866 32.3555 46.0866 32.3555H46.8057C46.8057 32.3555 46.8057 22.2033 46.8057 20.1085C46.8691 19.0724 47.2667 17.5401 48.1905 16.2559C49.2129 14.8404 50.8259 13.7002 53.4224 13.6947C56.0351 13.7002 57.6191 14.7036 58.6035 15.9697C59.5834 17.2367 59.9348 18.8062 59.933 19.8667C59.933 21.2206 59.933 32.3555 59.933 32.3555H60.6521C60.6521 32.3555 60.6521 21.2206 60.6521 19.8667C60.6503 18.6604 60.2735 16.9632 59.1732 15.5305C58.0746 14.0977 56.2244 12.9693 53.4224 12.9748Z" fill="#222222"/>
<path d="M117.444 13.4274L116.66 13.4211L108.942 31.3329L101.663 13.4347L100.888 13.4356L108.542 32.2603L105.208 39.9972L105.994 39.9999L117.444 13.4274Z" fill="#222222"/>
<path d="M127.234 24.3776C126.469 23.338 125.074 22.5772 122.521 21.888C120.422 21.322 119.363 20.4671 118.814 19.7163C118.265 18.9655 118.213 18.2953 118.213 18.0608C118.213 18.0282 118.214 18.0046 118.215 17.991C118.215 17.9847 118.216 17.9793 118.216 17.9775L118.22 17.943L118.217 17.9077C118.217 17.9077 118.216 17.8978 118.214 17.8661C118.213 17.8344 118.211 17.7855 118.211 17.7239C118.21 17.3064 118.283 16.2694 118.839 15.3792C119.401 14.4944 120.393 13.7046 122.462 13.6947C124.636 13.7046 125.661 14.5396 126.229 15.438C126.792 16.3401 126.843 17.3571 126.841 17.6406C126.841 17.6949 126.84 17.7157 126.84 17.7166L127.559 17.7529C127.56 17.7474 127.561 17.7076 127.561 17.6406C127.56 17.2855 127.512 16.1499 126.84 15.0586C126.173 13.9627 124.828 12.9647 122.462 12.9747C120.202 12.9647 118.89 13.9166 118.229 14.9997C117.562 16.0774 117.494 17.2348 117.492 17.7239C117.492 17.8235 117.495 17.895 117.498 17.9349C117.496 17.963 117.493 18.0055 117.493 18.0608C117.493 18.4004 117.572 19.2381 118.232 20.141C118.892 21.0449 120.12 21.9886 122.334 22.5836C124.832 23.2528 126.059 23.9819 126.654 24.8024C127.253 25.6157 127.316 26.6345 127.313 28.0573C127.314 29.125 126.801 30.1656 125.931 30.9454C125.062 31.7242 123.845 32.2332 122.462 32.2323C121.34 32.2341 120.095 31.8492 119.152 31.0522C118.209 30.2535 117.545 29.0607 117.541 27.3463H116.821C116.818 29.2527 117.592 30.6836 118.689 31.6029C119.785 32.5239 121.18 32.9514 122.462 32.9514C125.579 32.9496 128.022 30.6637 128.033 28.0573C128.031 26.6372 127.996 25.4246 127.234 24.3776Z" fill="#222222"/>
<path d="M20.1146 20.1764L17.6105 12.4676L15.1055 20.1764H7L13.5578 24.9401L11.0528 32.6489L17.6105 27.8853L24.1683 32.6489L21.6633 24.9401L28.2201 20.1764H20.1146Z" fill="#222222"/>
<path d="M117.221 11.7331L118.433 10.8519L119.647 11.7331L119.183 10.3076L120.397 9.42548H118.897L118.433 8L117.97 9.42548H116.471L117.683 10.3076L117.221 11.7331Z" fill="#222222"/>
<path d="M92.4749 13.7246C95.026 13.7246 97.3327 14.7579 99.0045 16.4297C99.8522 17.2765 100.535 18.2872 101.002 19.4102H101.777C100.348 15.6654 96.7223 13.0055 92.4749 13.0046C86.9767 13.0055 82.52 17.4622 82.52 22.9594C82.52 28.4576 86.9767 32.9142 92.4749 32.9142C96.6997 32.9142 100.31 30.2824 101.754 26.5675H100.978C100.512 27.6669 99.8377 28.6568 99.0045 29.49C97.3327 31.1618 95.026 32.1943 92.4749 32.1952C89.9237 32.1943 87.617 31.1618 85.9443 29.49C84.2724 27.8173 83.24 25.5106 83.2391 22.9594C83.24 20.4082 84.2724 18.1015 85.9443 16.4297C87.617 14.7579 89.9237 13.7246 92.4749 13.7246Z" fill="#222222"/>
</svg>
