<svg width="136" height="48" viewBox="0 0 136 48" fill="none" xmlns="http://www.w3.org/2000/svg">
<path d="M0 19.2797C0.113139 18.8393 0.224361 18.3446 0.393111 17.9043C1.40561 14.6064 3.76811 12.4628 6.80561 10.9787C9.61875 9.60524 12.6006 9.27545 15.6381 9.44035C18.1119 9.5509 20.4744 10.0456 22.6125 11.2542C24.1313 12.0787 25.4256 13.2329 25.8744 15.0468C26.1562 16.201 25.8188 16.9149 24.8062 17.3553C24.7506 17.0798 24.5819 16.8606 24.5819 16.5851C24.5819 15.652 24.0756 15.0468 23.3431 14.5521C22.0506 13.7276 20.6431 13.3435 19.1244 13.068C15.0744 12.3541 11.1375 12.519 7.36939 14.2223C6.075 14.8275 4.83814 15.5958 3.76811 16.4765C1.29439 18.5639 1.0125 22.3565 4.10561 24.6106C5.28686 25.4895 6.58125 26.2596 7.87564 26.9192C9.84311 27.9629 11.9256 28.8979 13.8931 29.9978C14.9631 30.6012 15.9756 31.4256 16.875 32.2501C17.6631 33.0203 18.0562 34.064 18.1119 35.1639C18.1694 36.5936 17.6056 37.6916 16.2556 38.2425C14.1194 39.1757 11.9256 39.1757 9.73189 38.6267C8.32436 38.2425 7.53814 36.5936 7.87564 35.1639C8.04439 34.5043 8.26875 34.3938 8.83061 34.8884C9.95625 35.8778 11.1931 36.6479 12.6562 37.0321C13.1069 37.1426 13.6131 37.197 14.0619 37.197C15.1875 37.197 15.6381 36.5936 15.2431 35.548C14.9056 34.6149 14.2881 33.9553 13.5 33.4044C12.5431 32.801 11.475 32.3063 10.4625 31.7554C8.49311 30.6574 6.52564 29.6118 4.66939 28.4032C2.30689 26.8086 0.730611 24.6106 0.224361 21.8074C0.16875 21.6425 0.113139 21.4233 0.0556107 21.2584C0 20.5988 0 19.9393 0 19.2797Z" fill="#222222"/>
<path d="M91.8 9C92.755 9.77013 92.5882 10.6489 92.1951 11.6383C91.0694 14.3872 90.0013 17.136 88.9869 19.883C88.1451 22.0267 88.6513 21.8618 90.1701 22.1916C90.7875 22.3021 91.405 22.6319 91.9132 22.9617C92.2488 23.1809 92.475 23.6213 92.755 24.0054C91.405 24.0054 90.1701 23.9511 88.9869 24.0054C87.9188 24.0616 87.8632 24.1703 87.6944 25.2159C87.2438 27.9085 87.0194 30.6012 87.9763 33.2957C88.425 34.6149 88.9869 35.8235 90.3369 36.5374C90.5632 36.6479 90.6188 36.9777 90.73 37.197C90.5056 37.3075 90.2238 37.4724 90.0013 37.4724C88.8201 37.4724 87.8632 37.0321 87.075 36.1532C85.8382 34.7798 85.2188 33.1308 85.1056 31.317C84.9944 29.0628 85.1056 26.8086 85.1056 24.4457C84.2619 24.5563 83.3625 24.7212 82.4632 24.7755C81.4488 24.8299 80.3806 24.8861 79.3701 24.8299C77.905 24.7212 77.0632 23.0722 77.5119 22.0829C79.8188 22.6319 82.0701 22.0267 84.375 21.918C85.6694 21.8618 85.8938 21.2022 86.1738 20.2128C87.0194 17.3009 87.9763 14.3872 88.8738 11.4734C89.2132 10.3754 89.7194 9.44034 90.8988 9C91.1806 9 91.5201 9 91.8 9Z" fill="#222222"/>
<path d="M130.049 29.2277C130.106 29.2821 130.162 29.3383 130.22 29.3926C130.837 28.9523 131.57 28.5681 132.02 28.0735C132.526 27.4682 132.92 26.7543 133.255 26.0404C133.313 25.8755 133.201 25.4895 133.031 25.3808C132.862 25.2703 132.469 25.2703 132.3 25.4352C130.95 26.314 130.388 27.6893 130.049 29.2277ZM135 26.8086C134.156 28.8979 132.469 30.0522 130.388 30.7661C129.713 30.9872 129.656 31.3714 129.88 31.9204C130.444 33.5693 131.512 34.5043 132.975 34.5043C133.37 34.5043 133.763 34.3395 134.156 34.2851C134.381 34.2851 134.605 34.3395 134.831 34.3395C134.72 34.5043 134.72 34.7798 134.551 34.8885C133.481 35.7692 132.187 35.7129 130.95 35.4394C129.038 34.999 127.688 33.8991 127.18 31.9766C127.069 31.5906 126.845 31.4819 126.451 31.5362C125.101 31.6468 123.805 31.317 122.624 30.6574C120.712 29.6681 119.813 28.0735 119.644 26.0404C119.362 22.6863 120.263 19.6095 121.669 16.5852C122.12 15.652 122.85 15.2117 123.863 15.1011C124.48 15.0468 124.875 15.3766 124.762 15.9818C124.595 16.6414 124.313 17.2448 124.087 17.85C122.85 20.7076 122.062 23.6757 122.231 26.8086C122.344 29.0628 124.538 30.6012 126.731 29.9979C127.013 29.9416 127.349 29.5032 127.406 29.1734C127.913 27.6331 128.756 26.3702 129.995 25.3246C131.176 24.3352 132.526 24.3352 133.93 24.665C134.551 24.8299 134.774 25.3808 135 25.8755C135 26.1491 135 26.4789 135 26.8086Z" fill="#222222"/>
<path d="M67.9486 30.6574C67.613 31.0415 67.3311 31.4819 66.938 31.866C66.0367 32.6905 65.0818 33.1852 63.7874 33.1308C63.0568 33.0746 62.5505 32.8554 62.1555 32.3064C61.5936 31.5362 61.3693 31.5362 60.6367 32.2501C59.9617 32.9097 59.3443 33.5693 58.6117 34.2289C57.8255 34.9447 56.813 35.4394 55.743 35.6042C54.788 35.7691 53.9443 35.548 53.2693 34.8885C52.088 33.8447 51.5818 32.5256 51.5242 31.0415C51.413 28.5138 51.8061 25.9842 52.368 23.5107C52.9318 20.983 53.5492 18.5096 54.1686 16.0361C54.2818 15.5958 54.5061 15.1011 54.6749 14.6627C55.0124 13.5627 55.8561 13.2329 56.9242 13.2329C57.8255 13.1786 58.2742 13.6733 58.0499 14.4978C57.5992 16.1467 57.093 17.7394 56.5867 19.334C55.6318 22.4127 54.8992 25.5457 54.5617 28.7874C54.4505 29.7767 54.6193 30.7661 54.6749 31.8117C54.6749 31.9766 54.7305 32.0853 54.788 32.2501C55.3499 33.7904 56.5867 34.1202 57.8255 33.0203C58.9492 32.0309 59.7374 30.8223 60.3568 29.4469C60.5811 28.9523 60.7499 28.4032 60.9186 27.9085C61.4249 26.4788 62.3818 25.3246 63.563 24.3914C65.0242 23.2915 66.7117 23.0161 68.5699 23.2915C68.7943 23.3458 69.0186 23.6213 69.1874 23.7862C69.0186 23.9511 68.8499 24.116 68.6236 24.2265C68.4012 24.3352 68.1749 24.3352 67.8949 24.3914C65.3617 24.5563 63.5055 27.1946 63.5055 29.4469C63.5055 30.0522 63.6742 30.6012 64.238 30.931C64.7999 31.2608 65.3061 31.0415 65.8124 30.7118C67.4443 29.7767 68.3436 28.2927 69.0762 26.6437C69.4693 25.7649 69.7512 25.7106 70.6486 25.9842C71.1012 26.149 71.3236 26.4245 71.2124 26.8086C71.1012 27.3033 70.9305 27.798 70.8193 28.2927C70.6486 29.0085 70.4262 29.7767 70.2555 30.5469C70.1443 31.0959 70.313 31.6468 70.8749 31.9204C71.4367 32.1958 71.8874 31.866 72.2805 31.5362C72.6199 31.2608 72.8443 30.8766 73.1262 30.6012C73.2949 30.4925 73.5193 30.4363 73.688 30.3276C73.7436 30.5469 73.9124 30.7118 73.8549 30.931C73.7436 32.5799 71.2124 34.064 69.6936 33.3501C69.0762 33.0746 68.7367 32.5256 68.5699 31.866C68.4549 31.5362 68.4549 31.2608 68.3436 30.931C68.1749 30.7661 68.0617 30.7118 67.9486 30.6574Z" fill="#222222"/>
<path d="M108 26.4788C107.774 26.8086 107.605 26.9735 107.438 27.1946C106.65 28.184 105.919 29.2277 105.074 30.1627C104.23 31.1521 103.049 31.7011 101.699 31.7554C100.801 31.8116 100.126 31.4818 99.6737 30.7117C99.1694 29.8329 99.1694 29.8872 98.27 30.3819C97.8194 30.6574 97.3131 30.8766 96.8049 31.0415C95.3437 31.4818 94.22 30.8223 93.825 29.3926C93.2056 27.084 94.6131 24.3352 96.92 23.5669C97.5375 23.3458 98.27 23.2371 98.945 23.1809C99.1694 23.1809 99.4512 23.3458 99.6737 23.4564C99.5049 23.7318 99.3937 24.0054 99.1694 24.2265C99.0562 24.3352 98.8299 24.3352 98.6631 24.3914C97.0868 24.7755 95.85 26.2052 95.7368 27.798C95.6812 29.0628 96.525 29.6118 97.7062 29.0628C98.9987 28.4575 99.5625 27.3595 99.8444 26.0403C99.9 25.7649 100.126 25.3245 100.237 25.3245C100.631 25.3245 101.137 25.4351 101.363 25.6543C101.645 25.9298 101.699 26.4245 101.756 26.8648C101.756 27.1946 101.587 27.5244 101.476 27.8542C101.194 28.8435 101.756 29.5031 102.769 29.3382C103.781 29.2277 104.512 28.6224 105.131 27.9085C106.819 25.9841 107.831 23.7861 108.449 21.3671C109.012 19.0586 109.687 16.8062 110.362 14.5521C110.474 14.0574 110.756 13.617 111.037 13.1786C111.206 12.9031 111.544 12.5733 111.824 12.519C112.33 12.4084 112.951 12.3541 113.344 12.5733C113.569 12.7382 113.626 13.5084 113.456 13.8925C113.005 15.266 112.445 16.5308 111.881 17.9043C110.926 20.3234 110.531 22.8511 110.138 25.3808C110.081 25.6 110.081 25.8192 110.081 26.0403C110.138 26.3701 110.305 26.6437 110.42 26.9735C110.7 26.8648 110.98 26.7543 111.262 26.6437C111.824 26.2596 112.33 25.8192 112.894 25.4894C114.863 24.3914 117.001 25.4351 117.281 27.6331C117.619 30.1627 117.112 32.5256 115.369 34.5586C114.524 35.548 113.513 36.2076 112.106 36.2076C111.881 36.2076 111.655 36.2076 111.544 36.0989C111.319 35.934 111.149 35.7129 110.98 35.4937C111.206 35.3831 111.431 35.2744 111.601 35.1095C112.106 34.8341 112.781 34.6692 113.174 34.2851C114.75 32.5256 115.312 30.3819 114.919 28.0734C114.637 26.6999 113.344 26.3701 112.33 27.3595C110.813 28.8435 110.025 30.6574 109.912 32.801C109.912 33.0202 109.912 33.2957 109.799 33.5149C109.63 33.7904 109.35 34.0639 109.07 34.1202C108.619 34.2288 108.395 33.8447 108.337 33.4606C108.28 33.1851 108.226 32.8553 108.226 32.5256C108.169 30.7117 108.113 28.8979 108.056 27.084C108.113 26.9191 108.056 26.7543 108 26.4788Z" fill="#222222"/>
<path d="M36.9565 24.3352C37.4627 23.7319 37.5759 22.9074 37.1808 22.4127C36.5058 22.8512 36.4502 23.7862 36.9565 24.3352ZM36.9565 27.3033C36.619 27.798 36.3371 28.2927 35.9996 28.7331C35.1002 29.833 34.2565 31.0416 33.244 32.0309C32.1759 33.0747 30.7127 33.4044 29.194 33.2395C28.3502 33.1309 27.6752 32.8011 27.3933 31.9204C27.2246 31.317 26.8871 31.6468 26.6071 31.866C25.5946 32.8554 24.4134 33.6255 22.9502 33.8448C21.5446 34.064 20.3058 33.2958 20.0815 31.9204C19.744 29.6681 20.1371 27.4682 21.094 25.3808C21.4315 24.665 22.0509 24.2809 22.8371 24.1703C23.6252 24.0617 23.9627 24.3915 23.794 25.1054C23.5121 26.4789 23.119 27.9086 22.8946 29.2821C22.7815 29.7768 22.8371 30.382 22.9502 30.8767C23.2321 31.7555 24.0183 31.9766 24.7509 31.4257C26.1565 30.3277 27.2246 28.9523 27.8996 27.3033C28.0683 26.8087 28.2946 26.3702 28.519 25.9298C28.8009 25.3246 29.3627 25.1054 30.0377 25.2159C30.8259 25.3246 31.1058 25.765 30.8259 26.5351C30.4884 27.3596 30.1509 28.2384 29.869 29.0628C29.7558 29.447 29.7558 29.833 29.7558 30.2171C29.869 31.0959 30.4884 31.6468 31.3321 31.317C32.0627 31.0416 32.7933 30.5469 33.3571 29.9979C34.0877 29.1734 34.6496 28.2384 35.269 27.3033C35.6621 26.7 35.5509 26.1491 35.1558 25.6001C33.9746 23.8968 35.6621 21.5883 37.294 21.4234C37.969 21.3671 38.3065 21.5883 38.4752 22.1916C38.644 22.9617 38.5884 23.6757 38.2509 24.3915C37.8002 25.2703 37.8558 25.4352 38.7571 25.9298C39.7121 26.4789 39.9384 27.3596 39.7696 28.2384C39.5433 29.5032 39.1502 30.7661 38.8127 32.0853C38.6996 32.5256 38.5308 32.9098 38.4752 33.3501C38.4752 33.6255 38.5884 34.0097 38.8127 34.1202C38.9815 34.2289 39.3746 34.1202 39.6009 34.0097C40.5558 33.4044 41.0621 32.4713 41.3996 31.4257C41.5683 30.9872 41.6259 30.4926 41.8502 30.0522C41.9634 29.833 42.3009 29.6119 42.5252 29.6119C42.7496 29.6681 43.0871 29.9417 43.0871 30.1628C43.369 32.1415 41.2884 35.1096 39.319 35.4937C37.2384 35.8779 36.1683 34.9447 36.5058 32.6362C36.7321 31.317 37.0696 30.0522 37.294 28.7874C37.4627 28.2927 37.5759 27.7437 36.9565 27.3033Z" fill="#222222"/>
</svg>
