<svg width="136" height="48" viewBox="0 0 136 48" fill="none" xmlns="http://www.w3.org/2000/svg">
<path d="M23.9938 32.0038C19.5757 32.0038 15.9898 28.4233 15.9898 24.0034C15.9898 19.5755 19.5752 15.9975 23.9938 15.9975C28.4158 15.9975 31.9969 19.5756 31.9969 24.0034C31.9969 28.4233 28.4158 32.0038 23.9938 32.0038ZM23.9938 12C17.3711 12 12 17.3735 12 24.0034C12 30.6277 17.3711 36 23.9943 36C30.6205 36 36 30.628 36 24.0034C36 17.3735 30.6205 12 23.9938 12Z" fill="#222222"/>
<path d="M23.9972 19.8903C21.7269 19.8903 19.8872 21.7257 19.8872 24.0035C19.8872 26.2733 21.7267 28.1147 23.997 28.1147C26.2696 28.1147 28.113 26.2736 28.113 24.0035C28.113 21.7259 26.2696 19.8903 23.997 19.8903" fill="#222222"/>
<path d="M44.5903 19.1866H40V16.3622H52.5487V19.1866H47.9593V31.633H44.5903V19.1866ZM51.0899 31.633H54.4991L55.7016 28.2319H61.4292L62.588 31.633H66.0836L60.356 16.3622H56.9027L51.0899 31.633ZM58.5785 20.1252H58.6213L60.5512 25.7293H56.5822L58.5785 20.1252ZM67.4123 31.633H70.7817V25.6662H74.1477C75.844 25.6662 76.4649 26.3714 76.7003 27.9747C76.874 29.1944 76.8286 30.6701 77.2382 31.6335H80.6041C80.0051 30.7781 80.0265 28.9794 79.9623 28.0174C79.8545 26.4751 79.3841 24.8731 77.7311 24.446V24.4033C79.4283 23.7208 80.1566 22.3734 80.1566 20.5743C80.1566 18.2663 78.4179 16.3627 75.6729 16.3627H67.4141V31.633H67.4123ZM70.7834 18.9711H74.4739C75.9715 18.9711 76.7888 19.6132 76.7888 21.0872C76.7888 22.6264 75.9729 23.269 74.4739 23.269H70.7817V18.9711H70.7834ZM93.541 29.8996C92.3603 31.4206 90.8185 32 89.3371 32C84.5979 32 81.8083 28.4653 81.8083 24.0591C81.8083 19.5275 84.5975 16 89.3371 16C92.4685 16 95.4298 17.925 95.7956 21.3867H92.5759C92.1909 19.6951 90.9238 18.8218 89.3371 18.8218C86.3126 18.8218 85.1739 21.3867 85.1739 24.0591C85.1739 26.6056 86.3126 29.1705 89.3371 29.1705C91.5263 29.1705 92.7891 27.9952 92.9829 25.8765H89.5956V23.3774H96.0298V31.6326H93.8828L93.5405 29.8996H93.541ZM98.325 16.3622H109.776V19.1866H101.692V22.4563H109.113V25.0676H101.691V28.8084H109.95V31.6321H98.325V16.3622ZM116.041 19.1866H111.45V16.3622H124V19.1866H119.407V31.633H116.041V19.1866Z" fill="#222222"/>
</svg>
