<svg width="136" height="48" viewBox="0 0 136 48" fill="none" xmlns="http://www.w3.org/2000/svg">
<path fill-rule="evenodd" clip-rule="evenodd" d="M107.684 29.8578C108.038 30.3149 109.036 31.4467 110.846 31.4467C113.279 31.4467 115.318 29.7054 115.318 26.6799V16.4061C115.318 16.1884 115.151 15.9925 114.922 15.9925H112.385C112.156 15.9925 111.99 16.1884 111.99 16.4061V26.6581C111.99 27.7464 111.345 28.3123 110.763 28.3123C110.201 28.3123 109.951 28.1164 109.702 27.8552C109.535 27.6811 109.307 27.7029 109.14 27.8552L107.726 29.3136C107.601 29.466 107.58 29.6836 107.684 29.8578ZM117.273 26.854C117.273 29.3571 119.228 31.4467 121.599 31.4467C123.97 31.4467 125.925 29.3571 125.925 26.854C125.925 24.3944 123.97 22.3048 121.599 22.3048C119.228 22.3048 117.273 24.3944 117.273 26.854ZM119.956 26.854C119.956 25.8963 120.684 25.1127 121.599 25.1127C122.514 25.1127 123.242 25.8963 123.242 26.854C123.242 27.8335 122.514 28.6388 121.599 28.6388C120.684 28.6388 119.956 27.8335 119.956 26.854ZM129.648 30.3366L126.549 37.1713C126.403 37.476 126.591 37.759 126.903 37.759H129.232C129.398 37.759 129.523 37.6284 129.586 37.4978L135.95 23.0884C136.096 22.8054 135.909 22.5225 135.597 22.5225H133.246C133.08 22.5225 132.934 22.6313 132.893 22.7619L131.25 26.8105H131.208L129.606 22.7619C129.544 22.6313 129.419 22.5225 129.253 22.5225H126.882C126.57 22.5225 126.403 22.8054 126.528 23.0884L129.648 30.3366Z" fill="#222222"/>
<path fill-rule="evenodd" clip-rule="evenodd" d="M95.7212 25.337L96.1491 27.9508L95.232 28.9104L92.9625 24.2321L90.3866 26.9277C90.5934 26.9772 90.7817 27.0258 90.8994 27.0601C91.3189 27.1813 91.695 27.3527 91.9649 27.4933C92.1027 27.5651 92.2118 27.6283 92.2858 27.6733C92.1663 27.9149 91.8601 28.4676 91.3273 29.025C91.018 29.3486 90.6327 29.674 90.1626 29.944C90.114 29.8703 90.0434 29.759 89.9602 29.6139C89.8006 29.3351 89.5969 28.935 89.4239 28.4575C89.3745 28.3208 89.3314 28.192 89.2938 28.0715L89.2528 28.1143C89.1674 28.9463 88.9226 29.9844 88.3337 31.0968C88.1017 31.1523 87.2761 31.2979 86.4088 30.8586C86.4387 30.7861 86.4812 30.6855 86.5355 30.562C86.799 29.9619 87.3452 28.827 88.0974 27.769C87.5421 28.2015 86.9646 28.5691 86.4619 28.8577C86.0495 29.0949 85.6874 29.2793 85.4287 29.4036C85.3107 29.4607 85.2147 29.5051 85.1454 29.5364C84.9053 29.0163 84.848 28.5128 84.8528 28.1295C84.8554 27.9232 84.8764 27.7522 84.8962 27.6341C84.9041 27.5887 84.9116 27.5509 84.9179 27.5221C86.0701 26.8544 87.1381 26.6094 87.9636 26.5411C87.7968 26.4891 87.6091 26.4237 87.4023 26.3418C86.9454 26.161 86.5636 25.9479 86.297 25.7806C86.1583 25.6935 86.0519 25.6195 85.9815 25.5686C86.2397 25.0764 86.5505 24.6735 86.8598 24.3498C87.2181 23.9746 87.5738 23.7072 87.839 23.5339C87.9681 23.4497 88.0761 23.3877 88.1515 23.3467C88.1942 23.4241 88.2545 23.5384 88.3233 23.6829C88.4579 23.965 88.6213 24.3588 88.737 24.7975C88.7847 24.9764 88.8612 25.3107 88.927 25.6339L89.0101 25.5469L91.6145 22.8214L87.1441 20.4463L88.0611 19.4866L90.5378 19.9306L91.5262 18.8963C91.8266 18.5819 92.312 18.58 92.6149 18.897C92.9157 19.2119 92.9156 19.7224 92.6156 20.0364L92.398 20.2641L93.8153 20.5182L96.4013 17.812C96.8066 17.3878 97.4287 17.3901 97.7905 17.7688C98.1524 18.1475 98.1546 18.7984 97.7493 19.2227L95.1633 21.9289L95.4025 23.3903L95.6115 23.1716C95.912 22.8572 96.3973 22.8553 96.7002 23.1724C97.0011 23.4872 97.0009 23.9977 96.7009 24.3117L95.7212 25.337ZM83.6272 33.0992C88.1397 37.8216 95.456 37.8216 99.9685 33.0992C104.481 28.3768 104.481 20.7203 99.9685 15.9979C95.456 11.2755 88.1397 11.2755 83.6272 15.9979C79.1147 20.7203 79.1147 28.3768 83.6272 33.0992Z" fill="#222222"/>
<path fill-rule="evenodd" clip-rule="evenodd" d="M4.55938 30.8155C4.55938 31.0332 4.74657 31.2291 4.95456 31.2291H7.45045C7.65844 31.2291 7.84563 31.0332 7.84563 30.8155V19.1923H10.8199C11.0487 19.1923 11.2151 18.9964 11.2151 18.7787V16.4062C11.2151 16.1885 11.0487 15.9926 10.8199 15.9926H1.58512C1.35633 15.9926 1.18994 16.1885 1.18994 16.4062V18.7787C1.18994 18.9964 1.35633 19.1923 1.58512 19.1923H4.55938V30.8155ZM11.4739 30.8155C11.4739 31.0332 11.6611 31.2291 11.8691 31.2291H13.9906C14.3234 31.2291 14.4482 31.0767 14.4482 30.8155V26.3099C14.4482 25.5698 14.9265 25.0692 15.5505 25.0692C15.7377 25.0692 15.9457 25.1345 16.0497 25.178C16.2785 25.2651 16.4241 25.1345 16.5073 24.9821L17.5264 23.2408C17.8176 22.7402 17.0064 22.3049 15.8625 22.3049C14.7809 22.3049 14.0114 23.1102 13.5954 23.7414L13.221 22.7837C13.1586 22.6531 13.0754 22.5225 12.8466 22.5225H11.8691C11.6611 22.5225 11.4739 22.6967 11.4739 22.9361V30.8155ZM18.088 28.5736C18.088 30.2931 19.3151 31.4468 20.9583 31.4468C22.2686 31.4468 22.9966 30.8155 23.4749 30.3584L23.7661 30.9461C23.8701 31.1856 24.0157 31.2291 24.1405 31.2291H25.0557C25.2637 31.2291 25.4508 31.0332 25.4508 30.8155V26.0052C25.4508 23.4367 24.5149 22.3049 21.9358 22.3049C20.8127 22.3049 19.3567 22.5661 19.1695 22.6314C18.9824 22.6967 18.7952 22.849 18.8576 23.219L19.0447 24.5903C19.0863 24.9168 19.2319 25.1563 19.5439 25.0474C20.0847 24.8733 21.0623 24.7209 21.6238 24.7209C22.6222 24.7209 22.747 25.1563 22.747 26.0052C22.747 26.0052 22.0814 25.6569 21.1455 25.6569C19.2527 25.6569 18.088 26.8976 18.088 28.5736ZM20.7919 28.3559C20.7919 27.8553 21.187 27.4417 21.6862 27.4417C22.1854 27.4417 22.5806 27.8553 22.6014 28.3559C22.6014 28.8783 22.1854 29.3136 21.6862 29.3136C21.187 29.3136 20.7919 28.8783 20.7919 28.3559ZM30.4426 31.2291C30.505 31.3379 30.6714 31.4468 30.7962 31.4468H30.9002C31.025 31.4468 31.1914 31.3379 31.2538 31.2291L35.2056 23.1102C35.3512 22.8273 35.164 22.5225 34.852 22.5225H32.7513C32.4601 22.5225 32.3145 22.5008 32.1897 22.762L30.8794 25.7222H30.817L29.5899 22.762C29.5275 22.6314 29.3611 22.5225 29.2155 22.5225H26.886C26.574 22.5225 26.3868 22.8273 26.5324 23.1102L30.4426 31.2291ZM35.8088 26.8758C35.8088 29.3789 37.6807 31.4468 40.1558 31.4468C41.4661 31.4468 42.5061 30.9679 43.234 30.2061C43.4212 30.0102 43.3796 29.749 43.2548 29.5748L42.2149 28.2689C42.0901 28.1165 41.8821 28.1165 41.6949 28.2689C41.3621 28.5301 40.7589 28.7913 40.239 28.7913C39.1574 28.7913 38.6998 27.9424 38.6374 27.3547H43.6292C43.8164 27.3547 44.0036 27.2023 44.0244 26.9846C44.0452 26.8323 44.066 26.5493 44.066 26.3969C44.066 24.0026 42.2357 22.3049 40.1142 22.3049C37.6599 22.3049 35.8088 24.4162 35.8088 26.8758ZM38.9078 25.6569C38.991 25.091 39.4694 24.6339 40.031 24.6339C40.5717 24.6339 41.0917 25.091 41.1333 25.6569H38.9078ZM45.5635 30.8155C45.5635 31.0332 45.7507 31.2291 45.9587 31.2291H48.2466C48.4546 31.2291 48.6418 31.0332 48.6418 30.8155V16.4062C48.6418 16.1885 48.4546 15.9926 48.2466 15.9926H45.9587C45.7507 15.9926 45.5635 16.1885 45.5635 16.4062V30.8155ZM50.2641 26.8758C50.2641 29.3789 52.136 31.4468 54.6111 31.4468C55.9214 31.4468 56.9614 30.9679 57.6893 30.2061C57.8765 30.0102 57.8349 29.749 57.7101 29.5748L56.6702 28.2689C56.5454 28.1165 56.3374 28.1165 56.1502 28.2689C55.8174 28.5301 55.2143 28.7913 54.6943 28.7913C53.6127 28.7913 53.1551 27.9424 53.0928 27.3547H58.0845C58.2717 27.3547 58.4589 27.2023 58.4797 26.9846C58.5005 26.8323 58.5213 26.5493 58.5213 26.3969C58.5213 24.0026 56.691 22.3049 54.5695 22.3049C52.1152 22.3049 50.2641 24.4162 50.2641 26.8758ZM53.3631 25.6569C53.4463 25.091 53.9247 24.6339 54.4863 24.6339C55.0271 24.6339 55.547 25.091 55.5886 25.6569H53.3631ZM60.0188 30.8155C60.0188 31.0332 60.206 31.2291 60.414 31.2291H62.5355C62.8683 31.2291 62.9931 31.0767 62.9931 30.8155V26.3099C62.9931 25.5698 63.4715 25.0692 64.0954 25.0692C64.2826 25.0692 64.4906 25.1345 64.5946 25.178C64.8234 25.2651 64.969 25.1345 65.0522 24.9821L66.0713 23.2408C66.3625 22.7402 65.5514 22.3049 64.4074 22.3049C63.3259 22.3049 62.5563 23.1102 62.1403 23.7414L61.7659 22.7837C61.7035 22.6531 61.6204 22.5225 61.3916 22.5225H60.414C60.206 22.5225 60.0188 22.6967 60.0188 22.9361V30.8155ZM67.4857 22.1525C67.6521 22.3484 67.7977 22.3049 67.9433 22.196C68.4216 21.7825 69.8776 20.5853 69.8776 18.2998C69.8776 16.4062 68.7752 15.7749 67.9849 15.7749C67.0281 15.7749 66.3417 16.4932 66.3417 17.3421C66.3417 18.2128 67.0281 18.8875 67.8393 18.8875C68.3176 18.8875 68.6712 18.7352 68.6712 18.7352C68.6504 20.2153 67.4233 21.173 67.1945 21.3471C67.0697 21.456 67.0281 21.6519 67.1737 21.826L67.4857 22.1525ZM69.1373 30.7285C69.5533 31.0767 70.5932 31.4468 71.9659 31.4468C74.3162 31.4468 75.481 30.2061 75.481 28.6824C75.481 26.9411 74.3162 26.2446 72.6315 25.6351C71.9243 25.3739 71.6956 25.1563 71.6956 24.9386C71.6956 24.6992 71.8827 24.6339 72.1531 24.6339C72.9643 24.6339 73.9211 25.1345 73.9211 25.1345C74.0874 25.1998 74.2954 25.1345 74.3578 25.0039L75.1274 23.5238C75.2522 23.3061 75.1066 23.1102 74.9194 22.9796C74.4618 22.6749 73.4635 22.3049 72.1531 22.3049C69.9068 22.3049 68.9085 23.4802 68.9085 24.9386C68.9085 26.2881 69.6157 27.2676 71.238 27.8553C72.2987 28.2471 72.4235 28.5518 72.4235 28.7695C72.4235 29.0307 72.2363 29.1613 72.0283 29.1613C71.134 29.1613 70.1564 28.5954 70.1564 28.5954C69.99 28.5083 69.782 28.6389 69.7196 28.7695L68.9917 30.2714C68.8877 30.4673 68.9917 30.5979 69.1373 30.7285Z" fill="#222222"/>
</svg>
