<svg version="1.2" xmlns="http://www.w3.org/2000/svg" viewBox="0 0 640 170" width="640" height="170"><style>.a{fill:#00aeaf}.b{fill:#fff}.c{fill:#f48f00;stroke:#fff;stroke-miterlimit:10;stroke-width:5}.d{fill:#121212}</style><path fill-rule="evenodd" class="a" d="m109.2 169.2c36.8-19 77.7-50.5 84.5-93.3 3.5-21.7-4-49.2-26.5-57.8-17.7-6.7-34.8 3.6-46.7 16.4l-11.3 12.1-11.2-12.1c-11.8-12.8-28.8-23.1-46.5-16.4-22.6 8.5-30.1 35.9-26.8 57.7 6.7 42.8 47.8 74.4 84.5 93.4z"/><path fill-rule="evenodd" class="b" d="m49.7 112.8q0.6-0.1 1.1-0.3 0.6-0.2 1-0.4 0.5-0.3 1-0.7 0.4-0.3 0.8-0.7 0.5-0.5 1.1-1.1 0.5-0.5 1-1.1 0.5-0.6 1-1.1 0.5-0.6 1-1.2 1.8-2.5 3.4-4.8 1.6-2.2 2-3 0.8-1.2 1.8-2.7 1.1-1.5 3.6-0.9 2.7 0.6 2.4 2.6-0.3 1.9-0.5 3.1-0.1 0.6-0.2 1.2-0.1 0.6-0.1 1.2-0.1 0.6-0.1 1.2 0 0.6-0.1 1.2-0.2 3.7-0.2 7.9 0 0.9 0.1 1.9 0 1 0.1 1.9 0.1 1 0.2 2 0.1 0.9 0.3 1.9 0.6 3.5 2.2 4.1 0.9-0.6 1.8-1.3 0.8-0.7 1.6-1.5 0.8-0.8 1.5-1.6 0.7-0.8 1.3-1.7 0.7-1 1.3-2 0.7-1 1.3-2 0.7-1 1.2-2.1 0.6-1 1.2-2 2.2-4.2 3.8-8.2 1.7-4 3-6.5-0.6-1.3-1.1-2.5-0.4-1.3-0.8-2.6-0.4-1.3-0.6-2.6-0.2-1.3-0.4-2.7-0.1-1.1-0.1-2.3-0.1-1.1 0-2.3 0-1.1 0.2-2.3 0.2-1.1 0.5-2.2 0.2-0.8 0.5-1.6 0.3-0.8 0.8-1.4 0.4-0.7 1-1.3 0.5-0.6 1.2-1.1 0.6-0.5 1.2-0.8 0.6-0.3 1.3-0.6 0.6-0.2 1.3-0.3 0.7-0.1 1.4-0.1 4 0 5.8 1.5 0.5 0.4 0.9 0.9 0.4 0.5 0.7 1 0.3 0.5 0.5 1.1 0.2 0.6 0.3 1.2 0.2 0.7 0.2 1.4 0.1 0.7 0.1 1.4 0 0.7-0.1 1.4 0 0.7-0.2 1.4-0.1 0.8-0.3 1.5-0.1 0.8-0.3 1.6-0.2 0.7-0.4 1.5-0.3 0.7-0.5 1.5-1.1 3-2.2 5.5-1.1 2.6-1.8 3.9 0.6 1.4 1.5 3 0.2 0.4 0.4 0.8 0.2 0.4 0.5 0.8 0.2 0.4 0.4 0.8 0.3 0.4 0.6 0.8 0.2 0.3 0.4 0.6 0.3 0.4 0.6 0.7 0.2 0.3 0.5 0.6 0.3 0.3 0.6 0.5 0.3 0.3 0.7 0.5 0.3 0.2 0.7 0.3 0.3 0.1 0.7 0.2 0.4 0 0.8 0 0.7 0 1.5-0.1 0.8-0.1 1.5-0.3 0.7-0.2 1.4-0.6 0.7-0.3 1.4-0.7 0.7-0.4 1.3-0.9 0.7-0.5 1.3-1 0.6-0.5 1.2-1.1 0.6-0.6 1.2-1.1 0.5-0.6 1.1-1.2 0.5-0.6 1-1.3 0.5-0.6 1-1.2 0.5-0.7 0.9-1.4 1.8-2.6 2.9-4.2 0.1-0.3 0.3-0.5 0.1-0.2 0.3-0.4 0.3-0.1 0.5-0.2 0.3-0.2 0.5-0.2 0.3-0.1 0.6-0.2 0.4 0 0.7 0 0.3 0 0.6 0 0.3 0 0.6 0.1 0.3 0.1 0.6 0.2 0.2 0.1 0.5 0.2 0.2 0.2 0.4 0.4 0.2 0.2 0.4 0.4 0.1 0.2 0.2 0.4 0.1 0.3 0.1 0.5 0 0.2-0.1 0.5-0.1 0.2-0.2 0.4-0.4 0.7-0.9 1.4-0.4 0.7-0.9 1.3-0.4 0.7-0.9 1.4-0.5 0.6-1.1 1.2-0.5 0.7-1.2 1.4-0.6 0.7-1.3 1.3-0.6 0.7-1.3 1.3-0.7 0.6-1.5 1.1-0.7 0.6-1.5 1.2-0.8 0.5-1.7 1-0.8 0.4-1.7 0.9-0.8 0.4-1.7 0.7-1 0.4-2 0.7-1 0.3-2 0.5-1 0.1-2 0.2-1 0-2.1 0-0.8 0-1.6-0.1-0.8-0.1-1.6-0.2-0.8-0.2-1.5-0.5-0.8-0.3-1.5-0.7-0.7-0.4-1.4-0.9-0.6-0.4-1.3-0.9-0.6-0.5-1.2-1.1-0.6-0.5-1.1-1.2-0.5 1.2-1.1 2.3-0.6 1.2-1.3 2.3-0.6 1.1-1.3 2.2-0.7 1-1.4 2.1-0.7 1-1.5 2-0.7 1.1-1.5 2-0.8 1-1.7 1.9-0.8 1-1.7 1.9-0.7 0.8-1.5 1.5-0.8 0.7-1.6 1.4-0.8 0.7-1.7 1.4-0.8 0.6-1.7 1.2-0.6 0.4-1.3 0.8-0.7 0.3-1.4 0.6-0.8 0.2-1.5 0.4-0.8 0.1-1.5 0.2-0.8 0-1.5-0.1-0.7-0.1-1.4-0.4-0.7-0.2-1.3-0.5-0.7-0.4-1.3-0.8-0.5-0.4-1-0.9-0.4-0.5-0.8-1-0.4-0.6-0.7-1.2-0.3-0.6-0.6-1.2-0.3-0.7-0.5-1.4-0.2-0.7-0.4-1.5-0.1-0.7-0.3-1.4-0.1-0.8-0.1-1.5-0.4-3.3-0.3-6.4-0.4 0.3-0.7 0.7-0.3 0.3-0.6 0.6-0.4 0.3-0.7 0.6-0.4 0.3-0.8 0.6-0.4 0.3-0.8 0.6-0.4 0.3-0.9 0.6-0.4 0.2-0.9 0.5-0.4 0.3-0.9 0.5-0.5 0.3-1 0.5-0.5 0.2-1 0.3-0.5 0.2-1 0.3-0.5 0.2-1.1 0.3-0.5 0.1-1 0.1-0.6 0-1.1 0-0.5 0-1.1 0-0.5-0.1-1-0.2-1-0.2-2-0.6-0.9-0.4-1.7-1-0.9-0.6-1.6-1.3-0.7-0.8-1.2-1.6-0.6-1-1.1-2-0.5-0.9-0.9-2-0.5-1-0.8-2.1-0.4-1-0.6-2.1-0.3-1.1-0.5-2.3-0.3-1.1-0.4-2.3-0.2-1.1-0.3-2.3-0.1-1.2-0.1-2.3-0.1-4.7-0.1-7.8 3.1 0.3 4.2-0.3 0.2-0.2 0.4-0.3 0.3-0.1 0.5-0.3 0.2-0.2 0.4-0.3 0.2-0.2 0.4-0.4 0.1-0.2 0.3-0.3 0.1-0.2 0.3-0.3 0.2-0.2 0.3-0.3 0.2-0.1 0.4-0.2 0.4-0.2 0.8-0.2 0.3-0.1 0.7-0.1 0.4 0 0.8 0 0.4 0 0.7 0.1 0 1.4-0.2 4.3-0.2 2.9-0.4 6.4-0.2 3.6-0.3 7.2-0.1 3.7 0.1 6.7 0 0.6 0.1 1.3 0.1 0.6 0.2 1.2 0.1 0.6 0.3 1.2 0.2 0.6 0.4 1.2 0.9 1.9 2.3 1.7zm45-26.1q0.4-0.5 0.6-1 0.3-0.5 0.6-1.1 0.2-0.5 0.4-1.1 0.2-0.5 0.4-1.1 0.2-0.6 0.3-1.1 0.2-0.6 0.3-1.2 0.2-0.6 0.3-1.2 0.1-0.6 0.2-1.2 0-0.5 0.1-1 0-0.5 0-1 0-0.5 0-1 0-0.5 0-1-0.1-0.4-0.1-0.7-0.1-0.3-0.2-0.7-0.2-0.3-0.4-0.6-0.2-0.3-0.4-0.6-0.3 0.2-0.6 0.5-0.4 0.2-0.6 0.5-0.2 0.3-0.4 0.6-0.2 0.4-0.3 0.8-0.1 0.5-0.3 1-0.1 0.6-0.2 1.1-0.1 0.5-0.2 1.1-0.1 0.5-0.1 1-0.1 0.7-0.1 1.3 0 0.6 0 1.2 0 0.6 0 1.3 0 0.6 0.1 1.2 0 0.5 0.1 1 0 0.5 0.1 1 0.1 0.5 0.2 1 0.1 0.6 0.2 1z"/><path fill-rule="evenodd" class="b" d="m173.3 125.1q0.8 0.1 1.7 0 0.8 0 1.6-0.2 0.9-0.2 1.6-0.6 0.8-0.3 1.5-0.8 0.9-0.5 1.6-1.1 0.8-0.6 1.6-1.3 0.7-0.6 1.4-1.3 0.7-0.7 1.4-1.5 0.7-0.8 1.4-1.7 0.7-0.9 1.3-1.8 0.7-0.9 1.3-1.8 0.6-0.9 1.2-1.9 2.4-3.9 4.5-7.9 2-3.9 3.5-7.2 0.3-0.7 0.6-1.3 0.3-0.7 0.6-1.3 0.3-0.7 0.6-1.3 0.3-0.7 0.7-1.3 0.1-0.2 0.3-0.5 0.2-0.2 0.4-0.3 0.2-0.2 0.4-0.3 0.3-0.1 0.6-0.2 0.3-0.1 0.6-0.1 0.3-0.1 0.6-0.1 0.3 0 0.6 0 0.4 0.1 0.7 0.1 0.2 0.1 0.5 0.2 0.3 0.1 0.5 0.3 0.3 0.1 0.5 0.3 0.2 0.2 0.3 0.4 0.2 0.2 0.3 0.5 0.1 0.2 0.1 0.4 0 0.3 0 0.5 0 0.2-0.1 0.4-2.3 4.2-5.5 10.2-0.8 1.6-1.6 3-0.8 1.5-1.7 3-0.9 1.4-1.9 2.8-1 1.4-2 2.8-0.9 1.3-2 2.6-1.1 1.3-2.3 2.5-1.1 1.1-2.4 2.2-1.3 1.1-2.6 2.1-1.3 0.9-2.7 1.6-1.4 0.8-2.9 1.2-1.5 0.5-3.1 0.8-1.5 0.2-3.1 0.2-5.4 0-8.6-2.2-0.8-0.6-1.4-1.2-0.7-0.6-1.4-1.3-0.6-0.7-1.1-1.4-0.5-0.8-1-1.6-0.4-0.8-0.8-1.7-0.3-0.9-0.6-1.7-0.3-0.9-0.5-1.8-0.2-0.9-0.3-1.9-0.6-3.8-0.8-6.9v-1.2q-0.7 0.8-1.4 1.7-0.7 0.8-1.5 1.7-0.7 0.8-1.5 1.6-0.8 0.8-1.6 1.6-0.8 0.7-1.7 1.5-0.8 0.7-1.7 1.4-0.9 0.7-1.8 1.3-0.9 0.7-1.9 1.3-0.9 0.6-1.9 1.1-0.9 0.5-1.9 1-1 0.4-2 0.8-1 0.3-2.1 0.6-1.1 0.3-2.2 0.5-1.1 0.1-2.2 0.2-1.1 0-2.2-0.1-1.1-0.1-2.1-0.3-5.9-1.1-7.8-5.3-0.4-1.1-0.7-2.3-0.3-1.2-0.5-2.5-0.1-1.2 0-2.4 0.1-1.3 0.3-2.5 0.3-1.5 0.7-3 0.5-1.5 1-2.9 0.6-1.5 1.3-2.8 0.7-1.4 1.5-2.7 0.9-1.5 1.9-3 1-1.4 2.1-2.7 1.1-1.4 2.3-2.7 1.2-1.2 2.5-2.4 1.4-1.1 2.8-2.2 1.4-1.1 2.9-2 1.5-0.9 3.1-1.7 1.6-0.8 3.2-1.5 1.6-0.7 3.3-1.1 1.7-0.4 3.5-0.6 1.7-0.2 3.5-0.2 1.7 0.1 3.5 0.4 0.2-2.5 0.4-5.2 0.2-2.6 0.6-5.3 0.3-3.3 0.8-6.5 0.4-3.3 0.9-6.6 0.5-3.2 1.1-6.5 0.6-3.2 1.3-6.4 0.5-2.8 1.2-5.5 0.7-2.7 1.6-5.4 0.9-2.6 1.9-5.3 1.1-2.6 2.3-5.1 4.3-8.9 10.6-13.4 6.2-4.5 15-2.4 5.6 1.3 7.8 5.4 0.6 1.2 1 2.5 0.4 1.2 0.6 2.5 0.2 1.3 0.2 2.6 0.1 1.3 0 2.6-0.2 1.7-0.5 3.4-0.2 1.7-0.6 3.3-0.3 1.7-0.8 3.4-0.5 1.6-1.1 3.2-0.6 1.9-1.3 3.8-0.8 1.9-1.5 3.8-0.8 1.9-1.6 3.7-0.8 1.9-1.7 3.7-3.7 7.7-7.9 15.2-4.3 7.5-8.2 13.9-4 6.5-7.3 11.3-3.4 4.8-5 7 0 1.2-0.1 4.1-0.1 3-0.2 6.6-0.1 0.9-0.1 1.9 0 0.9 0.1 1.8 0 1 0 1.9 0.1 0.9 0.2 1.9 0.3 3.9 0.8 7.2 0.1 0.7 0.2 1.4 0.2 0.7 0.4 1.4 0.2 0.7 0.5 1.3 0.2 0.7 0.6 1.3 0.2 0.5 0.5 0.9 0.3 0.4 0.7 0.7 0.3 0.3 0.8 0.5 0.5 0.2 1 0.2zm-15.4-45.9q-3.4-0.9-7.8 1.5-1.1 0.7-2.3 1.5-1.1 0.7-2.2 1.5-1.1 0.8-2.2 1.7-1 0.9-2 1.8-1.1 1-2.2 2.2-1.1 1.1-2.1 2.2-1 1.2-2 2.4-0.9 1.2-1.8 2.4-0.9 1.2-1.7 2.4-0.7 1.1-1.5 2.4-0.7 1.2-1.3 2.5-0.7 1.2-1.3 2.5-0.4 1-0.7 2-0.4 1-0.6 2-0.2 1.1-0.3 2.1-0.1 1.1 0 2.1 0.3 3.5 4 4.4 2.9 0.8 6.7-1.7 1-0.7 2-1.4 1-0.7 1.9-1.5 1-0.8 1.9-1.7 0.9-0.8 1.7-1.7 1-1 1.9-2 0.9-1 1.9-2 0.9-1.1 1.8-2.2 0.8-1 1.7-2.1 3.5-4.5 5.8-7.8 0.2-3.9 0.2-7.7 0-1 0.1-2 0-0.9 0-1.9 0.1-1 0.2-1.9 0-1 0.2-2zm9.9 3.8q1.3-2.3 5.5-8.8 4.1-6.5 9-15.1 4.9-8.5 9.5-18 1.1-2.1 2-4.3 1-2.2 1.9-4.4 0.9-2.2 1.7-4.4 0.9-2.3 1.6-4.6 2.6-8.2 1.9-14.1-0.1-1.3-0.6-2.5-0.5-1.2-1.4-2.1-0.8-1-2-1.7-1.1-0.6-2.4-0.9-1-0.2-2-0.3-1.1 0-2.1 0.1-1.1 0.2-2.1 0.6-0.9 0.4-1.8 1-1 0.7-1.8 1.5-0.9 0.8-1.7 1.7-0.7 0.9-1.4 1.9-0.7 1-1.2 2-0.8 1.4-1.4 2.7-0.7 1.4-1.3 2.8-0.5 1.4-1 2.8-0.5 1.4-0.9 2.9-1.9 6.5-3.2 13.7-1.4 7.3-2.2 14.8-0.9 7.5-1.3 14.1-0.4 4.7-0.7 9.3-0.3 4.6-0.6 9.3z"/><path fill-rule="evenodd" class="c" d="m62.7 23.6c-1.2-2-2.8-3.8-4.7-5.2-1.9-1.4-4-2.5-6.3-3.1-2.2-0.6-4.6-0.7-6.9-0.4-2.4 0.3-4.6 1.1-6.7 2.3q-2 1.1-3.6 2.7-1.7 1.6-2.9 3.6-1.1 2-1.7 4.2-0.7 2.3-0.7 4.6-2-1.1-4.3-1.6-2.2-0.6-4.5-0.5-2.3 0-4.5 0.6-2.3 0.6-4.3 1.7c-2 1.2-3.8 2.8-5.3 4.7-1.4 1.9-2.5 4-3.1 6.3-0.6 2.3-0.8 4.7-0.5 7.1 0.3 2.4 1.1 4.6 2.2 6.7q1 1.6 2.3 3.1 1.3 1.4 2.9 2.4 1.6 1.1 3.3 1.9 1.8 0.7 3.7 1l34.9 9.4q0.2 0.1 0.5 0.1 0.2 0 0.4 0 0.2 0 0.4-0.1 0.3-0.1 0.5-0.2 0.2-0.1 0.4-0.3 0.2-0.1 0.3-0.3 0.2-0.2 0.3-0.4 0.1-0.3 0.2-0.5l9.2-34.9q0.6-1.9 0.8-3.8 0.3-1.9 0.1-3.8-0.2-2-0.8-3.8-0.6-1.8-1.6-3.5z"/><path class="d" d="m257.3 69.9l8.3 26.9q0.7 2.5 1.4 5.1 0.6 2.6 1.2 5.4h0.1q0.6-2.5 1.3-5 0.7-2.4 1.4-5.1l4.1-15.3q0.5-1.7 1.2-3.6 0.2-0.4 0.3-0.8 0.2-0.4 0.5-0.8 0.2-0.4 0.4-0.7 0.3-0.4 0.6-0.7v-0.1l-5.6 0.3v-5.6h16.4v4.8q-0.3 0-0.6 0-0.3 0.1-0.6 0.1-0.3 0.1-0.5 0.2-0.3 0.1-0.6 0.2-0.3 0.1-0.6 0.2-0.3 0.2-0.5 0.3-0.3 0.2-0.5 0.4-0.3 0.2-0.5 0.4-0.3 0.3-0.5 0.6-0.3 0.2-0.5 0.5-0.2 0.3-0.4 0.6-0.2 0.4-0.4 0.7-0.2 0.4-0.5 0.9-0.2 0.4-0.4 0.8-0.1 0.5-0.3 1-0.2 0.4-0.3 0.9l-11.9 38.9h-6.5l-8.7-26.1q-0.2-0.7-0.4-1.4-0.2-0.7-0.4-1.4-0.2-0.7-0.4-1.4-0.2-0.7-0.3-1.4-0.6-2.7-1.1-5.2h-0.1q-0.4 2.5-0.9 4.8-0.5 2.3-1.2 4.7l-8.3 27.4h-6.4l-13-39.3q-0.4-0.9-0.7-1.9-0.4-0.9-0.7-1.8-0.3-0.9-0.5-1.7 0-0.2 0-0.4-0.1-0.1-0.1-0.3 0-0.2 0-0.4 0-0.1 0-0.3l-3.9 0.2v-5.6h21.5v4.8h-0.5q-0.4 0-0.8 0-0.4 0-0.8 0.1-0.4 0.1-0.8 0.2-0.3 0.2-0.7 0.4-0.3 0.2-0.5 0.5-0.2 0.2-0.4 0.6-0.1 0.3-0.2 0.6-0.1 0.4 0 0.8 0 0.1 0 0.2 0 0.2 0 0.3 0 0.1 0 0.3 0 0.1 0.1 0.2 0.1 0.6 0.2 1.3l4.4 16.6q0.3 1.3 0.6 2.4 0.3 1.1 0.7 2.3 0.3 1.2 0.6 2.6 0.3 1.3 0.6 3.1h0.1q0.1-0.7 0.5-1.9 0.3-1.2 0.7-2.7 0.4-1.5 0.8-3.1 0.5-1.6 0.9-3 0.4-1.5 0.7-2.6 0.3-1.1 0.5-1.7l6.8-22.3h6.6z"/><path fill-rule="evenodd" class="d" d="m325.7 101.3l-23.9 0.4q0 0.7 0 1.4 0 0.7 0.1 1.4 0.1 0.7 0.2 1.4 0.1 0.7 0.2 1.4 0.1 0.6 0.3 1.1 0.2 0.6 0.4 1.2 0.2 0.5 0.5 1 0.3 0.6 0.6 1.1 0.3 0.4 0.6 0.8 0.4 0.4 0.8 0.8 0.4 0.4 0.8 0.7 0.5 0.3 1 0.6 0.5 0.2 1.1 0.4 0.6 0.2 1.2 0.4 0.6 0.1 1.2 0.2 0.6 0 1.3 0 0.3 0 0.6 0 0.3 0 0.6-0.1 0.3 0 0.6-0.1 0.3 0 0.6-0.1 0.4-0.1 0.7-0.2 0.4-0.1 0.7-0.2 0.4-0.1 0.7-0.2 0.4-0.2 0.7-0.3 0.4-0.2 0.7-0.4 0.4-0.2 0.7-0.4 0.4-0.2 0.7-0.4 0.4-0.3 0.7-0.5 0.4-0.3 0.7-0.6 0.4-0.3 0.7-0.6 0.4-0.3 0.7-0.7 0.3-0.3 0.6-0.7l3.3 3.1q-0.5 0.7-1 1.3-0.4 0.6-1 1.2-0.5 0.5-1 1.1-0.6 0.5-1.2 1-0.5 0.4-1 0.8-0.6 0.3-1.1 0.7-0.6 0.3-1.2 0.6-0.5 0.3-1.1 0.6-0.6 0.2-1.1 0.4-0.5 0.2-1.1 0.4-0.5 0.1-1.1 0.3-0.6 0.1-1.1 0.2-0.5 0.1-1 0.1-0.5 0.1-1 0.1-0.5 0.1-1 0.1-0.5 0-1 0-1 0-1.9 0-0.9-0.1-1.9-0.3-0.9-0.2-1.8-0.4-0.9-0.3-1.8-0.6-0.8-0.3-1.5-0.8-0.8-0.4-1.5-0.9-0.7-0.4-1.4-1-0.7-0.6-1.3-1.2-0.6-0.7-1.1-1.4-0.6-0.7-1-1.5-0.5-0.7-0.9-1.5-0.4-0.8-0.7-1.7-0.3-1-0.5-1.9-0.3-1-0.5-2-0.1-1-0.2-2.1-0.1-1-0.1-2 0-0.9 0.1-1.9 0.1-0.9 0.3-1.8 0.1-1 0.4-1.9 0.2-0.9 0.5-1.8 0.4-0.8 0.7-1.6 0.4-0.8 0.9-1.6 0.5-0.8 1-1.6 0.5-0.7 1.1-1.4 0.6-0.6 1.3-1.3 0.7-0.6 1.4-1.1 0.7-0.6 1.5-1 0.8-0.5 1.6-0.9 0.9-0.4 1.8-0.7 0.9-0.3 1.8-0.5 1-0.2 2-0.3 0.9-0.1 1.9-0.1 0.5 0 1 0 0.5 0.1 1 0.1 0.5 0.1 1 0.1 0.5 0.1 1 0.2 0.5 0.1 1 0.2 0.5 0.1 1 0.3 0.5 0.1 0.9 0.3 0.5 0.2 1 0.4 0.4 0.2 0.9 0.4 0.4 0.3 0.9 0.5 0.4 0.3 0.8 0.6 0.4 0.3 0.8 0.7 0.4 0.3 0.8 0.7 0.4 0.4 0.7 0.8 0.3 0.4 0.6 0.9 0.3 0.4 0.6 0.9 0.3 0.6 0.6 1.1 0.3 0.6 0.5 1.2 0.2 0.6 0.4 1.2 0.2 0.6 0.3 1.2 0.2 0.8 0.3 1.5 0.1 0.8 0.2 1.6 0.1 0.8 0.1 1.6 0.1 0.7 0 1.5zm-16.1-12.9q-0.3 0-0.7 0.1-0.4 0-0.7 0.1-0.4 0-0.7 0.2-0.4 0.1-0.7 0.2-0.3 0.2-0.6 0.4-0.3 0.1-0.6 0.4-0.3 0.2-0.5 0.4-0.3 0.2-0.5 0.5-0.3 0.3-0.5 0.6-0.2 0.3-0.4 0.6-0.2 0.4-0.3 0.7-0.2 0.3-0.3 0.7-0.2 0.4-0.3 0.8-0.1 0.4-0.2 0.8-0.1 0.4-0.2 0.9-0.1 0.4-0.2 0.8h13.5q0-0.5-0.1-0.9 0-0.5-0.1-1-0.1-0.5-0.1-1-0.1-0.4-0.3-0.9-0.1-0.3-0.2-0.7-0.1-0.3-0.3-0.6-0.1-0.3-0.3-0.7-0.2-0.3-0.4-0.5-0.2-0.3-0.4-0.5-0.2-0.2-0.5-0.4-0.2-0.1-0.5-0.3-0.2-0.1-0.5-0.3-0.3-0.1-0.6-0.1-0.3-0.1-0.6-0.2-0.3 0-0.6-0.1-0.3 0-0.6 0z"/><path fill-rule="evenodd" class="d" d="m365.3 109.2q0 0.6 0 1.3-0.1 0.8-0.1 1.6 0 0.9-0.1 1.8 0 0.9-0.1 1.7l4.7-0.2v5.5h-13.8l-0.4-3.3h-0.1q-0.5 0.5-1.1 1.1-0.6 0.5-1.2 0.9-0.6 0.5-1.3 0.8-0.7 0.4-1.4 0.7-0.6 0.3-1.3 0.4-0.6 0.2-1.3 0.4-0.7 0.1-1.3 0.2-0.7 0-1.4 0-1.5 0.1-3-0.3-1.5-0.3-2.9-0.9-1.4-0.7-2.6-1.6-1.2-1-2.1-2.2-0.5-0.6-1-1.3-0.4-0.7-0.8-1.4-0.4-0.8-0.7-1.5-0.3-0.8-0.5-1.6-0.3-0.9-0.5-1.9-0.2-0.9-0.3-1.9-0.2-0.9-0.2-1.9-0.1-1-0.1-2 0-1 0.1-2 0.1-1.1 0.2-2.1 0.2-1 0.4-2 0.3-1 0.6-2 0.3-0.9 0.7-1.7 0.4-0.9 0.8-1.7 0.5-0.8 1-1.6 0.6-0.7 1.2-1.4 0.6-0.7 1.2-1.3 0.7-0.6 1.4-1.1 0.7-0.6 1.5-1 0.8-0.5 1.6-0.9 0.9-0.4 1.8-0.6 0.9-0.3 1.8-0.5 0.9-0.2 1.9-0.3 0.9-0.1 1.9-0.1 0.4 0 0.9 0 0.4 0 0.9 0.1 0.4 0.1 0.9 0.1 0.4 0.1 0.9 0.2 1.5 0.4 2.9 0.9v-4.8q0-0.5 0-1.3 0-0.7 0-1.6 0.1-0.8 0.1-1.8 0.1-0.9 0.1-1.7l-5.1 0.2v-5.5q0.6 0 1.1 0 0.6-0.1 1.1-0.1 0.6 0 1.2 0 0.5-0.1 1.1-0.1 0.4-0.1 0.8-0.1 0.4-0.1 0.8-0.2 0.4 0 0.9-0.1 0.4-0.1 0.8-0.2 0.3 0 0.5-0.1 0.3-0.1 0.6-0.2 0.3-0.1 0.6-0.2 0.2-0.1 0.5-0.2 0.2 0 0.3-0.1 0.2-0.1 0.3-0.2 0.2-0.1 0.3-0.2 0.2-0.1 0.3-0.2h4zm-16.4 6.2q0.5 0 0.9 0 0.5-0.1 0.9-0.2 0.5-0.1 0.9-0.3 0.4-0.2 0.8-0.4 0.4-0.3 0.7-0.5 0.4-0.3 0.7-0.6 0.3-0.3 0.6-0.7 0.3-0.3 0.6-0.7v-22q-0.3-0.1-0.6-0.2-0.2-0.2-0.5-0.3-0.3-0.1-0.5-0.2-0.3-0.1-0.6-0.2-0.4-0.1-0.8-0.2-0.3-0.1-0.7-0.1-0.4-0.1-0.8-0.1-0.3 0-0.7 0-0.6 0-1.1 0.1-0.6 0.1-1.1 0.2-0.5 0.2-1 0.4-0.5 0.2-1 0.6-0.4 0.3-0.8 0.6-0.4 0.4-0.7 0.8-0.4 0.4-0.7 0.8-0.2 0.4-0.5 0.9-0.2 0.5-0.5 1-0.2 0.6-0.4 1.1-0.1 0.6-0.3 1.2-0.1 0.5-0.2 1.1-0.1 0.6-0.2 1.2 0 0.7-0.1 1.3 0 0.6-0.1 1.2 0 0.7 0 1.3 0 0.6 0 1.2 0.1 0.6 0.1 1.2 0.1 0.5 0.1 1.1 0.1 0.6 0.2 1.2 0.1 0.5 0.3 1.1 0.1 0.5 0.3 1 0.1 0.5 0.3 1 0.3 0.5 0.5 1 0.2 0.5 0.5 0.9 0.2 0.4 0.6 0.8 0.3 0.3 0.6 0.7 0.4 0.3 0.7 0.6 0.4 0.3 0.9 0.5 0.4 0.2 0.8 0.4 0.5 0.1 1 0.2 0.5 0.1 0.9 0z"/><path fill-rule="evenodd" class="d" d="m408.8 109.2q0 0.6 0 1.3-0.1 0.8-0.1 1.6 0 0.9-0.1 1.8 0 0.9-0.1 1.7l4.7-0.2v5.5h-13.8l-0.4-3.3h-0.1q-0.5 0.5-1.1 1.1-0.6 0.5-1.2 0.9-0.6 0.5-1.3 0.8-0.7 0.4-1.4 0.7-0.6 0.3-1.3 0.4-0.6 0.2-1.3 0.4-0.7 0.1-1.3 0.2-0.7 0-1.4 0-1.5 0.1-3-0.3-1.5-0.3-2.9-0.9-1.4-0.7-2.6-1.6-1.2-1-2.1-2.2-0.5-0.6-1-1.3-0.4-0.7-0.8-1.4-0.4-0.8-0.7-1.5-0.3-0.8-0.5-1.6-0.3-0.9-0.5-1.9-0.2-0.9-0.4-1.9-0.1-0.9-0.1-1.9-0.1-1-0.1-2 0-1 0.1-2 0-1.1 0.2-2.1 0.2-1 0.4-2 0.3-1 0.6-2 0.3-0.9 0.7-1.7 0.4-0.9 0.8-1.7 0.5-0.8 1-1.6 0.6-0.7 1.2-1.4 0.6-0.7 1.2-1.3 0.7-0.6 1.4-1.1 0.7-0.6 1.5-1 0.8-0.5 1.6-0.9 0.8-0.4 1.7-0.6 1-0.3 1.9-0.5 0.9-0.2 1.9-0.3 0.9-0.1 1.9-0.1 0.4 0 0.9 0 0.4 0 0.9 0.1 0.4 0.1 0.9 0.1 0.4 0.1 0.8 0.2 1.6 0.4 2.9 0.9v-4.8q0-0.5 0.1-1.3 0-0.7 0-1.6 0-0.8 0.1-1.8 0.1-0.9 0.1-1.7l-5.1 0.2v-5.5q0.6 0 1.1 0 0.6-0.1 1.1-0.1 0.6 0 1.1 0 0.6-0.1 1.2-0.1 0.4-0.1 0.8-0.1 0.4-0.1 0.8-0.2 0.4 0 0.9-0.1 0.4-0.1 0.8-0.2 0.3 0 0.5-0.1 0.3-0.1 0.6-0.2 0.3-0.1 0.5-0.2 0.3-0.1 0.6-0.2 0.1 0 0.3-0.1 0.2-0.1 0.3-0.2 0.2-0.1 0.3-0.2 0.2-0.1 0.3-0.2h4zm-16.4 6.2q0.5 0 0.9 0 0.5-0.1 0.9-0.2 0.5-0.1 0.9-0.3 0.4-0.2 0.8-0.4 0.4-0.3 0.7-0.5 0.4-0.3 0.7-0.6 0.3-0.3 0.6-0.7 0.3-0.3 0.5-0.7v-22q-0.2-0.1-0.5-0.2-0.2-0.2-0.5-0.3-0.3-0.1-0.6-0.2-0.2-0.1-0.5-0.2-0.4-0.1-0.8-0.2-0.3-0.1-0.7-0.1-0.4-0.1-0.8-0.1-0.3 0-0.7 0-0.6 0-1.1 0.1-0.6 0.1-1.1 0.2-0.5 0.2-1.1 0.4-0.5 0.2-0.9 0.6-0.4 0.3-0.8 0.6-0.4 0.4-0.7 0.8-0.4 0.4-0.7 0.8-0.3 0.4-0.5 0.9-0.2 0.5-0.5 1-0.2 0.6-0.4 1.1-0.1 0.6-0.3 1.2-0.1 0.5-0.2 1.1-0.1 0.6-0.2 1.2-0.1 0.7-0.1 1.3-0.1 0.6-0.1 1.2 0 0.7 0 1.3 0 0.6 0 1.2 0 0.6 0.1 1.2 0.1 0.5 0.1 1.1 0.1 0.6 0.2 1.2 0.1 0.5 0.2 1.1 0.2 0.5 0.4 1 0.1 0.5 0.3 1 0.2 0.5 0.5 1 0.2 0.5 0.5 0.9 0.2 0.4 0.5 0.8 0.4 0.3 0.7 0.7 0.3 0.3 0.7 0.6 0.4 0.3 0.8 0.5 0.5 0.2 0.9 0.4 0.5 0.1 1 0.2 0.4 0.1 0.9 0z"/><path class="d" d="m432.7 109.2q0 0.6 0 1.3-0.1 0.8-0.1 1.6 0 0.9-0.1 1.8 0 0.9-0.1 1.7l4.7-0.2v5.5h-19.1v-4.7q0.3 0 0.6 0 0.3 0 0.6-0.1 0.3 0 0.6-0.1 0.3-0.1 0.6-0.3 0.2-0.1 0.4-0.2 0.2-0.1 0.4-0.3 0.1-0.2 0.3-0.4 0.1-0.2 0.2-0.4 0.1-0.2 0.2-0.5 0.1-0.2 0.2-0.5 0-0.2 0.1-0.5 0-0.3 0-0.5 0.1-1.2 0.1-2.7v-12.1q0-1.3 0.1-3 0-1.7 0.2-3.4l-5.1 0.2v-5.4q0.6 0 1.1 0 0.6-0.1 1.1-0.1 0.6 0 1.1-0.1 0.6 0 1.2-0.1 0.4 0 0.8-0.1 0.4 0 0.8-0.1 0.4-0.1 0.9-0.1 0.4-0.1 0.8-0.2 0.3-0.1 0.5-0.1 0.3-0.1 0.6-0.2 0.3-0.1 0.5-0.2 0.3-0.1 0.6-0.2 0.1-0.1 0.3-0.2 0.2 0 0.3-0.1 0.2-0.1 0.3-0.2 0.2-0.1 0.3-0.3h4c0 0 0 25.5 0 25.5zm1-37.9q0 0.3 0 0.6 0 0.3-0.1 0.6 0 0.3-0.1 0.6 0 0.3-0.1 0.5-0.1 0.3-0.3 0.6-0.1 0.2-0.2 0.4-0.1 0.3-0.3 0.5-0.2 0.2-0.3 0.4-0.2 0.2-0.4 0.4-0.2 0.2-0.4 0.4-0.2 0.1-0.5 0.3-0.2 0.1-0.4 0.2-0.3 0.1-0.6 0.2-0.3 0.1-0.5 0.2-0.3 0-0.6 0.1-0.3 0-0.6 0-0.3 0-0.6 0-0.3-0.1-0.6-0.1-0.2-0.1-0.5-0.2-0.3-0.1-0.6-0.2-0.2-0.1-0.5-0.2-0.2-0.2-0.4-0.3-0.3-0.2-0.5-0.4-0.2-0.2-0.4-0.4-0.2-0.2-0.3-0.4-0.2-0.2-0.3-0.5-0.2-0.2-0.3-0.4-0.1-0.3-0.2-0.6-0.1-0.2-0.2-0.5-0.1-0.3-0.1-0.6-0.1-0.3-0.1-0.6-0.1-0.3 0-0.6 0-0.3 0-0.6 0-0.3 0.1-0.6 0-0.3 0.1-0.6 0.1-0.2 0.2-0.5 0.1-0.3 0.2-0.5 0.2-0.3 0.3-0.5 0.2-0.3 0.3-0.5 0.2-0.2 0.4-0.4 0.2-0.2 0.4-0.4 0.2-0.2 0.4-0.4 0.3-0.1 0.5-0.3 0.2-0.1 0.5-0.2 0.2-0.1 0.5-0.2 0.2-0.1 0.5-0.2 0.3 0 0.6-0.1 0.2 0 0.5 0 0.3 0 0.6 0 0.3 0.1 0.5 0.1 0.3 0.1 0.6 0.2 0.2 0.1 0.5 0.2 0.3 0.1 0.5 0.2 0.2 0.2 0.4 0.3 0.3 0.2 0.5 0.4 0.2 0.2 0.4 0.4 0.2 0.2 0.3 0.4 0.2 0.2 0.3 0.5 0.2 0.2 0.3 0.5 0.1 0.2 0.2 0.5 0.1 0.3 0.2 0.5 0.1 0.3 0.1 0.6 0.1 0.3 0.1 0.6 0 0.3 0 0.6z"/><path class="d" d="m479.5 109.2q0 0.6 0 1.3-0.1 0.8-0.1 1.6 0 0.9-0.1 1.8 0 0.9-0.1 1.7l4.7-0.2v5.5h-19.1v-4.7q0.3 0 0.6 0 0.3 0 0.6-0.1 0.3 0 0.6-0.1 0.3-0.1 0.6-0.3 0.2-0.1 0.4-0.2 0.2-0.1 0.4-0.3 0.1-0.2 0.3-0.4 0.1-0.2 0.2-0.4 0.1-0.2 0.2-0.5 0.1-0.2 0.2-0.5 0-0.2 0.1-0.5 0-0.2 0-0.5 0.1-1.2 0.2-2.7l-0.1-10.4q0-4.8-1.4-7-0.4-0.5-0.9-1-0.5-0.4-1.1-0.7-0.6-0.3-1.2-0.4-0.6-0.2-1.3-0.1-0.5 0-0.9 0-0.5 0.1-1 0.2-0.4 0.1-0.9 0.2-0.4 0.2-0.8 0.3-0.5 0.2-0.9 0.4-0.3 0.2-0.7 0.5-0.4 0.2-0.8 0.5-0.3 0.2-0.7 0.5v16.5q0 0.6 0 1.3 0 0.8 0 1.6-0.1 0.9-0.1 1.8-0.1 0.9-0.1 1.7l4.7-0.2v5.5h-19.1v-4.7q0.3 0 0.6 0 0.3 0 0.6-0.1 0.3 0 0.6-0.1 0.3-0.1 0.6-0.3 0.2-0.1 0.4-0.2 0.2-0.1 0.3-0.3 0.2-0.2 0.3-0.4 0.2-0.2 0.3-0.4 0.1-0.2 0.2-0.5 0.1-0.2 0.1-0.5 0.1-0.2 0.1-0.5 0.1-0.3 0.1-0.5 0.1-1.2 0.1-2.7v-12.3q0-1.3 0.1-2.9 0-1.6 0.2-3.3l-5.1 0.2v-5.4q0.5 0 1.1 0 0.5-0.1 1.1-0.1 0.6 0 1.1-0.1 0.6 0 1.1-0.1 0.4 0 0.9-0.1 0.4 0 0.8-0.1 0.4-0.1 0.8-0.1 0.4-0.1 0.8-0.2 0.3-0.1 0.6-0.1 0.3-0.1 0.6-0.2 0.2-0.1 0.5-0.2 0.3-0.1 0.6-0.2 0.1-0.1 0.3-0.2 0.1 0 0.3-0.1 0.2-0.1 0.3-0.2 0.1-0.1 0.3-0.3h3.6l0.3 3.6h0.1q0.3-0.2 0.6-0.4 0.3-0.2 0.6-0.4 0.3-0.2 0.6-0.4 0.3-0.1 0.7-0.3 0.3-0.2 0.6-0.4 0.4-0.2 0.7-0.3 0.4-0.2 0.7-0.3 0.4-0.2 0.8-0.3 0.3-0.2 0.7-0.3 0.3-0.1 0.7-0.2 0.3-0.1 0.7-0.2 0.3-0.1 0.7-0.2 0.3-0.1 0.6-0.1 0.3-0.1 0.6-0.1 0.3-0.1 0.6-0.1 0.3 0 0.6 0 0.8 0 1.5 0 0.7 0.1 1.4 0.2 0.7 0.1 1.4 0.3 0.7 0.2 1.4 0.4 0.6 0.3 1.1 0.5 0.5 0.3 1 0.7 0.5 0.4 0.9 0.8 0.5 0.4 0.8 0.9 0.4 0.6 0.8 1.2 0.3 0.6 0.6 1.2 0.2 0.7 0.4 1.3 0.3 0.7 0.4 1.3 0.2 0.9 0.3 1.8 0.1 1 0.2 1.9 0.1 0.9 0.1 1.8 0.1 0.9 0.1 1.8v9.8z"/><path fill-rule="evenodd" class="d" d="m523.6 85.9q-0.2 0-0.3-0.1-0.2 0-0.3 0-0.1 0-0.3-0.1-0.1 0-0.2-0.1-0.2 0-0.3-0.1-0.2-0.1-0.3-0.1-0.2-0.1-0.3-0.2-0.1-0.1-0.2-0.2-0.2-0.1-0.3-0.2-0.1-0.1-0.2-0.2-0.1-0.1-0.2-0.2-0.1-0.1-0.2-0.3-0.1-0.1-0.1-0.2-0.1-0.2-0.2-0.3 0-0.1-0.1-0.3 0-0.1 0-0.3-0.2 0.1-0.3 0.1-0.2 0.1-0.3 0.2-0.1 0.1-0.2 0.2-0.2 0.1-0.2 0.2-0.2 0.1-0.3 0.3-0.1 0.1-0.2 0.3-0.2 0.1-0.3 0.3-0.1 0.2-0.2 0.3-0.1 0.2-0.2 0.4 0 0.2-0.1 0.4-0.1 0.1-0.2 0.3-0.1 0.2-0.2 0.4 0 0.2-0.1 0.3-0.1 0.2-0.1 0.4-0.1 0.1-0.1 0.3 0 0.2-0.1 0.3 1.6 1.4 2.7 3.3 1 1.8 1.4 3.8 0.4 2.1 0.1 4.2-0.3 2.1-1.2 4-0.4 0.6-0.8 1.2-0.4 0.7-0.8 1.2-0.5 0.6-1 1.1-0.6 0.6-1.1 1-0.6 0.5-1.2 1-0.7 0.4-1.3 0.8-0.7 0.4-1.4 0.7-0.7 0.3-1.4 0.5-0.8 0.3-1.5 0.5-0.8 0.2-1.6 0.3-0.7 0.2-1.5 0.2-0.8 0.1-1.6 0.1-0.3 0-0.5 0-0.3 0-0.6 0-0.3 0-0.5-0.1-0.3 0-0.6 0-0.2 0-0.5-0.1-0.3 0-0.6 0-0.3 0-0.6 0-0.2 0-0.5 0-0.4-0.1-0.7 0-0.4 0-0.7 0.1-0.3 0.1-0.7 0.2-0.3 0.1-0.6 0.2-0.3 0.2-0.5 0.3-0.2 0.2-0.3 0.4-0.1 0.2-0.2 0.5-0.1 0.2-0.1 0.5 0 0.1 0 0.3 0.1 0.1 0.1 0.3 0.1 0.1 0.2 0.3 0.1 0.1 0.2 0.2 0.2 0.1 0.4 0.3 0.1 0.1 0.3 0.2 0.2 0.1 0.5 0.1 0.2 0.1 0.4 0.2 0.3 0 0.7 0.1 0.4 0.1 0.7 0.1 0.4 0.1 0.7 0.2 0.4 0 0.8 0 1.8 0.2 4.3 0.4 1 0 1.9 0.1 1 0.1 2 0.2 0.9 0.1 1.9 0.3 0.9 0.1 1.9 0.3 0.7 0.1 1.5 0.3 0.7 0.2 1.5 0.5 0.7 0.2 1.4 0.5 0.8 0.3 1.5 0.7 0.5 0.3 1.1 0.6 0.5 0.4 1 0.8 0.5 0.5 0.9 1 0.4 0.5 0.8 1 0.3 0.6 0.6 1.2 0.2 0.7 0.4 1.4 0.2 0.6 0.3 1.3 0 0.7 0 1.4 0 0.5 0 1-0.1 0.5-0.2 1-0.1 0.4-0.3 0.9-0.1 0.5-0.3 0.9-0.3 0.5-0.5 0.9-0.3 0.4-0.6 0.8-0.3 0.4-0.6 0.8-0.3 0.4-0.7 0.7-0.4 0.4-0.8 0.7-0.4 0.4-0.8 0.7-0.5 0.3-0.9 0.6-0.5 0.3-1 0.5-0.5 0.3-1 0.6-0.5 0.2-1.1 0.4-0.5 0.3-1.1 0.5-0.5 0.2-1.1 0.3-0.5 0.2-1.1 0.4-0.6 0.2-1.2 0.3-0.6 0.1-1.2 0.2-0.6 0.2-1.2 0.2-0.6 0.1-1.2 0.2-0.6 0.1-1.3 0.1-0.6 0.1-1.2 0.1-0.6 0-1.2 0-1 0-2 0-1 0-2-0.1-1-0.1-2-0.3-1-0.2-1.9-0.4-0.7-0.1-1.4-0.3-0.7-0.3-1.3-0.5-0.6-0.3-1.3-0.6-0.6-0.3-1.2-0.7-0.4-0.3-0.8-0.6-0.4-0.4-0.7-0.8-0.4-0.4-0.7-0.8-0.3-0.4-0.5-0.9-0.2-0.4-0.4-0.8-0.1-0.5-0.2-0.9-0.1-0.5-0.2-0.9 0-0.5 0-0.9 0-0.3 0-0.6 0-0.3 0-0.6 0.1-0.3 0.1-0.6 0.1-0.3 0.2-0.6 0.1-0.3 0.2-0.6 0.1-0.2 0.3-0.5 0.1-0.3 0.3-0.6 0.1-0.3 0.3-0.5 0.3-0.3 0.5-0.6 0.3-0.3 0.5-0.5 0.3-0.3 0.6-0.5 0.3-0.3 0.6-0.5 0.3-0.3 0.7-0.5 0.4-0.2 0.8-0.5 0.5-0.2 0.9-0.4 0.4-0.2 0.9-0.3-0.4-0.1-0.7-0.2-0.3-0.1-0.6-0.3-0.4-0.1-0.7-0.3-0.3-0.1-0.6-0.3-0.2-0.2-0.4-0.3-0.3-0.2-0.5-0.4-0.2-0.2-0.4-0.4-0.2-0.2-0.3-0.4-0.2-0.2-0.3-0.4-0.2-0.3-0.3-0.5-0.1-0.2-0.2-0.5-0.1-0.2-0.2-0.4 0-0.3-0.1-0.5 0-0.3-0.1-0.5 0-0.3 0-0.5-0.1-0.3-0.1-0.6 0-0.2 0.1-0.5 0-0.2 0-0.5 0.1-0.2 0.2-0.5 0-0.2 0.1-0.5 0.1-0.3 0.2-0.6 0.2-0.3 0.3-0.5 0.2-0.3 0.3-0.6 0.2-0.2 0.4-0.5 0.2-0.3 0.5-0.6 0.2-0.2 0.5-0.5 0.3-0.3 0.6-0.5 0.3-0.2 0.6-0.4 0.4-0.3 0.8-0.5 0.4-0.3 0.8-0.5 0.4-0.1 0.9-0.3 0.4-0.2 0.9-0.3v-0.1q-0.4-0.1-0.8-0.3-0.4-0.2-0.8-0.4-0.3-0.2-0.7-0.4-0.3-0.2-0.7-0.5-0.3-0.2-0.6-0.5-0.3-0.3-0.6-0.5-0.3-0.3-0.5-0.7-0.3-0.3-0.5-0.6-0.3-0.4-0.5-0.7-0.2-0.4-0.4-0.8-0.2-0.4-0.3-0.7-0.2-0.4-0.3-0.8-0.1-0.5-0.2-0.9-0.1-0.5-0.2-0.9-0.1-0.5-0.1-1 0-0.4 0-0.9 0-0.7 0-1.5 0.1-0.8 0.3-1.5 0.2-0.7 0.4-1.5 0.3-0.7 0.6-1.4 0.4-0.6 0.8-1.2 0.4-0.7 0.8-1.2 0.5-0.6 1-1.1 0.5-0.6 1.1-1 0.6-0.5 1.2-1 0.6-0.4 1.3-0.8 0.6-0.3 1.3-0.7 0.7-0.3 1.4-0.5 0.7-0.3 1.5-0.5 0.7-0.2 1.5-0.3 0.7-0.2 1.5-0.2 0.7-0.1 1.5-0.1 0.3 0 0.5 0 0.3 0 0.6 0 0.2 0 0.5 0.1 0.3 0 0.5 0 0.3 0.1 0.6 0.1 0.3 0 0.6 0.1 0.3 0 0.6 0.1 0.2 0.1 0.5 0.1 0.3 0.1 0.6 0.2 0.3 0 0.6 0.1 0.3 0.1 0.6 0.2 0.2 0.1 0.5 0.2 0.3 0.1 0.5 0.2 0.3 0.1 0.6 0.3 0.2 0.1 0.5 0.3 0.2 0.1 0.4 0.3 0.2-0.4 0.4-0.9 0.1-0.4 0.3-0.8 0.2-0.4 0.4-0.8 0.2-0.4 0.4-0.8 0.2-0.4 0.4-0.7 0.3-0.4 0.5-0.8 0.3-0.3 0.5-0.7 0.3-0.3 0.6-0.6 0.3-0.3 0.6-0.6 0.3-0.3 0.6-0.5 0.4-0.3 0.7-0.5 0.3-0.2 0.7-0.4 0.4-0.2 0.8-0.3 0.4-0.2 0.8-0.3 0.4-0.1 0.8-0.1 0.4-0.1 0.8-0.1 0.5 0 1 0.1 0.5 0 1 0.2 0.5 0.2 0.9 0.4 0.5 0.3 0.9 0.6 0.3 0.4 0.5 0.8 0.3 0.4 0.5 0.8 0.1 0.4 0.2 0.9 0.1 0.5 0.1 0.9 0 0.2-0.1 0.4 0 0.2 0 0.4 0 0.2-0.1 0.3 0 0.2 0 0.4-0.2 0.4-0.4 0.8-0.2 0.4-0.4 0.7-0.3 0.3-0.6 0.6-0.4 0.2-0.8 0.4-0.2 0.1-0.5 0.2-0.2 0.1-0.5 0.2-0.3 0-0.6 0-0.2 0.1-0.5 0.1zm-17.5 39.1q-0.8 0-1.8-0.1-1 0-1.9-0.1-1 0-2-0.1-0.9-0.1-1.7-0.3-0.3 0.3-0.6 0.5-0.3 0.3-0.5 0.6-0.2 0.3-0.4 0.6-0.2 0.3-0.3 0.7-0.1 0.3-0.2 0.6-0.2 0.4-0.2 0.7-0.1 0.4-0.1 0.7-0.1 0.3-0.1 0.7 0 0.3 0.1 0.7 0 0.3 0.1 0.6 0.1 0.3 0.2 0.7 0.1 0.3 0.3 0.6 0.2 0.3 0.4 0.5 0.2 0.3 0.5 0.5 0.2 0.3 0.5 0.5 0.3 0.2 0.6 0.4 0.3 0.2 0.7 0.4 0.4 0.2 0.8 0.3 0.3 0.2 0.7 0.3 0.4 0.1 0.8 0.2 1.1 0.3 2.2 0.4 1.1 0.1 2.1 0.1 1.1-0.1 2.2-0.2 1.1-0.1 2.1-0.4 0.5-0.1 0.9-0.2 0.4-0.2 0.8-0.3 0.4-0.2 0.8-0.4 0.4-0.2 0.8-0.4 0.3-0.2 0.6-0.4 0.3-0.2 0.5-0.5 0.3-0.2 0.5-0.5 0.2-0.2 0.4-0.5 0.2-0.2 0.3-0.5 0.1-0.2 0.2-0.5 0.1-0.3 0.2-0.5 0-0.3 0-0.6 0-2.2-2.5-3.4-1-0.3-2-0.6-1-0.3-2-0.4-1-0.2-2-0.3-1-0.1-2-0.1zm-1.1-36.8q-0.3 0-0.7 0-0.3 0.1-0.6 0.2-0.4 0.1-0.7 0.2-0.3 0.1-0.6 0.3-0.3 0.2-0.5 0.4-0.3 0.2-0.5 0.5-0.3 0.2-0.5 0.5-0.2 0.2-0.4 0.5-0.2 0.3-0.4 0.7-0.2 0.3-0.3 0.7-0.2 0.3-0.3 0.7-0.1 0.3-0.2 0.7-0.1 0.4-0.2 0.8-0.1 0.4-0.1 0.8-0.1 0.4-0.1 0.8 0 0.4 0 0.8 0 0.5 0 1 0 0.4 0.1 0.9 0 0.5 0.1 0.9 0.1 0.5 0.2 0.9 0.1 0.4 0.2 0.8 0.1 0.5 0.3 0.8 0.1 0.4 0.3 0.8 0.2 0.4 0.4 0.8 0.2 0.3 0.4 0.6 0.2 0.3 0.4 0.6 0.3 0.3 0.6 0.5 0.2 0.3 0.6 0.5 0.2 0.2 0.6 0.3 0.3 0.2 0.6 0.3 0.4 0.1 0.7 0.1 0.4 0.1 0.7 0.1 0.4 0 0.7 0 0.3-0.1 0.7-0.2 0.3-0.1 0.6-0.2 0.3-0.1 0.6-0.3 0.3-0.2 0.6-0.4 0.2-0.2 0.5-0.5 0.2-0.2 0.4-0.5 0.2-0.2 0.4-0.5 0.2-0.3 0.4-0.6 0.1-0.4 0.3-0.7 0.1-0.3 0.2-0.7 0.2-0.3 0.3-0.7 0-0.3 0.1-0.7 0.1-0.4 0.1-0.7 0.1-0.4 0.1-0.8 0-0.4 0-0.7 0-0.5 0-1 0-0.5 0-0.9-0.1-0.5-0.2-1 0-0.4-0.1-0.9-0.1-0.4-0.2-0.8-0.1-0.5-0.3-0.9-0.1-0.4-0.3-0.8-0.2-0.4-0.4-0.8-0.1-0.3-0.4-0.6-0.2-0.3-0.4-0.6-0.2-0.3-0.5-0.6-0.3-0.3-0.6-0.5-0.3-0.2-0.6-0.4-0.3-0.2-0.7-0.3-0.3-0.1-0.7-0.1-0.3-0.1-0.7-0.1z"/><path fill-rule="evenodd" class="d" d="m529.6 69.9l21.2-0.1q1.1 0 2.2 0 1.1 0.1 2.2 0.2 1.1 0.1 2.2 0.3 1.1 0.2 2.2 0.5 0.9 0.2 1.8 0.5 0.9 0.3 1.8 0.6 0.8 0.4 1.7 0.8 0.9 0.4 1.7 0.9 0.7 0.4 1.4 0.9 0.8 0.5 1.4 1 0.7 0.5 1.3 1.1 0.7 0.6 1.3 1.2 1.1 1.1 2 2.4 0.9 1.3 1.7 2.7 0.8 1.4 1.3 2.9 0.6 1.5 1 3 0.2 0.8 0.3 1.5 0.1 0.8 0.2 1.6 0.1 0.7 0.2 1.5 0 0.7 0 1.5 0 0.8 0 1.5-0.1 0.8-0.2 1.5-0.1 0.8-0.2 1.6-0.1 0.7-0.3 1.4-0.1 0.8-0.4 1.6-0.2 0.8-0.4 1.5-0.3 0.8-0.6 1.5-0.3 0.7-0.7 1.4-0.4 0.8-0.8 1.5-0.4 0.7-0.9 1.4-0.4 0.7-0.9 1.3-0.5 0.7-1.1 1.3-0.6 0.6-1.2 1.2-0.6 0.6-1.3 1.2-0.7 0.6-1.4 1.1-0.7 0.5-1.5 0.9-0.8 0.5-1.7 1-0.9 0.4-1.8 0.8-0.9 0.4-1.8 0.7-0.9 0.3-1.9 0.5-1.1 0.3-2.2 0.5-1.2 0.3-2.3 0.4-1.2 0.1-2.3 0.2-1.2 0.1-2.3 0h-20.9v-4.8q0.2 0 0.5 0 0.3 0 0.6-0.1 0.2 0 0.5 0 0.3-0.1 0.5-0.1 0.3-0.1 0.5-0.1 0.2-0.1 0.4-0.2 0.2-0.1 0.4-0.2 0.2-0.1 0.4-0.3 0.2-0.2 0.3-0.4 0.2-0.2 0.3-0.5 0.1-0.2 0.2-0.4 0.1-0.3 0.2-0.6 0.1-0.4 0.2-0.8 0.1-0.4 0.1-0.9 0-0.4 0.1-0.8 0-0.5 0-0.9v-28q0-1 0-1.9 0-1 0-1.9 0.1-0.8 0.1-1.5 0.1-0.8 0.1-1.2l-5.4 0.2zm21.1 4.8q-0.3 0-0.6 0-0.3 0-0.6 0-0.3 0-0.6 0.1-0.3 0-0.6 0-0.2 0.1-0.4 0.1-0.3 0.1-0.5 0.2-0.2 0.1-0.4 0.3-0.2 0.1-0.4 0.3-0.1 0.2-0.3 0.4-0.2 0.2-0.3 0.4-0.1 0.3-0.2 0.5-0.1 0.3-0.2 0.5-0.1 0.5-0.1 0.9-0.1 0.4-0.1 0.8-0.1 0.4-0.1 0.9 0 0.4 0 0.8v28.1q0 1 0 2 0 0.9-0.1 1.8 0 0.9-0.1 1.6 0 0.7-0.1 1.1 0.6 0 1.5 0 0.9 0 1.9 0 1 0.1 2 0.1 1 0 1.6 0 0.9 0 1.8 0 0.9-0.1 1.7-0.3 0.9-0.3 1.7-0.6 0.9-0.3 1.7-0.7 0.7-0.4 1.3-0.9 0.7-0.4 1.3-1 0.6-0.5 1.1-1.1 0.5-0.6 1-1.3 0.5-0.7 0.9-1.5 0.4-0.7 0.7-1.5 0.4-0.7 0.6-1.5 0.3-0.8 0.5-1.7 0.2-0.8 0.4-1.7 0.2-0.9 0.3-1.8 0.1-0.9 0.2-1.8 0-0.8 0-1.7 0-1.3 0-2.5-0.1-1.2-0.2-2.4-0.2-1.2-0.4-2.4-0.2-1.2-0.5-2.4-0.3-0.9-0.6-1.8-0.3-0.9-0.8-1.7-0.4-0.9-0.9-1.7-0.5-0.8-1.1-1.5-0.5-0.6-1.1-1.2-0.6-0.6-1.2-1.1-0.7-0.5-1.4-0.9-0.7-0.4-1.5-0.8-0.8-0.3-1.6-0.6-0.9-0.2-1.7-0.4-0.9-0.2-1.8-0.3-0.8-0.1-1.7-0.1z"/><path class="d" d="m598.9 109.2q0 0.6 0 1.3 0 0.8 0 1.6-0.1 0.9-0.1 1.8-0.1 0.9-0.1 1.7l4.7-0.2v5.5h-19.1v-4.7q0.3 0 0.6 0 0.3 0 0.6-0.1 0.3 0 0.6-0.1 0.3-0.1 0.6-0.3 0.2-0.1 0.4-0.2 0.2-0.1 0.3-0.3 0.2-0.2 0.3-0.4 0.2-0.2 0.3-0.4 0.1-0.2 0.2-0.5 0.1-0.2 0.1-0.5 0.1-0.2 0.1-0.5 0.1-0.3 0.1-0.5 0.1-1.2 0.1-2.7v-12.1q0-1.3 0.1-3 0-1.7 0.2-3.4l-5.1 0.2v-5.4q0.5 0 1.1 0 0.5-0.1 1.1-0.1 0.6 0 1.1-0.1 0.6 0 1.1-0.1 0.4 0 0.9-0.1 0.4 0 0.8-0.1 0.4-0.1 0.8-0.1 0.4-0.1 0.8-0.2 0.3-0.1 0.6-0.1 0.3-0.1 0.6-0.2 0.2-0.1 0.5-0.2 0.3-0.1 0.6-0.2 0.1-0.1 0.3-0.2 0.1 0 0.3-0.1 0.1-0.1 0.3-0.2 0.1-0.1 0.3-0.3h3.9v25.5zm1.1-37.9q0 0.3 0 0.6 0 0.3-0.1 0.6 0 0.3-0.1 0.6-0.1 0.3-0.2 0.5-0.1 0.3-0.2 0.6-0.1 0.2-0.2 0.4-0.2 0.3-0.3 0.5-0.2 0.2-0.4 0.4-0.2 0.2-0.3 0.4-0.2 0.2-0.5 0.4-0.2 0.1-0.4 0.3-0.2 0.1-0.5 0.2-0.3 0.1-0.5 0.2-0.3 0.1-0.6 0.2-0.3 0-0.5 0.1-0.3 0-0.6 0-0.3 0-0.6 0-0.3-0.1-0.6-0.1-0.3-0.1-0.6-0.2-0.2-0.1-0.5-0.2-0.3-0.1-0.5-0.2-0.3-0.2-0.5-0.3-0.2-0.2-0.4-0.4-0.2-0.2-0.4-0.4-0.2-0.2-0.4-0.4-0.1-0.2-0.3-0.5-0.1-0.2-0.3-0.4-0.1-0.3-0.2-0.6-0.1-0.2-0.2-0.5 0-0.3-0.1-0.6 0-0.3-0.1-0.6 0-0.3 0-0.6 0-0.3 0-0.6 0.1-0.3 0.1-0.6 0.1-0.3 0.2-0.6 0-0.2 0.2-0.5 0.1-0.3 0.2-0.5 0.1-0.3 0.3-0.5 0.1-0.3 0.3-0.5 0.2-0.2 0.4-0.4 0.2-0.2 0.4-0.4 0.2-0.2 0.4-0.4 0.2-0.1 0.4-0.3 0.3-0.1 0.5-0.2 0.3-0.1 0.5-0.2 0.3-0.1 0.6-0.2 0.2 0 0.5-0.1 0.3 0 0.6 0 0.3 0 0.5 0 0.3 0.1 0.6 0.1 0.3 0.1 0.5 0.2 0.3 0.1 0.6 0.2 0.2 0.1 0.4 0.2 0.3 0.2 0.5 0.3 0.2 0.2 0.4 0.4 0.2 0.2 0.4 0.4 0.2 0.2 0.4 0.4 0.1 0.2 0.3 0.5 0.1 0.2 0.3 0.5 0.1 0.2 0.2 0.5 0.1 0.3 0.2 0.5 0 0.3 0.1 0.6 0.1 0.3 0.1 0.6 0 0.3 0 0.6z"/><path class="d" d="m633.4 83.3q0.3 0 0.6 0 0.3 0 0.6 0.1 0.3 0 0.6 0.1 0.3 0.1 0.6 0.2 0.3 0 0.6 0.2 0.2 0.1 0.5 0.2 0.2 0.1 0.5 0.3 0.2 0.2 0.5 0.3 0.2 0.2 0.4 0.5 0.2 0.2 0.4 0.4 0.1 0.2 0.3 0.5 0.1 0.2 0.2 0.5 0.2 0.3 0.3 0.7 0.1 0.3 0.1 0.7 0.1 0.3 0.1 0.7 0.1 0.3 0.1 0.7 0 0.2-0.1 0.4 0 0.2 0 0.4-0.1 0.3-0.1 0.5-0.1 0.2-0.1 0.4-0.1 0.2-0.2 0.5-0.1 0.2-0.2 0.4-0.1 0.2-0.2 0.4-0.2 0.2-0.3 0.4-0.2 0.2-0.4 0.3-0.1 0.2-0.3 0.4-0.2 0.1-0.5 0.3-0.2 0.1-0.4 0.2-0.3 0.1-0.6 0.2-0.3 0.1-0.6 0.2-0.3 0-0.6 0.1-0.3 0-0.6 0-0.2 0-0.4 0-0.1 0-0.3-0.1-0.2 0-0.4 0-0.2-0.1-0.4-0.1-0.4-0.1-0.8-0.3-0.4-0.2-0.7-0.4-0.3-0.3-0.6-0.6-0.3-0.3-0.5-0.7-0.1-0.2-0.2-0.5-0.1-0.2-0.2-0.5-0.1-0.3-0.1-0.5-0.1-0.3-0.1-0.6-0.3 0-0.6 0.1-0.3 0-0.5 0.1-0.3 0.1-0.6 0.2-0.3 0.2-0.5 0.3-0.3 0.2-0.6 0.4-0.2 0.2-0.5 0.5-0.3 0.2-0.5 0.5-0.3 0.2-0.5 0.5-0.2 0.2-0.5 0.5-0.2 0.3-0.4 0.6-0.2 0.3-0.4 0.6-0.2 0.3-0.4 0.6-0.2 0.3-0.3 0.5-0.2 0.3-0.3 0.6-0.2 0.3-0.3 0.5-0.1 0.3-0.2 0.6v11.9q0 0.6 0 1.3 0 0.8-0.1 1.6 0 0.9-0.1 1.8 0 0.9-0.1 1.7l4.8-0.2v5.5h-19.2v-4.7q0.3 0 0.6 0 0.4 0 0.7-0.1 0.3 0 0.6-0.1 0.3-0.1 0.5-0.3 0.2-0.1 0.4-0.2 0.2-0.1 0.4-0.3 0.2-0.2 0.3-0.4 0.1-0.2 0.2-0.4 0.1-0.2 0.2-0.5 0.1-0.2 0.2-0.5 0.1-0.2 0.1-0.5 0-0.3 0.1-0.5 0.1-1.2 0.1-2.7v-12.3q0-1.3 0-2.9 0.1-1.6 0.3-3.3l-5.2 0.2v-5.4q0.6 0 1.1 0 0.6-0.1 1.2-0.1 0.5 0 1.1-0.1 0.5 0 1.1-0.1 0.4 0 0.8-0.1 0.4 0 0.9-0.1 0.4-0.1 0.8-0.1 0.4-0.1 0.8-0.2 0.3-0.1 0.6-0.1 0.2-0.1 0.5-0.2 0.3-0.1 0.6-0.2 0.2-0.1 0.5-0.2 0.2-0.1 0.3-0.2 0.2 0 0.4-0.1 0.1-0.1 0.3-0.2 0.1-0.1 0.2-0.3h3.6l0.4 6.3h0.1q0.7-0.9 1.7-2.1 0.3-0.3 0.5-0.6 0.3-0.3 0.6-0.6 0.3-0.3 0.6-0.5 0.3-0.3 0.7-0.5 0.3-0.3 0.6-0.5 0.4-0.2 0.8-0.5 0.3-0.2 0.7-0.4 0.4-0.2 0.8-0.3 0.4-0.2 0.8-0.3 0.5-0.2 0.9-0.2 0.4-0.1 0.9-0.2 0.4 0 0.9 0z"/></svg>