<?xml version="1.0" encoding="utf-8"?>
<!-- Generator: Adobe Illustrator 25.0.0, SVG Export Plug-In . SVG Version: 6.00 Build 0)  -->
<svg version="1.1" id="Layer_1" xmlns="http://www.w3.org/2000/svg" xmlns:xlink="http://www.w3.org/1999/xlink" x="0px" y="0px"
	 viewBox="0 0 80 80" style="enable-background:new 0 0 80 80;" xml:space="preserve" width="80px" height="80px">
<style type="text/css">
	.st0{fill:#00AEAF;}
	.st1{fill:#FFFFFF;}
	.st2{display:none;}
	.st3{display:inline;fill:#00AEAF;}
	.st4{display:inline;fill:#FFFFFF;}
	.st5{display:inline;}
	.st6{fill-rule:evenodd;clip-rule:evenodd;fill:#00AEAF;}
</style>
<g id="Layer_1_1_">
	<g>
		<g>
			<path class="st0" d="M39.1,2C23.9,2,11.5,14.4,11.5,29.6c0,18.9,24.7,46.7,25.7,47.9c0.9,1.1,2.7,1.1,3.7,0
				c1.1-1.2,25.7-28.9,25.7-47.9C66.7,14.4,54.3,2,39.1,2z"/>
		</g>
	</g>
</g>
<g id="Layer_2_1_">
	<circle class="st1" cx="39.1" cy="29.1" r="22.7"/>
</g>
<g id="Layer_3" class="st2">
	<path class="st3" d="M53.5,38.5v-0.8c0-0.7-0.5-1.1-1.1-1.1h-0.1v-14c0-2.3-0.9-4.5-2.4-6.3c-1.5-1.6-3.5-2.7-5.6-2.9
		c-0.1-1.3-1.3-2.4-2.7-2.4l0,0c-0.7,0-1.3,0.3-1.9,0.7c-0.5-0.4-1.1-0.7-1.9-0.7l0,0c-1.3,0-2.5,1.1-2.7,2.4
		c-2.1,0.3-4.1,1.3-5.6,2.9c-1.6,1.7-2.4,4-2.4,6.3v14.3c-0.5,0-1.1,0.5-1.1,1.1v0.5c-0.5,0-1.1,0.5-1.1,1.1v1.1
		c0,0.3,0.1,0.4,0.4,0.4h6.1c0.3,0,0.4-0.1,0.4-0.4v-1.1c0-0.5-0.4-1.1-1.1-1.1V38c0-0.5-0.4-1.1-1.1-1.1V22.7
		c0-3.5,2.7-6.3,6.1-6.4c0.4,0.4,0.8,0.9,1.3,1.3c1.1,0.8,2.1,1.2,2.1,1.2h0.1h0.1c0,0,1.1-0.4,2.1-1.2c0.5-0.4,1.1-0.8,1.3-1.3
		c3.3,0.1,6.1,2.9,6.1,6.4v13.9h0c-0.7,0-1.1,0.5-1.1,1.1v0.8c-0.4,0.1-0.8,0.5-0.8,1.1v1.1c0,0.3,0.1,0.4,0.4,0.4H54
		c0.3,0,0.4-0.1,0.4-0.4v-1.1C54.3,39.2,54,38.7,53.5,38.5z"/>
	<path class="st4" d="M30.8,39.3c0.1,0,0.3,0.1,0.3,0.3v0.5h-5.2v-0.5c0-0.1,0.1-0.3,0.3-0.3H30.8z"/>
	<path class="st4" d="M30,38v0.5h-3.1V38c0-0.1,0.1-0.1,0.1-0.1h2.8C29.9,37.9,30,37.9,30,38z"/>
	<path class="st4" d="M31.1,17.6c-1.3,1.3-2.1,3.2-2.1,5.1v14.3h-1.1V22.7c0-2.1,0.8-4.1,2.3-5.6c1.3-1.5,3.1-2.4,4.9-2.7
		c0,0.4,0.1,0.7,0.3,1.1C33.7,15.7,32.3,16.4,31.1,17.6z"/>
	<path class="st4" d="M43.3,14L43.3,14C43.3,14.1,43.2,14.1,43.3,14C43.2,14.1,43.2,14.1,43.3,14c0,0.1,0,0.1,0,0.3l0,0
		c0,0.4-0.3,0.9-0.5,1.3l0,0c-0.9,1.3-2.5,2.1-3.1,2.3c-0.3-0.1-1.1-0.5-1.7-1.1c-0.5-0.4-0.9-0.8-1.3-1.2l0,0
		c-0.4-0.5-0.5-1.1-0.5-1.7l0,0l0,0c0-1.1,0.8-1.9,1.9-1.9l0,0c0.5,0,1.1,0.3,1.5,0.7c0.1,0.1,0.3,0.1,0.4,0.1s0.3,0,0.4-0.1
		c0.4-0.4,0.9-0.7,1.5-0.7l0,0C42.4,12.1,43.3,13.1,43.3,14L43.3,14z"/>
	<path class="st4" d="M48.1,17.6c-1.2-1.2-2.7-1.9-4.4-2.1c0.1-0.4,0.3-0.7,0.3-1.1c1.9,0.3,3.6,1.2,4.9,2.7
		c1.5,1.6,2.3,3.6,2.3,5.6v13.9h-0.9V22.7C50.3,20.8,49.5,18.9,48.1,17.6z"/>
	<path class="st4" d="M48.9,37.9c0-0.1,0.1-0.3,0.3-0.3h3.2c0.1,0,0.3,0.1,0.3,0.3v0.8h-3.7L48.9,37.9L48.9,37.9z"/>
	<path class="st4" d="M53.3,40.3h-5.2v-0.5c0-0.1,0.1-0.3,0.3-0.3h4.7c0.1,0,0.3,0.1,0.3,0.3V40.3z"/>
	<path class="st3" d="M44.1,30.1h-8.9c-0.9,0-1.6,0.8-1.6,1.6c0,0.9,0.8,1.6,1.6,1.6c0.1,0,0.3,0,0.3,0c0.1,0.7,0.8,1.1,1.3,1.1h0.4
		v6.3c0,0.3,0.1,0.4,0.4,0.4h3.9c0.3,0,0.4-0.1,0.4-0.4v-6.3h0.4c0.7,0,1.2-0.4,1.3-1.1c0.1,0,0.3,0,0.3,0c0.9,0,1.6-0.8,1.6-1.6
		C45.7,30.8,45.1,30.1,44.1,30.1z"/>
	<rect x="38" y="34.5" class="st4" width="3.1" height="5.7"/>
	<path class="st4" d="M42.4,33.6h-5.6c-0.3,0-0.5-0.3-0.5-0.5l0,0c0.1-0.1,0.1-0.1,0.3-0.3h6.3c0.1,0.1,0.1,0.3,0.3,0.3l0,0l0,0
		C42.9,33.3,42.7,33.6,42.4,33.6z"/>
	<path class="st4" d="M44.1,32.5c-0.1,0-0.3,0-0.4-0.1l0,0c-0.1,0-0.1-0.1-0.3-0.3l0,0l0,0l0,0l0,0c0-0.1-0.1-0.3-0.4-0.3l0,0h-6.8
		l0,0c-0.1,0-0.3,0.1-0.4,0.3l0,0l0,0l0,0l0,0c0,0.1-0.1,0.1-0.3,0.3l0,0c-0.1,0.1-0.3,0.1-0.4,0.1c-0.4,0-0.8-0.4-0.8-0.8
		c0-0.4,0.4-0.8,0.8-0.8h8.9c0.4,0,0.8,0.4,0.8,0.8S44.5,32.5,44.1,32.5z"/>
</g>
<g id="Layer_4" class="st2">
	<g class="st5">
		<g>
			<path class="st0" d="M37.3,34.4c0-0.3-0.3-0.5-0.5-0.4c-0.3,0-0.5,0.3-0.4,0.5l0.3,6.8c0,0.3,0.3,0.4,0.5,0.4l0,0
				c0.3,0,0.5-0.3,0.4-0.5L37.3,34.4z"/>
		</g>
	</g>
	<g class="st5">
		<g>
			<path class="st0" d="M41.3,34c-0.3,0-0.5,0.1-0.5,0.4l-0.3,6.8c0,0.3,0.1,0.5,0.4,0.5l0,0c0.3,0,0.5-0.3,0.5-0.4l0.3-6.8
				C41.9,34.3,41.6,34,41.3,34z"/>
		</g>
	</g>
	<g class="st5">
		<g>
			<path class="st0" d="M33.7,41.2l-0.5-3.7c0-0.3-0.3-0.4-0.5-0.4s-0.4,0.3-0.4,0.5l0.5,3.7c0,0.3,0.3,0.4,0.5,0.4c0,0,0,0,0.1,0
				C33.6,41.7,33.7,41.5,33.7,41.2z"/>
		</g>
	</g>
	<g class="st5">
		<g>
			<path class="st0" d="M32.9,35.3l-0.1-0.8c0-0.3-0.3-0.4-0.5-0.4c-0.3,0-0.4,0.3-0.4,0.5l0.1,0.8c0,0.3,0.3,0.4,0.5,0.4
				c0,0,0,0,0.1,0C32.8,35.9,32.9,35.6,32.9,35.3z"/>
		</g>
	</g>
	<g class="st5">
		<g>
			<path class="st0" d="M45.1,40c-0.3,0-0.5,0.1-0.5,0.4l-0.1,0.8c0,0.3,0.1,0.5,0.4,0.5c0,0,0,0,0.1,0c0.3,0,0.4-0.1,0.5-0.4
				l0.1-0.8C45.5,40.3,45.3,40.1,45.1,40z"/>
		</g>
	</g>
	<g class="st5">
		<g>
			<path class="st0" d="M46,34.1c-0.3,0-0.5,0.1-0.5,0.4l-0.5,3.7c0,0.3,0.1,0.5,0.4,0.5c0,0,0,0,0.1,0c0.3,0,0.4-0.1,0.5-0.4
				l0.5-3.7C46.4,34.4,46.3,34.1,46,34.1z"/>
		</g>
	</g>
	<g class="st5">
		<g>
			<path class="st0" d="M52.7,28.9h-0.5c0-0.4-0.1-0.9-0.3-1.3c-0.1-0.4-0.4-0.8-0.5-1.1V24c0-6.8-5.5-12.3-12.3-12.3
				S26.8,17.2,26.8,24v2.5c0,0,0,0,0,0.1c-0.3,0.3-0.4,0.7-0.5,1.1S26,28.7,26,29.1h-0.5c-0.8,0-1.6,0.7-1.6,1.6
				c0,0.8,0.7,1.6,1.6,1.6h0.4l3.1,10.1c0.4,1.3,1.6,2.3,3.1,2.3h14.3c1.5,0,2.7-0.9,3.1-2.3l3.1-10.1h0.4c0.8,0,1.6-0.7,1.6-1.6
				C54.3,29.7,53.6,28.9,52.7,28.9z M50.7,27.2c0.1,0.3,0.3,0.5,0.4,0.8c0.1,0.4,0.1,0.7,0.1,1.1h-2.9c-0.3-0.9-1.1-1.6-2-1.6
				s-1.7,0.7-2,1.6h-2.8c0-0.3,0-0.7,0.1-1.1c0.1-0.5,0.5-0.9,0.8-1.2c0.1,0,0.1-0.1,0.3-0.1l0,0c0.1,0,0.3-0.1,0.4,0l0,0l0,0l0,0
				c0,0,0.1,0.1,0.4,0.3c0.1,0.1,0.4,0.1,0.5,0c0.1-0.1,0.3-0.4,0.1-0.5C44,26.1,44,26,44,25.9v-0.1c0.1-0.1,0.1-0.3,0.3-0.4
				c0.3-0.3,0.9-0.5,1.6-0.5c0.5,0,1.1,0.1,1.5,0.4c0.3,0.3,0.5,0.4,0.5,0.7c0,0.1,0,0.4-0.1,0.7c-0.1,0.3,0,0.4,0.1,0.5
				c0.1,0.1,0.4,0.1,0.5,0c0.3-0.3,0.4-0.3,0.5-0.3c0.3-0.1,0.7,0.1,0.8,0.3c0.1,0,0.1,0.1,0.3,0.3C50.4,27.1,50.5,27.1,50.7,27.2z
				 M47.3,28.9h-2c0.1-0.4,0.5-0.5,0.9-0.5C46.8,28.4,47.2,28.7,47.3,28.9z M39.1,27.5c-0.7,0-1.2,0.3-1.6,0.7
				c0-0.1-0.1-0.4-0.1-0.5c-0.1-0.3-0.3-0.5-0.4-0.8c0,0,0.1,0,0.1-0.1c0.1-0.1,0.3-0.4,0.1-0.5c-0.1-0.3-0.1-0.4-0.1-0.5
				c0-0.4,0.3-0.7,0.8-0.9l0,0c0.3-0.1,0.7-0.1,1.1-0.1c1.2,0,2,0.5,2,1.1c0,0.1,0,0.4-0.1,0.7c-0.1,0.3,0,0.4,0.1,0.5l0.1,0.1
				c-0.1,0.3-0.3,0.4-0.3,0.7c-0.1,0.3-0.1,0.4-0.1,0.7C40.3,27.7,39.7,27.5,39.1,27.5z M40,28.9h-2c0.1-0.4,0.5-0.5,0.9-0.5
				C39.5,28.4,39.9,28.7,40,28.9z M35.2,22c-1.1,0-2,0.8-2,1.9c-0.4-0.1-0.9-0.3-1.3-0.3h-0.1l0,0h-0.1l0,0c-0.4,0-0.7,0.1-0.9,0.3
				c0-0.4,0-0.8,0.1-1.3c0.4-1.1,1.2-1.6,1.6-1.5c0,0,0.1,0.1,0.4,0.3c0.1,0.1,0.4,0.1,0.5,0s0.3-0.4,0.1-0.5
				c-0.1-0.3-0.1-0.4-0.1-0.5c0-0.5,0.8-1.1,2-1.1s2,0.5,2,1.1c0,0.1,0,0.4-0.1,0.7c-0.1,0.3,0,0.4,0.1,0.5c0.1,0.1,0.4,0.1,0.5,0
				c0.1-0.1,0.1-0.1,0.3-0.1l0,0c0,0,0,0,0,0.1l0,0c0,0,0,0,0,0.1l0,0c0,0,0,0,0,0.1l0,0c0,0,0,0,0,0.1l0,0c0,0,0,0,0,0.1l0,0
				c0,0,0,0,0,0.1l0,0c0,0,0,0,0,0.1l0,0v0.1v0.1l0,0c0,0,0,0,0,0.1l0,0c0,0,0,0,0,0.1l0,0v0.1l0,0v0.1l0,0c0,0,0,0,0,0.1l0,0
				c0,0,0,0,0,0.1l0,0v0.1l0,0v0.1l0,0c0,0,0,0,0,0.1l0,0l0,0C37.1,22.7,36.1,22,35.2,22z M36.3,24c0,0.7-0.5,1.1-1.1,1.1
				c-0.3,0-0.5-0.1-0.7-0.3c-0.1-0.1-0.1-0.3-0.3-0.4c0-0.1-0.1-0.3-0.1-0.4c0-0.7,0.5-1.1,1.1-1.1S36.3,23.3,36.3,24z M37.2,24
				L37.2,24L37.2,24L37.2,24z M40.8,24c-0.5-0.3-1.1-0.4-1.9-0.4c-0.3,0-0.7,0-0.9,0.1l0,0v-0.1l0,0v-0.1l0,0v-0.1l0,0v-0.1l0,0
				v-0.1l0,0v-0.1l0,0v-0.1l0,0v-0.1l0,0v-0.1l0,0l0,0l0,0l0,0l0,0l0,0l0,0l0,0l0,0l0,0c0-0.1,0.1-0.1,0.1-0.3l0,0l0,0l0,0l0,0l0,0
				l0,0l0,0l0,0l0,0l0,0c0,0,0,0,0.1,0l0,0c0.1,0,0.1-0.1,0.3-0.1l0,0c0.1-0.1,0.4-0.1,0.7-0.1c0,0,0.1,0.1,0.4,0.3
				c0.1,0.1,0.4,0.1,0.5,0c0.1-0.1,0.3-0.4,0.1-0.5c-0.1-0.3-0.1-0.4-0.1-0.5c0-0.5,0.8-1.1,2-1.1s2,0.5,2,1.1c0,0.1,0,0.4-0.1,0.7
				c-0.1,0.3,0,0.4,0.1,0.5c0.1,0.1,0.4,0.1,0.5,0c0.3-0.3,0.4-0.3,0.5-0.3c0.3-0.1,0.7,0.1,0.8,0.3c0.4,0.3,0.7,0.7,0.8,1.2
				c0.1,0.4,0.3,0.9,0.1,1.3c-0.3-0.1-0.7-0.3-1.1-0.3l0,0h-0.1l0,0h-0.1c-0.1,0-0.4,0-0.5,0l0,0c-0.3,0-0.5,0.1-0.8,0.1
				c-0.1-1.1-0.9-1.9-2-1.9C41.7,22,40.9,22.8,40.8,24z M44,24c0,0.1,0,0.3-0.1,0.4c-0.1,0.1-0.1,0.3-0.3,0.4
				c-0.1,0.1-0.4,0.3-0.7,0.3c-0.7,0-1.1-0.5-1.1-1.1c0-0.7,0.5-1.1,1.1-1.1S44,23.3,44,24z M27.7,23.9c0-6.3,5.1-11.3,11.3-11.3
				s11.3,5.1,11.3,11.3v1.7c-0.4-0.1-0.8-0.3-1.2-0.1c0-0.4-0.3-0.8-0.7-1.2c0.1-0.7,0.1-1.5-0.1-2.1c-0.3-0.7-0.7-1.3-1.2-1.7
				c-0.5-0.4-1.1-0.5-1.6-0.4c-0.1-1.1-1.3-2-2.9-2c-1.6,0-2.8,0.8-2.9,1.9c-0.3,0-0.7,0-0.9,0.1c0,0-0.4,0-0.8,0
				c-0.1-1.1-1.3-2-2.9-2c-1.6,0-2.8,0.8-2.9,1.9c-1.1-0.1-2.1,0.7-2.7,2.1c-0.3,0.7-0.3,1.5-0.1,2.1c-0.4,0.3-0.7,0.8-0.7,1.2
				c-0.4,0-0.7,0-1.1,0.1C27.7,25.7,27.7,23.9,27.7,23.9z M27.2,27.9c0.1-0.5,0.5-0.9,0.8-1.2c0.1-0.1,0.5-0.4,0.8-0.3
				c0,0,0.1,0.1,0.4,0.3c0.1,0.1,0.4,0.1,0.5,0c0.1-0.1,0.3-0.4,0.1-0.5c-0.1-0.3-0.1-0.4-0.1-0.5c0-0.3,0.3-0.5,0.5-0.7l0,0
				c0.3-0.1,0.8-0.3,1.2-0.4l0,0h0.1c0.7,0,1.3,0.3,1.6,0.5c0.1,0.1,0.1,0.3,0.3,0.4v0.1c0,0.1,0,0.4-0.1,0.7
				c-0.1,0.3,0,0.4,0.1,0.5c0,0,0,0,0.1,0l0,0l0,0l0,0l0,0l0,0l0,0l0,0l0,0c0,0,0,0,0.1,0l0,0c0,0,0,0,0.1,0l0,0l0,0l0,0l0,0
				l0.1-0.1c0.1-0.1,0.3-0.1,0.3-0.1l0,0l0,0l0,0c0.1,0,0.3,0,0.4,0l0,0c0.1,0,0.3,0.1,0.3,0.1c0.4,0.3,0.7,0.7,0.8,1.2
				c0.1,0.4,0.1,0.7,0.1,1.1h-2.9c-0.3-0.9-1.1-1.6-2-1.6s-1.7,0.7-2,1.6h-2.8C26.9,28.7,27.1,28.3,27.2,27.9z M32.7,28.9h-2
				c0.1-0.4,0.5-0.5,0.9-0.5S32.5,28.7,32.7,28.9z M48.4,41.9c-0.3,0.9-1.2,1.6-2.1,1.6H32c-0.9,0-1.9-0.7-2.1-1.6l-3.1-9.7h24.5
				L48.4,41.9z M52.7,31.2H25.5c-0.4,0-0.7-0.3-0.7-0.7c0-0.4,0.3-0.7,0.7-0.7h27.3c0.4,0,0.7,0.3,0.7,0.7
				C53.3,30.9,53.1,31.2,52.7,31.2z"/>
		</g>
	</g>
</g>
<g id="Layer_5" class="st2">
	<g class="st5">
		<g>
			<path class="st0" d="M51.7,19.7h-4.4c-0.3,0-0.4-0.1-0.5-0.4l-0.7-2c-0.1-0.5-0.7-0.9-1.3-0.9H36c-0.7,0-1.2,0.4-1.3,0.9l-0.5,2
				c0,0.3-0.3,0.4-0.5,0.4h-0.9v-1.1c0-0.5-0.4-0.9-0.9-0.9H28c-0.5,0-0.9,0.4-0.9,0.9v1.1c-1.2,0-2.1,1.1-2.1,2.3v14.8
				c0,0,0,0,0,0.1c0,1.2,1.1,2.1,2.3,2.1h24.4c1.3,0,2.4-1.1,2.4-2.4V22.1C54,20.8,52.9,19.7,51.7,19.7z M28,18.8
				C28,18.7,28,18.7,28,18.8l3.7-0.1c0,0,0.1,0,0.1,0.1v1.1H28V18.8z M29.5,38.3h-1.3c-1.5,0-2.4-0.5-2.4-1.3l0,0c0,0,0,0,0-0.1
				V22.1c0-0.8,0.7-1.5,1.5-1.5h2.3c0.8,0,1.5,0.7,1.5,1.5v14.8l0,0C30.9,37.7,30.3,38.3,29.5,38.3z M51.6,38.3H31.2
				c0.3-0.4,0.5-0.9,0.5-1.5V22.1c0-0.5-0.1-1.1-0.5-1.5h2.4c0.5,0,1.2-0.4,1.3-0.9l0.5-2c0-0.3,0.3-0.4,0.5-0.4h8.9
				c0.3,0,0.4,0.1,0.5,0.4l0.5,2c0.1,0.5,0.7,0.9,1.3,0.9h4.4c0.8,0,1.5,0.7,1.5,1.5v14.8l0,0C53.2,37.6,52.5,38.3,51.6,38.3z"/>
		</g>
	</g>
	<g class="st5">
		<g>
			<path class="st0" d="M40.4,21.3c-4.4,0-8,3.6-8,8s3.6,8,8,8s8-3.6,8-8S44.8,21.3,40.4,21.3z M40.4,36.3c-3.9,0-7.1-3.2-7.1-7.1
				s3.2-7.1,7.1-7.1s7.1,3.2,7.1,7.1S44.3,36.3,40.4,36.3z"/>
		</g>
	</g>
	<g class="st5">
		<g>
			<path class="st0" d="M40.4,22.9c-3.5,0-6.4,2.8-6.4,6.4s2.8,6.4,6.4,6.4s6.4-2.8,6.4-6.4S43.9,22.9,40.4,22.9z M40.4,34.7
				c-3.1,0-5.5-2.4-5.5-5.5s2.4-5.5,5.5-5.5c3.1,0,5.5,2.4,5.5,5.5S43.5,34.7,40.4,34.7z"/>
		</g>
	</g>
	<g class="st5">
		<g>
			<path class="st0" d="M42,26.1c-0.5,0-1.1,0.3-1.6,0.5c-0.4-0.4-0.9-0.5-1.6-0.5c-1.3,0-2.4,1.1-2.4,2.4c0,2.8,3.6,4.3,3.9,4.3
				h0.1h0.1c0,0,0.9-0.4,1.9-1.1c1.3-0.9,2-2,2-3.2C44.4,27.2,43.3,26.1,42,26.1z M40.4,31.9c-0.3-0.1-0.9-0.4-1.5-0.9
				c-1.1-0.7-1.6-1.6-1.6-2.4c0-0.8,0.7-1.6,1.6-1.6c0.5,0,0.9,0.3,1.2,0.5c0.1,0.1,0.3,0.1,0.4,0.1s0.3,0,0.4-0.1
				c0.3-0.4,0.8-0.5,1.2-0.5c0.8,0,1.6,0.7,1.6,1.6C43.6,30.4,41.1,31.6,40.4,31.9z"/>
		</g>
	</g>
</g>
<g id="Layer_6" class="st2">
	<g class="st5">
		<g>
			<path class="st0" d="M52.4,40.8h-0.7v-5.7c0-0.8-0.7-1.5-1.5-1.5h-0.9c0-0.9-0.8-1.7-1.9-1.7h-6.5v-0.8c0-0.3-0.3-0.5-0.5-0.5
				c-0.3,0-0.4,0.3-0.4,0.5v0.8h-2.7c-0.3,0-0.5,0.3-0.5,0.5c0,0.3,0.3,0.5,0.5,0.5h10.1c0.5,0,0.9,0.4,0.9,0.8H32.9
				c0-0.5,0.4-0.8,0.9-0.8h1.3c0.3,0,0.5-0.3,0.5-0.5c0-0.3-0.3-0.5-0.5-0.5h-1.3c-0.9,0-1.9,0.8-1.9,1.7h-1.1
				c-0.8,0-1.5,0.7-1.5,1.5v2.1c-0.4-0.1-0.7-0.3-0.8-0.7c-0.1-0.4-0.7-3.9-0.4-5.1c0.3-1.2,1.2-2.3,2.7-3.1s3.3-1.5,4.8-1.6
				c4.7-0.7,9.3,0.8,12.8,3.7l0.1,0.4c0.1,0.7,0.8,1.2,1.6,1.2c0.1,0,0.3,0,0.4,0l0,0c0.4-0.1,0.8-0.4,0.9-0.7
				c0.3-0.4,0.3-0.8,0.1-1.2l-4.5-17.6c-0.3-0.8-1.1-1.3-1.9-1.2l0,0c-0.4,0.1-0.8,0.4-0.9,0.7c-0.3,0.4-0.4,0.8-0.3,1.2l0.1,0.4
				c-0.8,2-2,3.7-3.5,5.2c-1.5,1.6-3.2,2.8-5.2,3.6c-0.5,0.3-1.2,0.4-1.9,0.7c-0.5,0.1-1.1,0.4-1.6,0.5c-1.1,0.4-2.4,0.9-3.5,1.9
				c-1.7,1.2-2.9,2.8-3.3,4.5c-0.3,1.1-0.3,2.3,0,3.7c0,0,0.7,3.2,1.1,4c0.4,0.7,1.2,1.2,2,1.5c0.1,0,0.4,0.1,0.5,0.1
				c0.1,0,0.3,0,0.3,0l0,0l0,0l0,0h0.1v1.3h-0.7c-0.5,0-1.1,0.5-1.1,1.1v0.4c0,0.5,0.5,1.1,1.1,1.1h23.6c0.5,0,1.1-0.5,1.1-1.1v-0.4
				C53.5,41.3,53.1,40.8,52.4,40.8z M45.1,12.7c0.1-0.1,0.3-0.3,0.4-0.3l0,0h0.1c0.3,0,0.5,0.1,0.7,0.5l4.4,17.6
				c0,0.1,0,0.4-0.1,0.5c-0.1,0.1-0.3,0.3-0.4,0.3l0,0c-0.4,0.1-0.7-0.1-0.8-0.5l0-0.5l0,0l-4.1-16.5l0,0l-0.1-0.5
				C44.9,12.9,45.1,12.8,45.1,12.7z M29.5,38.7L29.5,38.7h-0.1c-0.1,0-0.1,0-0.3,0c-0.1,0-0.3,0-0.4-0.1c-0.5-0.1-1.1-0.5-1.5-1.1
				c-0.3-0.4-0.8-2.5-0.9-3.6c-0.3-1.3-0.3-2.4,0-3.3c0.4-1.5,1.5-2.9,2.9-4c1.1-0.8,2.4-1.3,3.3-1.7c0.5-0.1,1.1-0.4,1.5-0.5
				c0.7-0.3,1.3-0.4,1.9-0.7c2-0.9,3.9-2.3,5.5-3.9c1.2-1.3,2.3-2.8,3.1-4.4L48,29.2c-3.6-2.7-8.1-3.7-12.5-3.2
				c-1.6,0.3-3.5,0.8-5.1,1.7c-1.6,0.9-2.8,2.3-3.1,3.7c-0.3,1.3,0.3,4.9,0.5,5.6c0.4,0.9,1.1,1.2,1.7,1.2L29.5,38.7L29.5,38.7z
				 M52.4,42.5H28.8c-0.1,0-0.1,0-0.1-0.1V42c0-0.1,0-0.1,0.1-0.1h16.1c0.3,0,0.5-0.3,0.5-0.5c0-0.3-0.3-0.5-0.5-0.5H30.4v-5.6v-0.1
				c0-0.3,0.3-0.5,0.5-0.5h19.3c0.3,0,0.5,0.3,0.5,0.5v5.7h-3.7c-0.3,0-0.5,0.3-0.5,0.5c0,0.3,0.3,0.5,0.5,0.5h5.3
				c0.1,0,0.1,0,0.1,0.1v0.4l0,0C52.5,42.4,52.5,42.5,52.4,42.5z"/>
		</g>
	</g>
	<g class="st5">
		<g>
			<path class="st0" d="M41.6,35.5c-0.4,0-0.8,0.1-1.1,0.3c-0.3-0.3-0.7-0.3-1.1-0.3c-0.9,0-1.7,0.8-1.7,1.7c0,2,2.5,2.9,2.7,2.9
				h0.1h0.1c0.1,0,2.7-1.1,2.7-2.9C43.3,36.3,42.5,35.5,41.6,35.5z M40.5,39.3c-0.5-0.3-1.9-0.9-1.9-2c0-0.4,0.4-0.8,0.8-0.8
				c0.3,0,0.5,0.1,0.7,0.3c0.1,0.1,0.3,0.1,0.4,0.1c0.1,0,0.3,0,0.4-0.1c0.1-0.3,0.4-0.3,0.7-0.3c0.4,0,0.8,0.4,0.8,0.8
				C42.4,38.3,41.2,39.1,40.5,39.3z"/>
		</g>
	</g>
</g>
<g id="Layer_7" class="st2">
	<g class="st5">
		<g>
			<path class="st0" d="M53.2,39.2h-0.5v-4.9c0-0.8-0.7-1.5-1.5-1.5h-1.7v-4.3c0-0.8-0.7-1.5-1.5-1.5h-1.5v-3.7
				c0-0.8-0.7-1.5-1.5-1.5h-5.7v-0.5c0.9-0.4,4.1-2,4.3-4.7c0.1-0.8-0.3-1.6-0.8-2.3c-0.5-0.5-1.3-0.9-2.1-0.9
				c-0.7,0-1.3,0.3-1.9,0.7c-0.5-0.5-1.2-0.7-1.9-0.7l0,0c-0.8,0-1.6,0.4-2.1,0.9c-0.5,0.7-0.8,1.5-0.8,2.3c0.3,2.7,3.3,4.3,4.3,4.7
				v0.5h-2.7c-0.3,0-0.4,0.1-0.4,0.4c0,0.3,0.1,0.4,0.4,0.4h9.2c0.3,0,0.5,0.3,0.5,0.5v1.2c-0.1-0.1-0.3-0.1-0.4-0.4
				c-0.3-0.3-0.7-0.7-1.5-0.7S42.3,23.7,42,24c-0.3,0.3-0.5,0.4-0.9,0.4c-0.4,0-0.7-0.1-0.9-0.4c-0.3-0.3-0.7-0.7-1.5-0.7
				s-1.2,0.4-1.5,0.7c-0.3,0.3-0.5,0.4-0.9,0.4c-0.4,0-0.7-0.1-0.9-0.4c-0.3-0.3-0.7-0.7-1.5-0.7s-1.2,0.4-1.5,0.7
				c-0.1,0.1-0.3,0.3-0.4,0.4v-1.2c0-0.3,0.3-0.5,0.5-0.5h1.1c0.3,0,0.4-0.1,0.4-0.4s-0.1-0.4-0.4-0.4h-1.1c-0.8,0-1.5,0.7-1.5,1.5
				v3.7h-1.5c-0.8,0-1.5,0.7-1.5,1.5v4.3h-1.5c-0.8,0-1.5,0.7-1.5,1.5V36v3.2h-0.5c-0.5,0-0.9,0.4-0.9,0.9v1.2
				c0,0.5,0.4,0.9,0.9,0.9h28.5c0.5,0,0.9-0.4,0.9-0.9v-1.2C54.1,39.6,53.7,39.2,53.2,39.2z M35.1,16.4c0-0.5,0.1-1.2,0.5-1.6
				c0.4-0.4,0.9-0.7,1.5-0.7l0,0c0.5,0,0.9,0.1,1.3,0.5c0.3,0.3,0.8,0.3,1.2,0c0.4-0.4,0.8-0.5,1.3-0.5l0,0c0.5,0,1.1,0.3,1.5,0.7
				c0.4,0.4,0.5,1.1,0.5,1.6c-0.3,2.3-3.2,3.7-3.9,4C38.3,20,35.3,18.5,35.1,16.4z M32.3,25.3c0.5-0.1,0.8-0.4,1.1-0.7
				c0.3-0.3,0.5-0.4,0.9-0.4c0.4,0,0.7,0.1,0.9,0.4c0.3,0.3,0.7,0.7,1.5,0.7c0.8,0,1.2-0.4,1.5-0.7c0.3-0.3,0.5-0.4,0.9-0.4
				c0.4,0,0.7,0.1,0.9,0.4c0.3,0.3,0.7,0.7,1.5,0.7c0.8,0,1.2-0.4,1.5-0.7c0.3-0.3,0.5-0.4,0.9-0.4c0.4,0,0.7,0.1,0.9,0.4
				c0.3,0.3,0.5,0.5,1.1,0.7v1.6H32.3V25.3z M29.9,27.9H48c0.3,0,0.5,0.3,0.5,0.5v1.3c-0.3-0.1-0.4-0.3-0.5-0.4
				c-0.4-0.3-0.8-0.7-1.6-0.7c-0.8,0-1.2,0.4-1.6,0.7c-0.3,0.3-0.5,0.4-0.9,0.4c-0.5,0-0.7-0.1-0.9-0.4c-0.4-0.3-0.8-0.7-1.6-0.7
				c-0.8,0-1.2,0.4-1.6,0.7c-0.3,0.3-0.5,0.4-0.9,0.4s-0.7-0.1-0.9-0.4c-0.4-0.3-0.8-0.7-1.6-0.7s-1.2,0.4-1.6,0.7
				c-0.3,0.3-0.5,0.4-0.9,0.4c-0.5,0-0.7-0.1-0.9-0.4c-0.4-0.3-0.8-0.7-1.6-0.7s-1.2,0.4-1.6,0.7c-0.1,0.1-0.4,0.3-0.5,0.4v-1.3l0,0
				C29.3,28.1,29.6,27.9,29.9,27.9z M26.7,33.6h17.9c0.3,0,0.4-0.1,0.4-0.4c0-0.3-0.1-0.4-0.4-0.4H29.3v-2.1
				c0.5-0.1,0.8-0.4,1.1-0.5c0.3-0.3,0.5-0.4,0.9-0.4s0.7,0.1,0.9,0.4c0.4,0.3,0.8,0.7,1.6,0.7c0.8,0,1.2-0.4,1.6-0.7
				c0.3-0.3,0.5-0.4,0.9-0.4s0.7,0.1,0.9,0.4c0.4,0.3,0.8,0.7,1.6,0.7c0.8,0,1.2-0.4,1.6-0.7c0.3-0.3,0.5-0.4,0.9-0.4
				s0.7,0.1,0.9,0.4c0.4,0.3,0.8,0.7,1.6,0.7c0.8,0,1.2-0.4,1.6-0.7c0.3-0.3,0.5-0.4,0.9-0.4c0.5,0,0.7,0.1,0.9,0.4
				c0.3,0.3,0.5,0.5,1.1,0.5v2.1h-1.9c-0.3,0-0.4,0.1-0.4,0.4c0,0.3,0.1,0.4,0.4,0.4h4.5c0.3,0,0.5,0.3,0.5,0.5v1.3
				c-0.3-0.1-0.4-0.3-0.5-0.4c-0.4-0.3-0.8-0.7-1.6-0.7c-0.8,0-1.2,0.4-1.6,0.7c-0.3,0.3-0.5,0.4-1.1,0.4c-0.5,0-0.8-0.1-1.1-0.4
				c-0.4-0.3-0.8-0.7-1.6-0.7s-1.2,0.4-1.6,0.7c-0.3,0.3-0.5,0.4-1.1,0.4s-0.8-0.1-1.1-0.4c-0.4-0.3-0.8-0.7-1.6-0.7
				c-0.8,0-1.2,0.4-1.6,0.7c-0.3,0.3-0.5,0.4-1.1,0.4s-0.8-0.1-1.1-0.4c-0.4-0.3-0.8-0.7-1.6-0.7s-1.2,0.4-1.6,0.7
				c-0.3,0.3-0.5,0.4-1.1,0.4s-0.8-0.1-1.1-0.4c-0.4-0.3-0.8-0.7-1.6-0.7s-1.2,0.4-1.6,0.7c-0.3,0.1-0.4,0.3-0.5,0.4v-1.3l0,0
				C26.1,33.9,26.4,33.6,26.7,33.6z M26.1,36.4c0.5-0.1,0.9-0.4,1.2-0.5c0.3-0.3,0.5-0.4,1.1-0.4s0.8,0.1,1.1,0.4
				c0.4,0.3,0.8,0.7,1.6,0.7c0.8,0,1.2-0.4,1.6-0.7c0.3-0.3,0.5-0.4,1.1-0.4s0.8,0.1,1.1,0.4c0.4,0.3,0.8,0.7,1.6,0.7
				c0.8,0,1.2-0.4,1.6-0.7c0.3-0.3,0.5-0.4,1.1-0.4s0.8,0.1,1.1,0.4c0.4,0.3,0.8,0.7,1.6,0.7s1.2-0.4,1.6-0.7
				c0.3-0.3,0.5-0.4,1.1-0.4s0.8,0.1,1.1,0.4c0.4,0.3,0.8,0.7,1.6,0.7s1.2-0.4,1.6-0.7c0.3-0.3,0.5-0.4,1.1-0.4
				c0.5,0,0.8,0.1,1.1,0.4s0.7,0.5,1.2,0.5v2.8H26.1V36.4z M53.3,41.3C53.3,41.3,53.2,41.3,53.3,41.3H24.7c0,0-0.1,0-0.1-0.1V40
				c0,0,0-0.1,0.1-0.1h28.5c0,0,0.1,0,0.1,0.1V41.3z"/>
		</g>
	</g>
	<g class="st5">
		<g>
			<path class="st0" d="M40.7,14.8c-0.8,0-1.3,0.4-1.7,0.8c-0.4-0.4-0.9-0.8-1.7-0.8c-0.8,0-1.5,0.7-1.5,1.5c0,0.7,0.3,1.6,1.6,2.5
				c0.5,0.4,0.9,0.7,1.3,0.8c0.1,0,0.1,0,0.3,0s0.1,0,0.3,0c0.3-0.1,0.8-0.4,1.3-0.8c1.3-1.1,1.6-2,1.6-2.5
				C42.1,15.3,41.5,14.8,40.7,14.8z M40,18c-0.4,0.3-0.7,0.5-0.9,0.7c-0.3-0.1-0.7-0.4-0.9-0.7c-0.8-0.7-1.2-1.2-1.2-1.9
				c0-0.3,0.3-0.5,0.5-0.5c0.5,0,0.9,0.5,1.2,0.8l0,0c0.1,0.1,0.3,0.3,0.5,0.3c0.1,0,0.4-0.1,0.5-0.3l0,0l0,0
				c0.3-0.3,0.7-0.8,1.2-0.8c0.3,0,0.5,0.3,0.5,0.5C41.2,16.8,40.8,17.5,40,18z"/>
		</g>
	</g>
</g>
<g id="Layer_8" class="st2">
	<g class="st5">
		<g>
			<path class="st0" d="M39.7,23.6l5.9-5.5l0,0l0,0l0,0l0,0l0,0l0,0l0,0l0,0l0,0l0,0l0,0l0,0l0,0l0,0l0,0l0,0l0,0V18l0,0l0,0
				l-2.5-3.7l0,0l0,0l0,0l0,0l0,0l0,0l0,0l0,0l0,0c0,0-0.1,0-0.3,0h-8.3l0,0c-0.1,0-0.3,0.1-0.4,0.3l-2.5,3.7l0,0l0,0v0.1l0,0l0,0
				l0,0l0,0l0,0l0,0l0,0l0,0l0,0l0,0l0,0l0,0l0,0l0,0l0,0l0,0l0,0l5.9,5.5c-4.7,0.5-8.4,4.5-8.4,9.5c0,5.2,4.3,9.5,9.5,9.5
				s9.5-4.3,9.5-9.5C48.1,28.1,44.5,24.1,39.7,23.6z M39.7,22.4l1.3-4.1h3.1L39.7,22.4z M38.7,22.5l-1.3-4.3h2.8L38.7,22.5z
				 M42.8,14.9l1.6,2.4h-2.9L42.8,14.9z M42,14.5l-1.2,2.3l-1.2-2.3C39.5,14.5,42,14.5,42,14.5z M39.9,17.3h-2.5l1.2-2.3L39.9,17.3z
				 M37.9,14.5l-1.2,2.3l-1.2-2.3C35.3,14.5,37.9,14.5,37.9,14.5z M34.5,14.9l1.3,2.4h-2.9L34.5,14.9z M33.2,18.3h3.1l1.3,4.1
				L33.2,18.3z M38.7,41.6c-4.7,0-8.5-3.9-8.5-8.5s3.9-8.5,8.5-8.5s8.5,3.9,8.5,8.5S43.3,41.6,38.7,41.6z"/>
		</g>
	</g>
	<g class="st5">
		<g>
			<path class="st0" d="M43.3,22c-0.3-0.1-0.5,0-0.7,0.3c-0.1,0.3,0,0.5,0.3,0.7c4.1,1.7,6.8,5.7,6.8,10.1c0,6.1-4.9,11.1-11.1,11.1
				s-11.1-4.9-11.1-11.1c0-4.4,2.7-8.4,6.8-10.3c0.3-0.1,0.4-0.4,0.3-0.7c-0.1-0.3-0.4-0.4-0.7-0.3c-4.4,1.9-7.3,6.3-7.3,11.1
				c0,6.7,5.3,12,12,12s12-5.3,12-12C50.7,28.3,47.9,23.9,43.3,22z"/>
		</g>
	</g>
</g>
<g id="Layer_9" class="st2">
	<g class="st5">
		<g>
			<path class="st0" d="M51.5,44.1c0-0.1,0-3.1-0.8-6.5c-1.1-4.8-2.8-8.3-5.2-10.4c-1.2-1.1-2.8-1.7-4.5-1.7h-3.5
				c-1.7,0-3.3,0.7-4.5,1.7c-2.4,2.1-4.1,5.6-5.2,10.4c-0.7,3.3-0.8,6-0.8,6.5l0,0c0,0.1,0,0.1,0,0.1s0,0.1,0.1,0.1
				c0.1,0.1,0.3,0.1,0.4,0.1h23.5c0.1,0,0.3,0,0.4-0.1C51.3,44.4,51.5,44.3,51.5,44.1L51.5,44.1L51.5,44.1z M28.7,37.7
				c1.2-5.7,3.3-8.5,4.8-9.9c1.1-0.9,2.4-1.5,3.9-1.5h3.5c1.5,0,2.8,0.5,3.9,1.5c2.8,2.5,4.1,6.7,4.8,9.9c0.1,0.8,0.3,1.5,0.4,2.1
				c-0.3-0.1-0.4-0.1-0.5-0.3c-0.4-0.3-0.8-0.5-1.7-0.5s-1.3,0.3-1.7,0.5c-0.3,0.3-0.5,0.4-1.2,0.4c-0.5,0-0.8-0.1-1.2-0.4
				c-0.4-0.3-0.8-0.5-1.7-0.5c-0.9,0-1.3,0.3-1.7,0.5c0,0.3-0.3,0.4-0.8,0.4s-0.8-0.1-1.2-0.4c-0.4-0.3-0.8-0.5-1.7-0.5
				c-0.8,0-1.3,0.3-1.7,0.5C34.3,39.9,34,40,33.3,40c-0.5,0-0.8-0.1-1.2-0.4c-0.4-0.3-0.8-0.5-1.7-0.5c-0.8,0-1.3,0.3-1.7,0.5
				c-0.1,0.1-0.4,0.3-0.5,0.3C28.4,39.3,28.5,38.5,28.7,37.7z M28,43.6c0-0.5,0.1-1.5,0.3-2.7c0.5-0.1,0.9-0.3,1.2-0.5
				c0.3-0.3,0.5-0.4,1.2-0.4c0.5,0,0.8,0.1,1.2,0.4c0.4,0.3,0.8,0.5,1.7,0.5c0.8,0,1.3-0.3,1.7-0.5c0.3-0.3,0.5-0.4,1.2-0.4
				c0.7,0,0.8,0.1,1.2,0.4c0.4,0.3,0.8,0.5,1.7,0.5c0.8,0,1.3-0.3,1.7-0.5c0.3-0.3,0.5-0.4,1.2-0.4c0.5,0,0.8,0.1,1.2,0.4
				c0.4,0.3,0.8,0.5,1.7,0.5c0.8,0,1.3-0.3,1.7-0.5c0.3-0.3,0.5-0.4,1.2-0.4c0.5,0,0.8,0.1,1.2,0.4c0.3,0.1,0.7,0.4,1.2,0.5
				c0.1,1.2,0.1,2.1,0.3,2.7H28z"/>
		</g>
	</g>
	<g class="st5">
		<g>
			<path class="st0" d="M45.6,19.7c0-0.1,0-0.1,0-0.3v-3.3c0-1.2-0.9-2.1-2.1-2.1h-1.2c-0.5,0-1.1-0.5-1.1-1.1v-0.8
				c0-0.7-0.5-1.3-1.3-1.3h-1.6c-0.7,0-1.3,0.5-1.3,1.3v0.8c0,0.5-0.5,1.1-1.1,1.1h-0.9c-1.2,0-2.1,0.9-2.1,2.1v3.3
				c0,0.1,0,0.1,0,0.3s0,0.5,0.9,4.5c0,0.3,0.4,0.4,0.7,0.4s0.4-0.4,0.4-0.7c-0.8-3.6-0.9-4.1-0.9-4.3v-0.1l0,0
				c0.1-0.8,0.8-1.5,1.6-1.6l0,0h0.1c0.3,0,0.5,0,0.7,0.1c0.5,0.1,0.9,0.4,1.2,0.9c0.3,0.4,0.5,0.7,0.9,0.8c0.3,0.1,0.5,0.1,0.8,0.1
				h0.1c0.7,0,1.3-0.4,1.7-0.9c0.4-0.7,1.1-1.1,1.9-0.9h0.1l0,0c0.8,0.1,1.5,0.8,1.6,1.6l0,0v0.1c0,0.1,0,0.8-0.9,4.3
				c0,0.3,0.1,0.5,0.4,0.7h0.1c0.3,0,0.4-0.1,0.5-0.4C45.6,20.3,45.6,19.9,45.6,19.7z M44.5,17.7c-0.4-0.3-0.8-0.5-1.2-0.7l0,0
				c0,0,0,0-0.1,0l0,0c0,0,0,0-0.1,0c0,0,0,0-0.1,0l0,0h-0.1c-1.2-0.1-2.3,0.5-2.8,1.5c-0.1,0.3-0.5,0.5-0.8,0.5h-0.1
				c-0.4,0-0.7-0.1-0.8-0.5l-0.1-0.1l0,0c0,0,0-0.1-0.1-0.1l0,0c0,0,0,0-0.1-0.1l0,0c0,0,0,0-0.1-0.1l0,0c0,0,0,0-0.1-0.1
				c0,0,0,0-0.1,0c0,0,0,0-0.1-0.1c0,0,0,0-0.1,0c0,0,0,0-0.1,0c0,0,0,0-0.1,0c0,0,0,0-0.1,0c0,0,0,0-0.1,0h-0.1c0,0,0,0-0.1,0h-0.1
				c0,0,0,0-0.1,0H36c0,0,0,0-0.1,0h-0.1c0,0,0,0-0.1,0h-0.1l0,0c-0.1,0-0.3,0-0.4,0l0,0l0,0c-0.1,0-0.1,0-0.3,0h-0.1l0,0
				c0,0,0,0-0.1,0c0,0,0,0-0.1,0l0,0c0,0,0,0-0.1,0l0,0c-0.4,0.1-0.9,0.4-1.2,0.7v-1.6l0,0c0-0.7,0.5-1.2,1.2-1.2H36
				c1.1,0,2-0.9,2-2v-1.5c0-0.1,0.1-0.3,0.3-0.3h1.6c0.1,0,0.3,0.1,0.3,0.3v0.8c0,1.1,0.9,2,2,2h1.2c0.7,0,1.2,0.5,1.2,1.2
				L44.5,17.7L44.5,17.7z"/>
		</g>
	</g>
</g>
<path class="st6" d="M39.3,51.1c8.8-4.6,18.7-12.2,20.3-22.4c0.8-5.2-1-11.8-6.4-13.9c-4.3-1.6-8.4,0.9-11.2,3.9l-2.7,2.9l-2.7-2.9
	c-2.8-3.1-6.9-5.5-11.2-3.9c-5.4,2-7.2,8.6-6.4,13.9C20.6,38.9,30.5,46.5,39.3,51.1L39.3,51.1z"/>
<path class="st1" d="M24.9,38.5c0.3-0.1,0.6-0.2,0.8-0.4c0.3-0.3,0.6-0.6,0.8-0.9c0.3-0.3,0.5-0.7,0.7-1c0.2-0.3,0.3-0.5,0.4-0.6
	c0.1-0.2,0.2-0.3,0.4-0.5s0.4-0.3,0.7-0.2c0.4,0.1,0.5,0.3,0.5,0.5c0,0.3-0.1,0.5-0.1,0.6c0,0.3-0.1,0.6-0.1,1c0,0.5,0,1,0,1.6
	c0,0.5,0,1,0.1,1.6c0.1,0.5,0.2,0.8,0.5,0.8c0.5-0.3,0.9-0.8,1.2-1.2c0.4-0.5,0.7-1.1,1-1.6c0.3-0.6,0.6-1.1,0.8-1.6
	c0.2-0.5,0.4-1,0.6-1.3c-0.3-0.7-0.5-1.4-0.6-2.1c-0.1-0.6,0-1.2,0.1-1.8c0.1-0.4,0.4-0.8,0.7-1.1c0.3-0.2,0.7-0.4,1.1-0.4
	c0.5,0,0.9,0.1,1.2,0.3c0.3,0.2,0.4,0.5,0.5,0.8c0.1,0.4,0.1,0.8,0,1.1c-0.1,0.4-0.2,0.8-0.3,1.2c-0.1,0.4-0.3,0.8-0.4,1.1
	c-0.2,0.3-0.3,0.6-0.4,0.8c0.1,0.2,0.2,0.4,0.3,0.6c0.1,0.2,0.2,0.4,0.4,0.6c0.1,0.2,0.3,0.4,0.4,0.5c0.2,0.1,0.4,0.2,0.6,0.2
	c0.4,0,0.8-0.1,1.2-0.3c0.4-0.2,0.7-0.5,1-0.8c0.3-0.3,0.6-0.7,0.8-1c0.2-0.4,0.4-0.6,0.6-0.9c0.1-0.1,0.2-0.2,0.3-0.3
	c0.2,0,0.3-0.1,0.5,0c0.2,0,0.3,0.1,0.4,0.2c0.1,0.1,0.1,0.3,0,0.4c-0.2,0.4-0.5,0.7-0.8,1.1c-0.3,0.4-0.7,0.7-1.1,1
	c-0.4,0.3-0.9,0.6-1.3,0.8c-0.5,0.2-1.1,0.3-1.6,0.3c-0.4,0-0.9-0.1-1.3-0.3c-0.4-0.2-0.7-0.5-1-0.8c-0.3,0.6-0.6,1.2-1,1.8
	c-0.4,0.6-0.8,1.1-1.3,1.6c-0.4,0.4-0.8,0.8-1.3,1.1c-0.3,0.2-0.7,0.4-1.2,0.4c-0.4,0-0.8-0.1-1.1-0.4c-0.3-0.2-0.5-0.5-0.6-0.9
	c-0.1-0.4-0.2-0.8-0.3-1.2c0-0.4-0.1-0.9-0.1-1.3c-0.2,0.2-0.3,0.4-0.5,0.5c-0.2,0.2-0.5,0.3-0.7,0.5c-0.3,0.1-0.5,0.2-0.8,0.3
	c-0.3,0.1-0.6,0-0.9,0c-0.5-0.1-1-0.4-1.3-0.9c-0.3-0.5-0.6-1.1-0.7-1.6c-0.2-0.6-0.2-1.2-0.3-1.9c0-0.6,0-1.2,0-1.6
	c0.4,0,0.7,0,0.8-0.1c0.1-0.1,0.2-0.2,0.3-0.3c0.1-0.1,0.2-0.2,0.3-0.2c0.2-0.1,0.4-0.1,0.6,0c0,0.2,0,0.5,0,0.9s-0.1,0.8-0.1,1.3
	s0,1-0.1,1.5c0,0.5,0,0.9,0,1.3c0,0.3,0.1,0.7,0.2,1C24.6,38.4,24.7,38.5,24.9,38.5z M34,33.2c0.2-0.3,0.3-0.6,0.4-0.9
	c0.1-0.3,0.2-0.6,0.2-0.9c0-0.3,0-0.5,0-0.8c0-0.2-0.1-0.4-0.2-0.5c-0.2,0.1-0.3,0.3-0.4,0.5c-0.1,0.3-0.1,0.6-0.2,0.9
	c0,0.3,0,0.7,0,1C33.9,32.7,33.9,33,34,33.2z"/>
<path class="st1" d="M49.8,41c0.5,0,0.9-0.1,1.3-0.3c0.4-0.3,0.9-0.6,1.2-1c0.4-0.5,0.7-0.9,1.1-1.5c0.3-0.5,0.6-1.1,0.9-1.6
	c0.3-0.5,0.5-1,0.7-1.5c0.1-0.4,0.3-0.7,0.5-1c0.1-0.1,0.2-0.2,0.3-0.3c0.2,0,0.3-0.1,0.5,0c0.2,0,0.3,0.1,0.4,0.2
	c0.1,0.1,0.1,0.2,0,0.4c-0.3,0.6-0.7,1.3-1.1,2.1c-0.4,0.8-0.9,1.6-1.5,2.3c-0.5,0.7-1.2,1.4-1.9,1.9c-0.7,0.5-1.5,0.8-2.4,0.8
	c-0.7,0-1.3-0.2-1.7-0.5c-0.4-0.3-0.8-0.7-1-1.1c-0.2-0.4-0.4-0.9-0.5-1.4c-0.1-0.5-0.1-1-0.1-1.4v-0.2c-0.4,0.5-0.8,0.9-1.2,1.3
	c-0.4,0.4-0.9,0.8-1.4,1.1c-0.5,0.3-1,0.6-1.6,0.7c-0.6,0.2-1.2,0.2-1.8,0c-0.8-0.1-1.3-0.5-1.6-1.1c-0.3-0.6-0.3-1.3-0.2-2
	c0.2-0.8,0.5-1.6,0.9-2.3c0.5-0.8,1.1-1.5,1.8-2.2c0.7-0.6,1.5-1.1,2.4-1.5c0.9-0.4,1.8-0.5,2.8-0.3c0-0.3,0.1-0.7,0.1-1
	c0-0.4,0.1-0.7,0.1-1.1c0.2-1.8,0.5-3.5,0.8-5.3c0.3-1.5,0.8-2.9,1.4-4.3c0.6-1.2,1.3-2.1,2.1-2.7c0.8-0.6,1.9-0.8,3-0.5
	c0.8,0.2,1.3,0.5,1.6,1.1c0.3,0.6,0.4,1.3,0.4,2c-0.1,0.9-0.3,1.8-0.6,2.7c-0.4,1-0.8,2-1.2,3c-0.5,1-1,2-1.6,3.1
	c-0.6,1-1.1,1.9-1.7,2.8c-0.5,0.9-1,1.6-1.5,2.3c-0.4,0.6-0.8,1.1-1,1.4c0,0.2,0,0.4,0,0.8c0,0.4,0,0.8,0,1.3c0,0.5,0,1,0,1.5
	c0,0.5,0.1,1,0.2,1.5c0.1,0.4,0.2,0.8,0.3,1.1C49.3,40.8,49.6,41,49.8,41z M46.7,31.7c-0.4-0.1-1,0-1.6,0.3
	c-0.6,0.4-1.2,0.8-1.8,1.3c-0.6,0.6-1.2,1.2-1.6,1.9c-0.5,0.6-0.8,1.3-1.2,2c-0.2,0.5-0.4,1.1-0.3,1.6c0,0.5,0.3,0.8,0.8,0.9
	c0.4,0.1,0.8,0,1.3-0.3c0.5-0.4,1.1-0.8,1.5-1.3c0.5-0.5,1-1.1,1.5-1.7c0.5-0.6,0.9-1.1,1.2-1.6c0-0.5,0-1,0-1.6
	C46.6,32.8,46.7,32.2,46.7,31.7z M48.7,32.5c0.2-0.3,0.5-0.9,1.1-1.8c0.6-0.9,1.2-1.9,1.8-3c0.7-1.2,1.3-2.4,1.9-3.6
	c0.6-1.2,1.1-2.3,1.5-3.6c0.3-1.1,0.5-2.1,0.4-2.8c0-0.7-0.6-1.3-1.3-1.5c-0.6-0.2-1.1-0.1-1.6,0.3c-0.5,0.4-0.9,0.9-1.2,1.4
	c-0.4,0.7-0.7,1.5-0.9,2.3c-0.3,0.9-0.5,1.8-0.7,2.8s-0.3,2-0.4,3c-0.1,1-0.2,2-0.3,2.8c-0.1,0.6-0.1,1.3-0.1,1.9
	C48.8,31.2,48.8,31.9,48.7,32.5z"/>
</svg>
