<?xml version="1.0" encoding="utf-8"?>
<!-- Generator: Adobe Illustrator 25.0.0, SVG Export Plug-In . SVG Version: 6.00 Build 0)  -->
<svg version="1.1" id="Layer_1" xmlns="http://www.w3.org/2000/svg" xmlns:xlink="http://www.w3.org/1999/xlink" x="0px" y="0px"
	 viewBox="0 0 207.9 190" style="enable-background:new 0 0 207.9 190;" xml:space="preserve">
<style type="text/css">
	.st0{fill-rule:evenodd;clip-rule:evenodd;fill:#07AFAF;}
	.st1{fill:#FFFFFF;}
	.st2{fill-rule:evenodd;clip-rule:evenodd;fill:#F39006;stroke:#FFFFFF;stroke-width:5;stroke-miterlimit:10;}
</style>
<path id="Path_1" class="st0" d="M109.3,172c36.8-19,77.7-50.6,84.5-93.3c3.5-21.7-4-49.2-26.5-57.8c-17.8-6.8-34.9,3.6-46.8,16.4
	l-11.2,12.1L98.1,37.3C86.2,24.5,69.2,14.2,51.5,20.8c-22.6,8.5-30.1,36-26.7,57.7C31.5,121.4,72.5,153,109.3,172L109.3,172z"/>
<path id="Path_2" class="st1" d="M49.8,115.6c1.5-0.3,2.8-1.1,3.9-2.2c1.5-1.4,2.8-2.9,4.1-4.5c1.2-1.6,2.4-3.2,3.4-4.7
	c1-1.5,1.7-2.5,2-3c0.6-0.8,1.2-1.7,1.9-2.7s1.9-1.3,3.5-0.9c1.8,0.4,2.6,1.2,2.4,2.5c-0.2,1.3-0.4,2.4-0.5,3.1
	c-0.2,1.6-0.4,3.1-0.4,4.7c-0.1,2.4-0.2,5.1-0.2,7.9c0,2.6,0.2,5.2,0.6,7.7c0.4,2.4,1.2,3.7,2.3,4.1c2.4-1.7,4.5-3.8,6.1-6.1
	c1.9-2.6,3.5-5.3,5-8.1c1.5-2.8,2.7-5.5,3.9-8.2c1.1-2.6,2.1-4.8,2.9-6.5c-1.5-3.3-2.5-6.8-2.8-10.4c-0.4-3.1-0.2-6.2,0.5-9.1
	c0.5-2.2,1.8-4.1,3.5-5.4c1.5-1.1,3.3-1.8,5.2-1.8c2.6,0,4.6,0.5,5.8,1.6c1.3,1.1,2.1,2.5,2.4,4.1c0.3,1.9,0.3,3.8,0,5.6
	c-0.4,2.1-0.9,4.1-1.6,6.1c-0.7,2-1.4,3.9-2.2,5.5c-0.8,1.7-1.4,3-1.8,3.9c0.4,0.9,0.9,1.9,1.5,3c0.5,1.1,1.2,2.1,1.9,3.1
	c0.6,0.9,1.4,1.7,2.2,2.5c0.8,0.7,1.8,1,2.8,1c2.1,0,4.1-0.6,5.8-1.7c1.8-1.2,3.5-2.6,5-4.1c1.5-1.6,2.9-3.2,4.1-5
	c1.2-1.8,2.1-3.2,2.8-4.3c0.3-0.7,1-1.1,1.7-1.3c0.8-0.2,1.7-0.3,2.5-0.1c0.8,0.1,1.4,0.6,1.9,1.2c0.4,0.5,0.4,1.3,0,1.8
	c-1.1,1.9-2.3,3.7-3.8,5.3c-1.6,1.9-3.4,3.6-5.3,5.1c-2,1.6-4.3,2.9-6.7,3.8c-2.5,1-5.3,1.5-8,1.4c-2.2,0-4.3-0.5-6.2-1.5
	c-1.9-1.1-3.6-2.4-5-4c-1.4,3.1-3.1,6.1-5.1,8.9c-1.9,2.8-4,5.4-6.4,7.8c-2,2.1-4.2,3.9-6.6,5.5c-1.7,1.2-3.7,1.9-5.7,2
	c-2,0-3.9-0.6-5.4-1.8c-1.4-1.1-2.5-2.6-3.1-4.3c-0.7-1.9-1.2-3.8-1.4-5.9c-0.2-2.1-0.3-4.3-0.3-6.4c-0.8,0.9-1.7,1.7-2.7,2.5
	c-1.1,0.9-2.3,1.6-3.5,2.3c-1.3,0.7-2.6,1.1-4.1,1.4c-1.4,0.2-2.9,0.2-4.3-0.1c-2.7-0.5-5-2.2-6.5-4.5c-1.6-2.5-2.7-5.3-3.4-8.2
	c-0.8-3-1.2-6.1-1.3-9.2c-0.1-3.1-0.1-5.7-0.1-7.8c2.1,0.2,3.5,0.1,4.2-0.3c0.6-0.3,1.2-0.8,1.7-1.3c0.4-0.4,0.9-0.8,1.3-1.1
	c1-0.3,2-0.4,3-0.1c0,0.9-0.1,2.3-0.2,4.3s-0.3,4.1-0.4,6.5s-0.2,4.8-0.3,7.2s0,4.7,0.1,6.7c0.1,1.7,0.4,3.3,1,4.9
	C48,115.1,48.8,115.7,49.8,115.6z M94.8,89.5c0.9-1.4,1.5-2.8,2-4.4c0.5-1.5,0.8-3.1,1-4.6c0.2-1.3,0.2-2.7,0.1-4
	c0-0.9-0.4-1.9-1-2.5c-1,0.4-1.6,1.3-1.9,2.3c-0.4,1.4-0.7,2.8-0.8,4.3c-0.1,1.6-0.1,3.3,0,5C94.2,86.8,94.4,88.2,94.8,89.5z"/>
<path id="Path_3" class="st1" d="M173.3,127.9c2.3,0.2,4.6-0.4,6.5-1.6c2.2-1.4,4.2-3.2,5.9-5.2c1.9-2.2,3.7-4.7,5.2-7.2
	c1.6-2.7,3.1-5.3,4.5-7.9s2.6-5,3.5-7.3c0.7-1.8,1.6-3.5,2.5-5.2c0.3-0.6,1-1.1,1.7-1.3c0.8-0.2,1.7-0.3,2.5-0.1
	c0.8,0.2,1.4,0.6,1.9,1.2c0.4,0.5,0.5,1.2,0.2,1.8c-1.5,2.8-3.3,6.2-5.4,10.2c-2.1,4-4.5,7.9-7.2,11.5c-2.6,3.6-5.8,6.8-9.4,9.4
	c-3.4,2.5-7.5,3.9-11.8,3.8c-3.6,0-6.5-0.8-8.6-2.2c-2-1.4-3.7-3.3-4.9-5.5c-1.2-2.2-1.9-4.6-2.2-7c-0.3-2.5-0.6-4.9-0.7-7v-1.2
	c-1.8,2.3-3.9,4.6-6,6.6c-2.2,2.1-4.6,3.9-7.1,5.5c-2.4,1.6-5.1,2.8-7.9,3.5c-2.9,0.8-5.9,0.8-8.8,0.2c-3.9-0.7-6.5-2.5-7.7-5.2
	c-1.3-3.1-1.6-6.4-0.9-9.7c0.8-4.1,2.3-7.9,4.5-11.5c2.4-4,5.4-7.6,8.9-10.7c3.5-3.1,7.6-5.7,12-7.4c4.3-1.8,9.1-2.3,13.8-1.5
	c0.1-1.7,0.3-3.4,0.4-5.2s0.3-3.5,0.6-5.3c0.9-8.7,2.2-17.4,4.1-26c1.5-7.4,3.8-14.5,7-21.3c2.9-5.9,6.4-10.4,10.6-13.4
	c4.2-3,9.2-3.8,15-2.4c3.8,0.9,6.4,2.7,7.8,5.5c1.5,3.1,2.1,6.7,1.8,10.1c-0.4,4.6-1.4,9-2.9,13.4c-1.8,5.1-3.8,10.1-6.1,15
	c-2.4,5.1-5.1,10.1-7.9,15.1s-5.6,9.7-8.2,14c-2.6,4.3-5.1,8.1-7.3,11.2c-2.2,3.2-3.9,5.5-5,7c0,0.8,0,2.2-0.1,4.1s-0.1,4.1-0.2,6.5
	c-0.1,2.5,0,5,0.2,7.5c0.2,2.6,0.5,5,0.8,7.2c0.3,1.9,0.8,3.8,1.7,5.5C170.8,126.8,172,127.7,173.3,127.9L173.3,127.9z M157.9,82
	c-2.2-0.6-4.8-0.1-7.7,1.5c-3.2,1.8-6.1,4-8.8,6.5c-3,2.8-5.7,5.9-8.1,9.2c-2.3,3.1-4.2,6.4-5.7,9.8c-1.2,2.5-1.8,5.4-1.7,8.2
	c0.2,2.4,1.6,3.8,4.1,4.4c1.9,0.5,4.2-0.1,6.7-1.7c2.7-1.8,5.2-3.9,7.5-6.3c2.6-2.6,5-5.4,7.3-8.3c2.4-3,4.3-5.6,5.8-7.8
	c0.1-2.6,0.2-5.2,0.2-7.7C157.5,87.1,157.6,84.6,157.9,82L157.9,82z M167.9,85.7c0.8-1.5,2.6-4.4,5.4-8.8c2.8-4.3,5.8-9.4,9.1-15.1
	c3.3-5.7,6.4-11.7,9.5-18c2.8-5.7,5.2-11.6,7.2-17.7c1.7-5.5,2.4-10.2,1.9-14.1c-0.2-3.6-2.8-6.5-6.4-7.2c-2.7-0.8-5.7-0.3-8,1.4
	c-2.5,1.9-4.6,4.3-6.1,7.1c-2,3.5-3.5,7.3-4.6,11.2c-1.3,4.3-2.3,8.9-3.2,13.7c-0.9,4.9-1.6,9.8-2.2,14.8c-0.6,5-1,9.7-1.2,14.1
	c-0.3,3.1-0.5,6.2-0.7,9.3C168.2,79.5,168,82.6,167.9,85.7z"/>
<path id="Path_4" class="st2" d="M62.7,26.3c-5-8.5-16-11.4-24.5-6.4c-5.5,3.1-8.9,8.8-8.9,15.1c-5.5-2.9-12.1-2.8-17.6,0.2
	C3,40.3,0,51.3,5,60c2.6,4.5,7.1,7.5,12.1,8.4l34.9,9.4c0.6,0.2,1.2,0.1,1.7-0.2c0.6-0.3,1-0.8,1.2-1.5l9.2-34.9
	C65.9,36.3,65.4,30.8,62.7,26.3L62.7,26.3z"/>
</svg>
