<?xml version="1.0" encoding="utf-8"?>
<!-- Generator: Adobe Illustrator 22.0.1, SVG Export Plug-In . SVG Version: 6.00 Build 0)  -->
<svg version="1.1" xmlns="http://www.w3.org/2000/svg" xmlns:xlink="http://www.w3.org/1999/xlink" x="0px" y="0px"
	 viewBox="0 0 60 60" style="enable-background:new 0 0 60 60;" xml:space="preserve" width="80px" height="80px">
<style type="text/css">
	.st0{fill:var( --weddingdir-color-dark-cyan, #01aeae );}
	.st1{fill:#FFFFFF;}
</style>
<g id="Layer_1">
	<g>
		<g>
			<path class="st0" d="M29.3,1.5c-11.4,0-20.7,9.3-20.7,20.7c0,14.2,18.5,35,19.3,35.9c0.7,0.8,2,0.8,2.8,0
				C31.5,57.2,50,36.4,50,22.2C50,10.8,40.7,1.5,29.3,1.5z"/>
		</g>
	</g>
</g>
<g id="Layer_2">
	<circle class="st1" cx="29.3" cy="21.8" r="17"/>
</g>
<g id="Layer_3">
	<path class="st0" d="M40.1,28.9v-0.6c0-0.5-0.4-0.8-0.8-0.8h-0.1V17c0-1.7-0.7-3.4-1.8-4.7c-1.1-1.2-2.6-2-4.2-2.2
		c-0.1-1-1-1.8-2-1.8l0,0c-0.5,0-1,0.2-1.4,0.5c-0.4-0.3-0.8-0.5-1.4-0.5l0,0c-1,0-1.9,0.8-2,1.8c-1.6,0.2-3.1,1-4.2,2.2
		c-1.2,1.3-1.8,3-1.8,4.7v10.7c-0.4,0-0.8,0.4-0.8,0.8v0.4c-0.4,0-0.8,0.4-0.8,0.8v0.8c0,0.2,0.1,0.3,0.3,0.3h4.6
		c0.2,0,0.3-0.1,0.3-0.3v-0.8c0-0.4-0.3-0.8-0.8-0.8v-0.4c0-0.4-0.3-0.8-0.8-0.8V17c0-2.6,2-4.7,4.6-4.8c0.3,0.3,0.6,0.7,1,1
		c0.8,0.6,1.6,0.9,1.6,0.9h0.1h0.1c0,0,0.8-0.3,1.6-0.9c0.4-0.3,0.8-0.6,1-1c2.5,0.1,4.6,2.2,4.6,4.8v10.4H37
		c-0.5,0-0.8,0.4-0.8,0.8v0.6c-0.3,0.1-0.6,0.4-0.6,0.8v0.8c0,0.2,0.1,0.3,0.3,0.3h4.6c0.2,0,0.3-0.1,0.3-0.3v-0.8
		C40.7,29.4,40.5,29,40.1,28.9z"/>
	<path class="st1" d="M23.1,29.5c0.1,0,0.2,0.1,0.2,0.2v0.4h-3.9v-0.4c0-0.1,0.1-0.2,0.2-0.2H23.1z"/>
	<path class="st1" d="M22.5,28.5v0.4h-2.3v-0.4c0-0.1,0.1-0.1,0.1-0.1h2.1C22.4,28.4,22.5,28.4,22.5,28.5z"/>
	<path class="st1" d="M23.3,13.2c-1,1-1.6,2.4-1.6,3.8v10.7h-0.8V17c0-1.6,0.6-3.1,1.7-4.2c1-1.1,2.3-1.8,3.7-2
		c0,0.3,0.1,0.5,0.2,0.8C25.3,11.8,24.2,12.3,23.3,13.2z"/>
	<path class="st1" d="M32.5,10.5L32.5,10.5C32.5,10.6,32.4,10.6,32.5,10.5C32.4,10.6,32.4,10.6,32.5,10.5c0,0.1,0,0.1,0,0.2l0,0
		c0,0.3-0.2,0.7-0.4,1l0,0c-0.7,1-1.9,1.6-2.3,1.7c-0.2-0.1-0.8-0.4-1.3-0.8c-0.4-0.3-0.7-0.6-1-0.9l0,0c-0.3-0.4-0.4-0.8-0.4-1.3
		l0,0l0,0c0-0.8,0.6-1.4,1.4-1.4l0,0c0.4,0,0.8,0.2,1.1,0.5c0.1,0.1,0.2,0.1,0.3,0.1c0.1,0,0.2,0,0.3-0.1C30.5,9.2,30.9,9,31.3,9
		l0,0C31.8,9.1,32.5,9.8,32.5,10.5L32.5,10.5z"/>
	<path class="st1" d="M36.1,13.2c-0.9-0.9-2-1.4-3.3-1.6c0.1-0.3,0.2-0.5,0.2-0.8c1.4,0.2,2.7,0.9,3.7,2c1.1,1.2,1.7,2.7,1.7,4.2
		v10.4h-0.7V17C37.7,15.6,37.1,14.2,36.1,13.2z"/>
	<path class="st1" d="M36.7,28.4c0-0.1,0.1-0.2,0.2-0.2h2.4c0.1,0,0.2,0.1,0.2,0.2V29h-2.8V28.4L36.7,28.4z"/>
	<path class="st1" d="M40,30.2h-3.9v-0.4c0-0.1,0.1-0.2,0.2-0.2h3.5c0.1,0,0.2,0.1,0.2,0.2V30.2z"/>
	<path class="st0" d="M33.1,22.6h-6.7c-0.7,0-1.2,0.6-1.2,1.2c0,0.7,0.6,1.2,1.2,1.2c0.1,0,0.2,0,0.2,0c0.1,0.5,0.6,0.8,1,0.8h0.3
		v4.7c0,0.2,0.1,0.3,0.3,0.3h2.9c0.2,0,0.3-0.1,0.3-0.3v-4.7h0.3c0.5,0,0.9-0.3,1-0.8c0.1,0,0.2,0,0.2,0c0.7,0,1.2-0.6,1.2-1.2
		C34.3,23.1,33.8,22.6,33.1,22.6z"/>
	<rect x="28.5" y="25.9" class="st1" width="2.3" height="4.3"/>
	<path class="st1" d="M31.8,25.2h-4.2c-0.2,0-0.4-0.2-0.4-0.4l0,0c0.1-0.1,0.1-0.1,0.2-0.2h4.7c0.1,0.1,0.1,0.2,0.2,0.2l0,0l0,0
		C32.2,25,32,25.2,31.8,25.2z"/>
	<path class="st1" d="M33.1,24.4c-0.1,0-0.2,0-0.3-0.1l0,0c-0.1,0-0.1-0.1-0.2-0.2l0,0l0,0l0,0l0,0c0-0.1-0.1-0.2-0.3-0.2l0,0h-5.1
		l0,0c-0.1,0-0.2,0.1-0.3,0.2l0,0l0,0l0,0l0,0c0,0.1-0.1,0.1-0.2,0.2l0,0c-0.1,0.1-0.2,0.1-0.3,0.1c-0.3,0-0.6-0.3-0.6-0.6
		c0-0.3,0.3-0.6,0.6-0.6h6.7c0.3,0,0.6,0.3,0.6,0.6S33.4,24.4,33.1,24.4z"/>
</g>
</svg>
