<?xml version="1.0" encoding="utf-8"?>
<!-- Generator: Adobe Illustrator 22.0.1, SVG Export Plug-In . SVG Version: 6.00 Build 0)  -->
<svg version="1.1" xmlns="http://www.w3.org/2000/svg" xmlns:xlink="http://www.w3.org/1999/xlink" x="0px" y="0px"
	 viewBox="0 0 60 60" style="enable-background:new 0 0 60 60;" xml:space="preserve" width="80px" height="80px">
<style type="text/css">
	.st0{fill:var( --weddingdir-color-dark-cyan, #01aeae );}
	.st1{fill:#FFFFFF;}
	.st2{display:none;}
	.st3{display:inline;fill:var( --weddingdir-color-dark-cyan, #01aeae );}
	.st4{display:inline;fill:#FFFFFF;}
	.st5{display:inline;}
</style>
<g id="Layer_1">
	<g>
		<g>
			<path class="st0" d="M29.3,1.5c-11.4,0-20.7,9.3-20.7,20.7c0,14.2,18.5,35,19.3,35.9c0.7,0.8,2,0.8,2.8,0
				C31.5,57.2,50,36.4,50,22.2C50,10.8,40.7,1.5,29.3,1.5z"/>
		</g>
	</g>
</g>
<g id="Layer_2">
	<circle class="st1" cx="29.3" cy="21.8" r="17"/>
</g>
<g id="Layer_3" class="st2">
	<path class="st3" d="M40.1,28.9v-0.6c0-0.5-0.4-0.8-0.8-0.8h-0.1V17c0-1.7-0.7-3.4-1.8-4.7c-1.1-1.2-2.6-2-4.2-2.2
		c-0.1-1-1-1.8-2-1.8l0,0c-0.5,0-1,0.2-1.4,0.5c-0.4-0.3-0.8-0.5-1.4-0.5l0,0c-1,0-1.9,0.8-2,1.8c-1.6,0.2-3.1,1-4.2,2.2
		c-1.2,1.3-1.8,3-1.8,4.7v10.7c-0.4,0-0.8,0.4-0.8,0.8v0.4c-0.4,0-0.8,0.4-0.8,0.8v0.8c0,0.2,0.1,0.3,0.3,0.3h4.6
		c0.2,0,0.3-0.1,0.3-0.3v-0.8c0-0.4-0.3-0.8-0.8-0.8v-0.4c0-0.4-0.3-0.8-0.8-0.8V17c0-2.6,2-4.7,4.6-4.8c0.3,0.3,0.6,0.7,1,1
		c0.8,0.6,1.6,0.9,1.6,0.9h0.1h0.1c0,0,0.8-0.3,1.6-0.9c0.4-0.3,0.8-0.6,1-1c2.5,0.1,4.6,2.2,4.6,4.8v10.4H37
		c-0.5,0-0.8,0.4-0.8,0.8v0.6c-0.3,0.1-0.6,0.4-0.6,0.8v0.8c0,0.2,0.1,0.3,0.3,0.3h4.6c0.2,0,0.3-0.1,0.3-0.3v-0.8
		C40.7,29.4,40.5,29,40.1,28.9z"/>
	<path class="st4" d="M23.1,29.5c0.1,0,0.2,0.1,0.2,0.2v0.4h-3.9v-0.4c0-0.1,0.1-0.2,0.2-0.2H23.1z"/>
	<path class="st4" d="M22.5,28.5v0.4h-2.3v-0.4c0-0.1,0.1-0.1,0.1-0.1h2.1C22.4,28.4,22.5,28.4,22.5,28.5z"/>
	<path class="st4" d="M23.3,13.2c-1,1-1.6,2.4-1.6,3.8v10.7h-0.8V17c0-1.6,0.6-3.1,1.7-4.2c1-1.1,2.3-1.8,3.7-2
		c0,0.3,0.1,0.5,0.2,0.8C25.3,11.8,24.2,12.3,23.3,13.2z"/>
	<path class="st4" d="M32.5,10.5L32.5,10.5C32.5,10.6,32.4,10.6,32.5,10.5C32.4,10.6,32.4,10.6,32.5,10.5c0,0.1,0,0.1,0,0.2l0,0
		c0,0.3-0.2,0.7-0.4,1l0,0c-0.7,1-1.9,1.6-2.3,1.7c-0.2-0.1-0.8-0.4-1.3-0.8c-0.4-0.3-0.7-0.6-1-0.9l0,0c-0.3-0.4-0.4-0.8-0.4-1.3
		l0,0l0,0c0-0.8,0.6-1.4,1.4-1.4l0,0c0.4,0,0.8,0.2,1.1,0.5c0.1,0.1,0.2,0.1,0.3,0.1c0.1,0,0.2,0,0.3-0.1C30.5,9.2,30.9,9,31.3,9
		l0,0C31.8,9.1,32.5,9.8,32.5,10.5L32.5,10.5z"/>
	<path class="st4" d="M36.1,13.2c-0.9-0.9-2-1.4-3.3-1.6c0.1-0.3,0.2-0.5,0.2-0.8c1.4,0.2,2.7,0.9,3.7,2c1.1,1.2,1.7,2.7,1.7,4.2
		v10.4h-0.7V17C37.7,15.6,37.1,14.2,36.1,13.2z"/>
	<path class="st4" d="M36.7,28.4c0-0.1,0.1-0.2,0.2-0.2h2.4c0.1,0,0.2,0.1,0.2,0.2V29h-2.8V28.4L36.7,28.4z"/>
	<path class="st4" d="M40,30.2h-3.9v-0.4c0-0.1,0.1-0.2,0.2-0.2h3.5c0.1,0,0.2,0.1,0.2,0.2V30.2z"/>
	<path class="st3" d="M33.1,22.6h-6.7c-0.7,0-1.2,0.6-1.2,1.2c0,0.7,0.6,1.2,1.2,1.2c0.1,0,0.2,0,0.2,0c0.1,0.5,0.6,0.8,1,0.8h0.3
		v4.7c0,0.2,0.1,0.3,0.3,0.3h2.9c0.2,0,0.3-0.1,0.3-0.3v-4.7h0.3c0.5,0,0.9-0.3,1-0.8c0.1,0,0.2,0,0.2,0c0.7,0,1.2-0.6,1.2-1.2
		C34.3,23.1,33.8,22.6,33.1,22.6z"/>
	<rect x="28.5" y="25.9" class="st4" width="2.3" height="4.3"/>
	<path class="st4" d="M31.8,25.2h-4.2c-0.2,0-0.4-0.2-0.4-0.4l0,0c0.1-0.1,0.1-0.1,0.2-0.2h4.7c0.1,0.1,0.1,0.2,0.2,0.2l0,0l0,0
		C32.2,25,32,25.2,31.8,25.2z"/>
	<path class="st4" d="M33.1,24.4c-0.1,0-0.2,0-0.3-0.1l0,0c-0.1,0-0.1-0.1-0.2-0.2l0,0l0,0l0,0l0,0c0-0.1-0.1-0.2-0.3-0.2l0,0h-5.1
		l0,0c-0.1,0-0.2,0.1-0.3,0.2l0,0l0,0l0,0l0,0c0,0.1-0.1,0.1-0.2,0.2l0,0c-0.1,0.1-0.2,0.1-0.3,0.1c-0.3,0-0.6-0.3-0.6-0.6
		c0-0.3,0.3-0.6,0.6-0.6h6.7c0.3,0,0.6,0.3,0.6,0.6S33.4,24.4,33.1,24.4z"/>
</g>
<g id="Layer_4" class="st2">
	<g class="st5">
		<g>
			<path class="st0" d="M28,25.8c0-0.2-0.2-0.4-0.4-0.3c-0.2,0-0.4,0.2-0.3,0.4l0.2,5.1c0,0.2,0.2,0.3,0.4,0.3c0,0,0,0,0,0
				c0.2,0,0.4-0.2,0.3-0.4L28,25.8z"/>
		</g>
	</g>
	<g class="st5">
		<g>
			<path class="st0" d="M31,25.5c-0.2,0-0.4,0.1-0.4,0.3l-0.2,5.1c0,0.2,0.1,0.4,0.3,0.4c0,0,0,0,0,0c0.2,0,0.4-0.2,0.4-0.3l0.2-5.1
				C31.4,25.7,31.2,25.5,31,25.5z"/>
		</g>
	</g>
	<g class="st5">
		<g>
			<path class="st0" d="M25.3,30.9l-0.4-2.8c0-0.2-0.2-0.3-0.4-0.3c-0.2,0-0.3,0.2-0.3,0.4l0.4,2.8c0,0.2,0.2,0.3,0.4,0.3
				c0,0,0,0,0.1,0C25.2,31.3,25.3,31.1,25.3,30.9z"/>
		</g>
	</g>
	<g class="st5">
		<g>
			<path class="st0" d="M24.7,26.5l-0.1-0.6c0-0.2-0.2-0.3-0.4-0.3c-0.2,0-0.3,0.2-0.3,0.4l0.1,0.6c0,0.2,0.2,0.3,0.4,0.3
				c0,0,0,0,0.1,0C24.6,26.9,24.7,26.7,24.7,26.5z"/>
		</g>
	</g>
	<g class="st5">
		<g>
			<path class="st0" d="M33.8,30c-0.2,0-0.4,0.1-0.4,0.3l-0.1,0.6c0,0.2,0.1,0.4,0.3,0.4c0,0,0,0,0.1,0c0.2,0,0.3-0.1,0.4-0.3
				l0.1-0.6C34.1,30.2,34,30.1,33.8,30z"/>
		</g>
	</g>
	<g class="st5">
		<g>
			<path class="st0" d="M34.5,25.6c-0.2,0-0.4,0.1-0.4,0.3l-0.4,2.8c0,0.2,0.1,0.4,0.3,0.4c0,0,0,0,0.1,0c0.2,0,0.3-0.1,0.4-0.3
				l0.4-2.8C34.8,25.8,34.7,25.6,34.5,25.6z"/>
		</g>
	</g>
	<g class="st5">
		<g>
			<path class="st0" d="M39.5,21.7h-0.4c0-0.3-0.1-0.7-0.2-1c-0.1-0.3-0.3-0.6-0.4-0.8v-1.9c0-5.1-4.1-9.2-9.2-9.2s-9.2,4.1-9.2,9.2
				v1.9c0,0,0,0,0,0.1c-0.2,0.2-0.3,0.5-0.4,0.8c-0.1,0.3-0.2,0.7-0.2,1h-0.4c-0.6,0-1.2,0.5-1.2,1.2c0,0.6,0.5,1.2,1.2,1.2h0.3
				l2.3,7.6c0.3,1,1.2,1.7,2.3,1.7h10.7c1.1,0,2-0.7,2.3-1.7l2.3-7.6h0.3c0.6,0,1.2-0.5,1.2-1.2C40.7,22.3,40.2,21.7,39.5,21.7z
				 M38,20.4c0.1,0.2,0.2,0.4,0.3,0.6c0.1,0.3,0.1,0.5,0.1,0.8h-2.2c-0.2-0.7-0.8-1.2-1.5-1.2c-0.7,0-1.3,0.5-1.5,1.2h-2.1
				c0-0.2,0-0.5,0.1-0.8c0.1-0.4,0.4-0.7,0.6-0.9c0.1,0,0.1-0.1,0.2-0.1c0,0,0,0,0,0c0.1,0,0.2-0.1,0.3,0c0,0,0,0,0,0c0,0,0,0,0,0
				c0,0,0,0,0,0c0,0,0.1,0.1,0.3,0.2c0.1,0.1,0.3,0.1,0.4,0c0.1-0.1,0.2-0.3,0.1-0.4c-0.1-0.2-0.1-0.3-0.1-0.4c0,0,0-0.1,0-0.1
				c0.1-0.1,0.1-0.2,0.2-0.3c0.2-0.2,0.7-0.4,1.2-0.4c0.4,0,0.8,0.1,1.1,0.3c0.2,0.2,0.4,0.3,0.4,0.5c0,0.1,0,0.3-0.1,0.5
				c-0.1,0.2,0,0.3,0.1,0.4c0.1,0.1,0.3,0.1,0.4,0c0.2-0.2,0.3-0.2,0.4-0.2c0.2-0.1,0.5,0.1,0.6,0.2c0.1,0,0.1,0.1,0.2,0.2
				C37.8,20.3,37.9,20.3,38,20.4z M35.5,21.7H34c0.1-0.3,0.4-0.4,0.7-0.4C35.1,21.3,35.4,21.5,35.5,21.7z M29.3,20.6
				c-0.5,0-0.9,0.2-1.2,0.5c0-0.1-0.1-0.3-0.1-0.4c-0.1-0.2-0.2-0.4-0.3-0.6c0,0,0.1,0,0.1-0.1c0.1-0.1,0.2-0.3,0.1-0.4
				c-0.1-0.2-0.1-0.3-0.1-0.4c0-0.3,0.2-0.5,0.6-0.7c0,0,0,0,0,0c0.2-0.1,0.5-0.1,0.8-0.1c0.9,0,1.5,0.4,1.5,0.8
				c0,0.1,0,0.3-0.1,0.5c-0.1,0.2,0,0.3,0.1,0.4c0,0,0.1,0.1,0.1,0.1c-0.1,0.2-0.2,0.3-0.2,0.5c-0.1,0.2-0.1,0.3-0.1,0.5
				C30.2,20.8,29.8,20.6,29.3,20.6z M30,21.7h-1.5c0.1-0.3,0.4-0.4,0.7-0.4C29.6,21.3,29.9,21.5,30,21.7z M26.4,16.5
				c-0.8,0-1.5,0.6-1.5,1.4c-0.3-0.1-0.7-0.2-1-0.2c0,0-0.1,0-0.1,0c0,0,0,0,0,0c0,0-0.1,0-0.1,0c0,0,0,0,0,0
				c-0.3,0-0.5,0.1-0.7,0.2c0-0.3,0-0.6,0.1-1c0.3-0.8,0.9-1.2,1.2-1.1c0,0,0.1,0.1,0.3,0.2c0.1,0.1,0.3,0.1,0.4,0
				c0.1-0.1,0.2-0.3,0.1-0.4c-0.1-0.2-0.1-0.3-0.1-0.4c0-0.4,0.6-0.8,1.5-0.8s1.5,0.4,1.5,0.8c0,0.1,0,0.3-0.1,0.5
				c-0.1,0.2,0,0.3,0.1,0.4c0.1,0.1,0.3,0.1,0.4,0c0.1-0.1,0.1-0.1,0.2-0.1c0,0,0,0,0,0c0,0,0,0,0,0.1c0,0,0,0,0,0c0,0,0,0,0,0.1
				c0,0,0,0,0,0c0,0,0,0,0,0.1c0,0,0,0,0,0c0,0,0,0,0,0.1c0,0,0,0,0,0c0,0,0,0,0,0.1c0,0,0,0,0,0c0,0,0,0,0,0.1c0,0,0,0,0,0
				c0,0,0,0,0,0.1c0,0,0,0,0,0c0,0,0,0.1,0,0.1c0,0,0,0.1,0,0.1c0,0,0,0,0,0c0,0,0,0,0,0.1c0,0,0,0,0,0c0,0,0,0,0,0.1c0,0,0,0,0,0
				c0,0,0,0.1,0,0.1c0,0,0,0,0,0c0,0,0,0.1,0,0.1c0,0,0,0,0,0c0,0,0,0,0,0.1c0,0,0,0,0,0c0,0,0,0,0,0.1c0,0,0,0,0,0c0,0,0,0.1,0,0.1
				c0,0,0,0,0,0c0,0,0,0.1,0,0.1c0,0,0,0,0,0c0,0,0,0,0,0.1c0,0,0,0,0,0c0,0,0,0,0,0C27.8,17,27.1,16.5,26.4,16.5z M27.2,18
				c0,0.5-0.4,0.8-0.8,0.8c-0.2,0-0.4-0.1-0.5-0.2c-0.1-0.1-0.1-0.2-0.2-0.3c0-0.1-0.1-0.2-0.1-0.3c0-0.5,0.4-0.8,0.8-0.8
				S27.2,17.5,27.2,18z M27.9,18C27.9,18,27.9,18,27.9,18C27.9,18,27.9,18,27.9,18C27.9,18,27.9,18,27.9,18z M30.6,18
				c-0.4-0.2-0.8-0.3-1.4-0.3c-0.2,0-0.5,0-0.7,0.1c0,0,0,0,0,0c0,0,0-0.1,0-0.1c0,0,0,0,0,0c0,0,0-0.1,0-0.1c0,0,0,0,0,0
				c0,0,0-0.1,0-0.1c0,0,0,0,0,0c0,0,0-0.1,0-0.1c0,0,0,0,0,0c0,0,0-0.1,0-0.1c0,0,0,0,0,0c0,0,0-0.1,0-0.1c0,0,0,0,0,0
				c0,0,0-0.1,0-0.1c0,0,0,0,0,0c0,0,0-0.1,0-0.1c0,0,0,0,0,0c0,0,0-0.1,0-0.1c0,0,0,0,0,0c0,0,0,0,0,0c0,0,0,0,0,0c0,0,0,0,0,0
				c0,0,0,0,0,0c0,0,0,0,0,0c0,0,0,0,0,0c0,0,0,0,0,0c0,0,0,0,0,0c0,0,0,0,0,0c0-0.1,0.1-0.1,0.1-0.2c0,0,0,0,0,0c0,0,0,0,0,0
				c0,0,0,0,0,0c0,0,0,0,0,0c0,0,0,0,0,0c0,0,0,0,0,0c0,0,0,0,0,0c0,0,0,0,0,0c0,0,0,0,0,0c0,0,0,0,0,0c0,0,0,0,0.1,0c0,0,0,0,0,0
				c0.1,0,0.1-0.1,0.2-0.1c0,0,0,0,0,0c0.1-0.1,0.3-0.1,0.5-0.1c0,0,0.1,0.1,0.3,0.2c0.1,0.1,0.3,0.1,0.4,0c0.1-0.1,0.2-0.3,0.1-0.4
				c-0.1-0.2-0.1-0.3-0.1-0.4c0-0.4,0.6-0.8,1.5-0.8c0.9,0,1.5,0.4,1.5,0.8c0,0.1,0,0.3-0.1,0.5c-0.1,0.2,0,0.3,0.1,0.4
				c0.1,0.1,0.3,0.1,0.4,0c0.2-0.2,0.3-0.2,0.4-0.2c0.2-0.1,0.5,0.1,0.6,0.2c0.3,0.2,0.5,0.5,0.6,0.9c0.1,0.3,0.2,0.7,0.1,1
				c-0.2-0.1-0.5-0.2-0.8-0.2c0,0,0,0,0,0c0,0-0.1,0-0.1,0c0,0,0,0,0,0c0,0-0.1,0-0.1,0c-0.1,0-0.3,0-0.4,0c0,0,0,0,0,0
				c-0.2,0-0.4,0.1-0.6,0.1c-0.1-0.8-0.7-1.4-1.5-1.4C31.3,16.5,30.7,17.1,30.6,18z M33,18c0,0.1,0,0.2-0.1,0.3
				c-0.1,0.1-0.1,0.2-0.2,0.3c-0.1,0.1-0.3,0.2-0.5,0.2c-0.5,0-0.8-0.4-0.8-0.8c0-0.5,0.4-0.8,0.8-0.8C32.6,17.2,33,17.5,33,18z
				 M20.8,17.9c0-4.7,3.8-8.5,8.5-8.5s8.5,3.8,8.5,8.5v1.3c-0.3-0.1-0.6-0.2-0.9-0.1c0-0.3-0.2-0.6-0.5-0.9c0.1-0.5,0.1-1.1-0.1-1.6
				c-0.2-0.5-0.5-1-0.9-1.3c-0.4-0.3-0.8-0.4-1.2-0.3c-0.1-0.8-1-1.5-2.2-1.5c-1.2,0-2.1,0.6-2.2,1.4c-0.2,0-0.5,0-0.7,0.1
				C29.1,15,28.8,15,28.5,15c-0.1-0.8-1-1.5-2.2-1.5c-1.2,0-2.1,0.6-2.2,1.4c-0.8-0.1-1.6,0.5-2,1.6c-0.2,0.5-0.2,1.1-0.1,1.6
				c-0.3,0.2-0.5,0.6-0.5,0.9c-0.3,0-0.5,0-0.8,0.1C20.8,19.3,20.8,17.9,20.8,17.9z M20.4,20.9c0.1-0.4,0.4-0.7,0.6-0.9
				c0.1-0.1,0.4-0.3,0.6-0.2c0,0,0.1,0.1,0.3,0.2c0.1,0.1,0.3,0.1,0.4,0c0.1-0.1,0.2-0.3,0.1-0.4c-0.1-0.2-0.1-0.3-0.1-0.4
				c0-0.2,0.2-0.4,0.4-0.5c0,0,0,0,0,0c0.2-0.1,0.6-0.2,0.9-0.3c0,0,0,0,0,0c0,0,0.1,0,0.1,0c0.5,0,1,0.2,1.2,0.4
				c0.1,0.1,0.1,0.2,0.2,0.3c0,0,0,0.1,0,0.1c0,0.1,0,0.3-0.1,0.5c-0.1,0.2,0,0.3,0.1,0.4c0,0,0,0,0.1,0c0,0,0,0,0,0c0,0,0,0,0,0
				c0,0,0,0,0,0c0,0,0,0,0,0c0,0,0,0,0,0c0,0,0,0,0,0c0,0,0,0,0,0c0,0,0,0,0,0c0,0,0,0,0.1,0c0,0,0,0,0,0c0,0,0,0,0.1,0c0,0,0,0,0,0
				c0,0,0,0,0,0c0,0,0,0,0,0c0,0,0,0,0,0c0,0,0.1-0.1,0.1-0.1c0.1-0.1,0.2-0.1,0.2-0.1c0,0,0,0,0,0c0,0,0,0,0,0c0,0,0,0,0,0
				c0.1,0,0.2,0,0.3,0c0,0,0,0,0,0c0.1,0,0.2,0.1,0.2,0.1c0.3,0.2,0.5,0.5,0.6,0.9c0.1,0.3,0.1,0.5,0.1,0.8h-2.2
				c-0.2-0.7-0.8-1.2-1.5-1.2c-0.7,0-1.3,0.5-1.5,1.2h-2.1C20.2,21.5,20.3,21.2,20.4,20.9z M24.5,21.7h-1.5c0.1-0.3,0.4-0.4,0.7-0.4
				S24.4,21.5,24.5,21.7z M36.3,31.4c-0.2,0.7-0.9,1.2-1.6,1.2H24c-0.7,0-1.4-0.5-1.6-1.2l-2.3-7.3h18.4L36.3,31.4z M39.5,23.4H19.1
				c-0.3,0-0.5-0.2-0.5-0.5c0-0.3,0.2-0.5,0.5-0.5h20.5c0.3,0,0.5,0.2,0.5,0.5C40,23.2,39.8,23.4,39.5,23.4z"/>
		</g>
	</g>
</g>
<g id="Layer_5" class="st2">
	<g class="st5">
		<g>
			<path class="st0" d="M38.8,14.8h-3.3c-0.2,0-0.3-0.1-0.4-0.3L34.6,13c-0.1-0.4-0.5-0.7-1-0.7H27c-0.5,0-0.9,0.3-1,0.7l-0.4,1.5
				c0,0.2-0.2,0.3-0.4,0.3h-0.7v-0.8c0-0.4-0.3-0.7-0.7-0.7H21c-0.4,0-0.7,0.3-0.7,0.7v0.8c-0.9,0-1.6,0.8-1.6,1.7v11.1
				c0,0,0,0,0,0.1c0,0.9,0.8,1.6,1.7,1.6h18.3c1,0,1.8-0.8,1.8-1.8V16.6C40.5,15.6,39.7,14.8,38.8,14.8z M21,14.1
				C21,14,21,14,21,14.1l2.8-0.1c0,0,0.1,0,0.1,0.1v0.8H21V14.1z M22.1,28.7h-1c-1.1,0-1.8-0.4-1.8-1c0,0,0,0,0,0c0,0,0,0,0-0.1
				V16.6c0-0.6,0.5-1.1,1.1-1.1h1.7c0.6,0,1.1,0.5,1.1,1.1v11.1h0C23.2,28.3,22.7,28.7,22.1,28.7z M38.7,28.7H23.4
				c0.2-0.3,0.4-0.7,0.4-1.1V16.6c0-0.4-0.1-0.8-0.4-1.1h1.8c0.4,0,0.9-0.3,1-0.7l0.4-1.5c0-0.2,0.2-0.3,0.4-0.3h6.7
				c0.2,0,0.3,0.1,0.4,0.3l0.4,1.5c0.1,0.4,0.5,0.7,1,0.7h3.3c0.6,0,1.1,0.5,1.1,1.1v11.1h0C39.9,28.2,39.4,28.7,38.7,28.7z"/>
		</g>
	</g>
	<g class="st5">
		<g>
			<path class="st0" d="M30.3,16c-3.3,0-6,2.7-6,6s2.7,6,6,6s6-2.7,6-6S33.6,16,30.3,16z M30.3,27.2c-2.9,0-5.3-2.4-5.3-5.3
				s2.4-5.3,5.3-5.3c2.9,0,5.3,2.4,5.3,5.3S33.2,27.2,30.3,27.2z"/>
		</g>
	</g>
	<g class="st5">
		<g>
			<path class="st0" d="M30.3,17.2c-2.6,0-4.8,2.1-4.8,4.8s2.1,4.8,4.8,4.8s4.8-2.1,4.8-4.8S32.9,17.2,30.3,17.2z M30.3,26
				c-2.3,0-4.1-1.8-4.1-4.1s1.8-4.1,4.1-4.1c2.3,0,4.1,1.8,4.1,4.1S32.6,26,30.3,26z"/>
		</g>
	</g>
	<g class="st5">
		<g>
			<path class="st0" d="M31.5,19.6c-0.4,0-0.8,0.2-1.2,0.4c-0.3-0.3-0.7-0.4-1.2-0.4c-1,0-1.8,0.8-1.8,1.8c0,2.1,2.7,3.2,2.9,3.2
				c0,0,0.1,0,0.1,0c0,0,0.1,0,0.1,0c0,0,0.7-0.3,1.4-0.8c1-0.7,1.5-1.5,1.5-2.4C33.3,20.4,32.5,19.6,31.5,19.6z M30.3,23.9
				c-0.2-0.1-0.7-0.3-1.1-0.7C28.4,22.7,28,22,28,21.4c0-0.6,0.5-1.2,1.2-1.2c0.4,0,0.7,0.2,0.9,0.4c0.1,0.1,0.2,0.1,0.3,0.1
				s0.2,0,0.3-0.1c0.2-0.3,0.6-0.4,0.9-0.4c0.6,0,1.2,0.5,1.2,1.2C32.7,22.8,30.8,23.7,30.3,23.9z"/>
		</g>
	</g>
</g>
<g id="Layer_6">
	<g>
		<g>
			<path class="st0" d="M39.3,30.6h-0.5v-4.3c0-0.6-0.5-1.1-1.1-1.1H37c0-0.7-0.6-1.3-1.4-1.3h-4.9v-0.6c0-0.2-0.2-0.4-0.4-0.4
				S30,23.1,30,23.3v0.6h-2c-0.2,0-0.4,0.2-0.4,0.4s0.2,0.4,0.4,0.4h7.6c0.4,0,0.7,0.3,0.7,0.6H24.7c0-0.4,0.3-0.6,0.7-0.6h1
				c0.2,0,0.4-0.2,0.4-0.4s-0.2-0.4-0.4-0.4h-1c-0.7,0-1.4,0.6-1.4,1.3h-0.8c-0.6,0-1.1,0.5-1.1,1.1v1.6c-0.3-0.1-0.5-0.2-0.6-0.5
				c-0.1-0.3-0.5-2.9-0.3-3.8c0.2-0.9,0.9-1.7,2-2.3c1.1-0.6,2.5-1.1,3.6-1.2c3.5-0.5,7,0.6,9.6,2.8l0.1,0.3
				c0.1,0.5,0.6,0.9,1.2,0.9c0.1,0,0.2,0,0.3,0l0,0c0.3-0.1,0.6-0.3,0.7-0.5c0.2-0.3,0.2-0.6,0.1-0.9L35.4,9.5
				c-0.2-0.6-0.8-1-1.4-0.9l0,0c-0.3,0.1-0.6,0.3-0.7,0.5C33.1,9.4,33,9.7,33.1,10l0.1,0.3c-0.6,1.5-1.5,2.8-2.6,3.9
				c-1.1,1.2-2.4,2.1-3.9,2.7c-0.4,0.2-0.9,0.3-1.4,0.5c-0.4,0.1-0.8,0.3-1.2,0.4c-0.8,0.3-1.8,0.7-2.6,1.4
				c-1.3,0.9-2.2,2.1-2.5,3.4c-0.2,0.8-0.2,1.7,0,2.8c0,0,0.5,2.4,0.8,3c0.3,0.5,0.9,0.9,1.5,1.1c0.1,0,0.3,0.1,0.4,0.1
				c0.1,0,0.2,0,0.2,0l0,0c0,0,0,0,0,0c0,0,0,0,0,0l0.1,0v1h-0.5c-0.4,0-0.8,0.4-0.8,0.8v0.3c0,0.4,0.4,0.8,0.8,0.8h17.7
				c0.4,0,0.8-0.4,0.8-0.8v-0.3C40.1,31,39.8,30.6,39.3,30.6z M33.8,9.5c0.1-0.1,0.2-0.2,0.3-0.2l0,0c0,0,0.1,0,0.1,0
				c0.2,0,0.4,0.1,0.5,0.4L38,22.9c0,0.1,0,0.3-0.1,0.4c-0.1,0.1-0.2,0.2-0.3,0.2l0,0c-0.3,0.1-0.5-0.1-0.6-0.4L37,22.7c0,0,0,0,0,0
				l-3.1-12.4c0,0,0,0,0,0l-0.1-0.4C33.7,9.7,33.8,9.6,33.8,9.5z M22.1,29L22.1,29L22,29c-0.1,0-0.1,0-0.2,0c-0.1,0-0.2,0-0.3-0.1
				c-0.4-0.1-0.8-0.4-1.1-0.8c-0.2-0.3-0.6-1.9-0.7-2.7c-0.2-1-0.2-1.8,0-2.5c0.3-1.1,1.1-2.2,2.2-3c0.8-0.6,1.8-1,2.5-1.3
				c0.4-0.1,0.8-0.3,1.1-0.4c0.5-0.2,1-0.3,1.4-0.5c1.5-0.7,2.9-1.7,4.1-2.9c0.9-1,1.7-2.1,2.3-3.3L36,21.9c-2.7-2-6.1-2.8-9.4-2.4
				c-1.2,0.2-2.6,0.6-3.8,1.3c-1.2,0.7-2.1,1.7-2.3,2.8c-0.2,1,0.2,3.7,0.4,4.2c0.3,0.7,0.8,0.9,1.3,0.9L22.1,29L22.1,29z
				 M39.3,31.9H21.6c-0.1,0-0.1,0-0.1-0.1v-0.3c0-0.1,0-0.1,0.1-0.1h12.1c0.2,0,0.4-0.2,0.4-0.4s-0.2-0.4-0.4-0.4H22.8v-4.2v-0.1
				c0-0.2,0.2-0.4,0.4-0.4h14.5c0.2,0,0.4,0.2,0.4,0.4v4.3h-2.8c-0.2,0-0.4,0.2-0.4,0.4s0.2,0.4,0.4,0.4h4c0.1,0,0.1,0,0.1,0.1v0.3
				h0C39.4,31.8,39.4,31.9,39.3,31.9z"/>
		</g>
	</g>
	<g>
		<g>
			<path class="st0" d="M31.2,26.6c-0.3,0-0.6,0.1-0.8,0.2c-0.2-0.2-0.5-0.2-0.8-0.2c-0.7,0-1.3,0.6-1.3,1.3c0,1.5,1.9,2.2,2,2.2
				c0,0,0.1,0,0.1,0c0,0,0.1,0,0.1,0c0.1,0,2-0.8,2-2.2C32.5,27.2,31.9,26.6,31.2,26.6z M30.4,29.5C30,29.3,29,28.8,29,28
				c0-0.3,0.3-0.6,0.6-0.6c0.2,0,0.4,0.1,0.5,0.2c0.1,0.1,0.2,0.1,0.3,0.1c0.1,0,0.2,0,0.3-0.1c0.1-0.2,0.3-0.2,0.5-0.2
				c0.3,0,0.6,0.3,0.6,0.6C31.8,28.7,30.9,29.3,30.4,29.5z"/>
		</g>
	</g>
</g>
</svg>
