<svg xmlns="http://www.w3.org/2000/svg" viewBox="0 0 256 256" role="img" aria-label="Compare vendors icon">
  <rect x="26" y="40" width="84" height="170" rx="14" fill="#ffffff" stroke="#C7D2FE" stroke-width="6"/>
  <rect x="146" y="40" width="84" height="170" rx="14" fill="#ffffff" stroke="#FBCFE8" stroke-width="6"/>
  <rect x="40" y="62" width="56" height="12" rx="6" fill="#A5B4FC"/>
  <rect x="160" y="62" width="56" height="12" rx="6" fill="#F9A8D4"/>
  <path d="M46 98l9 9 17-20" stroke="#22C55E" stroke-width="7" stroke-linecap="round" stroke-linejoin="round"/>
  <path d="M46 130l9 9 17-20" stroke="#22C55E" stroke-width="7" stroke-linecap="round" stroke-linejoin="round"/>
  <path d="M173 101l7 14 15 2-11 10 3 15-14-7-13 7 2-15-11-10 15-2z" fill="#F59E0B"/>
  <path d="M173 138l7 14 15 2-11 10 3 15-14-7-13 7 2-15-11-10 15-2z" fill="#FB7185"/>
  <path d="M118 98h20M118 130h20M118 162h20" stroke="#94A3B8" stroke-width="6" stroke-linecap="round"/>
</svg>
