<svg xmlns="http://www.w3.org/2000/svg" viewBox="0 0 256 256" role="img" aria-label="Hotel icon">
  <rect x="70" y="28" width="116" height="200" rx="12" fill="#ffffff" stroke="#93C5FD" stroke-width="6"/>
  <rect x="92" y="48" width="72" height="24" rx="8" fill="#2563EB"/>
  <text x="128" y="65" text-anchor="middle" font-size="14" font-family="Arial, sans-serif" font-weight="700" fill="#fff">HOTEL</text>
  <g fill="#BFDBFE">
    <rect x="86" y="84" width="16" height="16" rx="3"/>
    <rect x="110" y="84" width="16" height="16" rx="3"/>
    <rect x="134" y="84" width="16" height="16" rx="3"/>
    <rect x="158" y="84" width="16" height="16" rx="3"/>
    <rect x="86" y="108" width="16" height="16" rx="3"/>
    <rect x="110" y="108" width="16" height="16" rx="3"/>
    <rect x="134" y="108" width="16" height="16" rx="3"/>
    <rect x="158" y="108" width="16" height="16" rx="3"/>
    <rect x="86" y="132" width="16" height="16" rx="3"/>
    <rect x="110" y="132" width="16" height="16" rx="3"/>
    <rect x="134" y="132" width="16" height="16" rx="3"/>
    <rect x="158" y="132" width="16" height="16" rx="3"/>
  </g>
  <rect x="114" y="158" width="28" height="70" rx="6" fill="#1D4ED8"/>
</svg>
