<svg xmlns="http://www.w3.org/2000/svg" viewBox="0 0 256 256" role="img" aria-label="Wedding website icon">
  <rect x="26" y="40" width="204" height="132" rx="18" fill="#ffffff" stroke="#FECACA" stroke-width="6"/>
  <rect x="26" y="40" width="204" height="26" rx="18" fill="#FFE4E6"/>
  <circle cx="44" cy="53" r="4" fill="#FB7185"/>
  <circle cx="58" cy="53" r="4" fill="#FDA4AF"/>
  <circle cx="72" cy="53" r="4" fill="#FBCFE8"/>
  <rect x="44" y="80" width="82" height="74" rx="12" fill="#FFEDD5"/>
  <rect x="134" y="80" width="78" height="18" rx="9" fill="#E0E7FF"/>
  <rect x="134" y="106" width="62" height="12" rx="6" fill="#DBEAFE"/>
  <rect x="134" y="124" width="72" height="12" rx="6" fill="#DCFCE7"/>
  <rect x="134" y="142" width="54" height="12" rx="6" fill="#FDE68A"/>
  <path d="M85 131c-12-8-18-13-18-22 0-7 5-12 12-12 5 0 9 2 12 7 3-5 7-7 12-7 7 0 12 5 12 12 0 9-6 14-18 22z" fill="#EF4444"/>
  <rect x="106" y="176" width="44" height="10" rx="5" fill="#94A3B8"/>
  <rect x="84" y="186" width="88" height="14" rx="7" fill="#CBD5E1"/>
</svg>
